<?xml version="1.0" encoding="UTF-8"?>
<svg version="1.1" xmlns="http://www.w3.org/2000/svg" width="1920" height="1080">
<path d="M0 0 C3.64038086 -0.16259766 3.64038086 -0.16259766 7 0 C14.20786425 14.22881727 21.39735584 28.46674139 28.56514072 42.71578407 C31.89372395 49.33170598 35.22823974 55.94450941 38.5769043 62.55029297 C41.49570549 68.30813902 44.40319948 74.07152844 47.29727596 79.84184396 C48.82997711 82.89681998 50.36817794 85.94873083 51.9199543 88.99406815 C53.6497998 92.39583524 55.35947423 95.80703088 57.06469727 99.22119141 C57.84152611 100.73170578 57.84152611 100.73170578 58.63404846 102.2727356 C62.01625704 109.11776589 62.01625704 109.11776589 61.93345642 113.61117554 C61 116 61 116 59 117 C57.62732006 117.10405068 56.2498519 117.14860729 54.87329102 117.16113281 C54.02223282 117.17074036 53.17117462 117.1803479 52.29432678 117.19024658 C51.37348801 117.19449646 50.45264923 117.19874634 49.50390625 117.203125 C48.08717873 117.21167511 48.08717873 117.21167511 46.64183044 117.22039795 C44.64200971 117.22985293 42.64217336 117.2363839 40.64233398 117.24023438 C37.57833823 117.24994978 34.51501038 117.28097244 31.45117188 117.3125 C29.51042066 117.31902895 27.56966464 117.32427985 25.62890625 117.328125 C24.71009171 117.3404718 23.79127716 117.3528186 22.84461975 117.36553955 C21.99040939 117.36253845 21.13619904 117.35953735 20.25610352 117.35644531 C19.12930931 117.36191376 19.12930931 117.36191376 17.97975159 117.36749268 C15.42108716 116.89253893 14.60986262 116.01084208 13 114 C11.66708006 111.58506057 10.41657379 109.18210608 9.20703125 106.70703125 C8.85613937 106.00100266 8.5052475 105.29497406 8.14372253 104.56755066 C7.02763686 102.31862753 5.91998233 100.06567028 4.8125 97.8125 C4.05589133 96.28423141 3.29873609 94.75623329 2.54101562 93.22851562 C0.68766053 89.48878243 -1.15814557 85.74540987 -3 82 C-2.94779297 83.97419922 -2.94779297 83.97419922 -2.89453125 85.98828125 C-2.53522712 105.357538 -2.53522712 105.357538 -6 113 C-6.46720459 114.04051514 -6.46720459 114.04051514 -6.94384766 115.10205078 C-10.36863347 118.26332897 -14.36274196 117.52945419 -18.84765625 117.4609375 C-19.81529404 117.46002106 -20.78293182 117.45910461 -21.77989197 117.4581604 C-23.82507229 117.45211851 -25.87024352 117.43635494 -27.9152832 117.41162109 C-31.05387793 117.37510033 -34.19129309 117.37060174 -37.33007812 117.37109375 C-39.31511442 117.36126342 -41.30014268 117.34960678 -43.28515625 117.3359375 C-44.2278688 117.33371185 -45.17058136 117.33148621 -46.14186096 117.32919312 C-47.01293991 117.31643341 -47.88401886 117.30367371 -48.78149414 117.29052734 C-49.54965958 117.28290375 -50.31782501 117.27528015 -51.10926819 117.26742554 C-53 117 -53 117 -55 115 C-55.47915133 110.33261757 -54.54989819 107.35591659 -52.46142578 103.20996094 C-51.90730011 102.0957074 -51.35317444 100.98145386 -50.78225708 99.83343506 C-50.17031482 98.63355827 -49.55799084 97.4338761 -48.9453125 96.234375 C-48.32140287 94.99267669 -47.69844138 93.75050156 -47.0763855 92.50787354 C-45.7738519 89.91198771 -44.46358579 87.32021784 -43.14697266 84.73144531 C-41.45910175 81.41240781 -39.78529649 78.0865332 -38.11650276 74.75786972 C-36.83152065 72.1962142 -35.54202465 69.63685516 -34.25085068 67.07831573 C-33.63213082 65.85226958 -33.01415835 64.62584596 -32.39694595 63.39904022 C-31.53459211 61.68807046 -30.66612025 59.98018838 -29.79736328 58.27246094 C-29.30438751 57.30016541 -28.81141174 56.32786987 -28.30349731 55.32611084 C-27 53 -27 53 -25 51 C-22.609375 50.6328125 -22.609375 50.6328125 -20 51 C-18.015625 52.6796875 -18.015625 52.6796875 -16.25 54.875 C-15.65703125 55.59429688 -15.0640625 56.31359375 -14.453125 57.0546875 C-13 59 -13 59 -12 61 C-12.10828125 60.17822266 -12.10828125 60.17822266 -12.21875 59.33984375 C-14.43327168 40.42413772 -12.80824523 23.01348102 -4 6 C-3.42121094 4.87851562 -2.84242188 3.75703125 -2.24609375 2.6015625 C-1.50488281 1.74304688 -0.76367188 0.88453125 0 0 Z M-5 78 C-4 80 -4 80 -4 80 Z " fill="#2885FE" transform="translate(550,481)"/>
<path d="M0 0 C1.43352212 0.00015908 2.86704998 0.00585132 4.30053711 0.01586914 C5.43041298 0.01799156 5.43041298 0.01799156 6.58311462 0.02015686 C8.99807646 0.02577163 11.41294687 0.03832656 13.82788086 0.05102539 C15.46134307 0.05603849 17.09480672 0.06060173 18.72827148 0.06469727 C22.74067671 0.07574585 26.75301326 0.09302033 30.76538086 0.11352539 C37.29083569 11.94191324 43.71109585 23.82019055 49.95288086 35.80102539 C50.5170874 36.8811792 51.08129395 37.96133301 51.66259766 39.07421875 C52.1850708 40.08105713 52.70754395 41.08789551 53.24584961 42.12524414 C53.70886475 43.01687256 54.17187988 43.90850098 54.64892578 44.82714844 C55.76538086 47.11352539 55.76538086 47.11352539 56.76538086 50.11352539 C57.09538086 33.61352539 57.42538086 17.11352539 57.76538086 0.11352539 C65.35538086 0.11352539 72.94538086 0.11352539 80.76538086 0.11352539 C80.76538086 32.12352539 80.76538086 64.13352539 80.76538086 97.11352539 C71.52538086 97.11352539 62.28538086 97.11352539 52.76538086 97.11352539 C51.60522461 94.91438477 50.44506836 92.71524414 49.24975586 90.44946289 C47.67236803 87.46209402 46.09394278 84.47527401 44.51538086 81.48852539 C43.90362503 80.3307106 43.90362503 80.3307106 43.2795105 79.14950562 C37.73472042 68.66017059 32.14860965 58.19837086 26.38354492 47.82788086 C25.94365234 47.03140137 25.50375977 46.23492188 25.05053711 45.41430664 C24.67807861 44.74568604 24.30562012 44.07706543 23.921875 43.38818359 C22.38647612 40.36827409 21.0999073 37.22742043 19.76538086 34.11352539 C19.43538086 54.90352539 19.10538086 75.69352539 18.76538086 97.11352539 C11.50538086 97.11352539 4.24538086 97.11352539 -3.23461914 97.11352539 C-5.12119585 95.22694868 -4.36129102 92.48180037 -4.37014771 89.97138977 C-4.36812347 89.08823593 -4.36609924 88.20508209 -4.36401367 87.29516602 C-4.36576599 86.37003708 -4.36751831 85.44490814 -4.36932373 84.491745 C-4.37374381 81.41773634 -4.37080371 78.34378469 -4.36743164 75.26977539 C-4.36810463 73.14367664 -4.36907462 71.01757797 -4.37033081 68.89147949 C-4.371808 64.42919179 -4.36965256 59.96692406 -4.36499023 55.50463867 C-4.35929294 49.7708197 -4.36257183 44.03704754 -4.3685627 38.30323029 C-4.37216775 33.91106816 -4.37102998 29.51891722 -4.36843491 25.12675476 C-4.36776548 23.0119374 -4.36859459 20.89711905 -4.37091446 18.78230286 C-4.37344008 15.83213593 -4.36960168 12.88204593 -4.36401367 9.93188477 C-4.3660379 9.04873093 -4.36806213 8.16557709 -4.37014771 7.25566101 C-4.34508788 0.1524995 -4.34508788 0.1524995 0 0 Z " fill="#0253CC" transform="translate(1344.234619140625,500.886474609375)"/>
<path d="M0 0 C10.56 0 21.12 0 32 0 C36.49991581 11.24978953 36.49991581 11.24978953 38.36254883 16.60107422 C38.78010941 17.79707245 39.19766998 18.99307068 39.62788391 20.22531128 C40.07097521 21.50175538 40.51402317 22.77821452 40.95703125 24.0546875 C41.42758688 25.405029 41.89835048 26.75529805 42.36930847 28.10549927 C43.60321598 31.64472922 44.83442273 35.18489259 46.06500244 38.72528076 C47.53743531 42.95983274 49.01306421 47.19327193 50.48841667 51.4268074 C51.67852186 54.84229197 52.86749035 58.25816254 54.05374146 61.67498779 C56.10002402 67.56645607 58.15498443 73.45410377 60.25927734 79.32519531 C60.59166916 80.25703644 60.92406097 81.18887756 61.26652527 82.1489563 C61.86593474 83.8255769 62.47027406 85.50044765 63.08076477 87.17306519 C64.33278938 90.68366364 65 93.22570028 65 97 C55.76 97 46.52 97 37 97 C33 84 33 84 33 82 C32.29359375 82.15597656 31.5871875 82.31195312 30.859375 82.47265625 C20.45246179 84.446832 10.5083765 83.77529398 0 83 C-1.32 87.62 -2.64 92.24 -4 97 C-13.24 97 -22.48 97 -32 97 C-30.87501137 88.00009098 -30.87501137 88.00009098 -29.5480957 84.22851562 C-29.1047438 82.94951134 -29.1047438 82.94951134 -28.6524353 81.64466858 C-28.16899155 80.28915138 -28.16899155 80.28915138 -27.67578125 78.90625 C-27.33737213 77.93711166 -26.99896301 76.96797333 -26.65029907 75.96946716 C-25.54518069 72.81029769 -24.42893485 69.655186 -23.3125 66.5 C-22.5462168 64.31609595 -21.78068034 62.13192975 -21.01586914 59.94750977 C-19.45329315 55.48840647 -17.88629769 51.03089583 -16.31542969 46.57470703 C-14.11943052 40.34369405 -11.93623935 34.10826898 -9.7578125 27.87109375 C-6.51158569 18.578483 -3.25794816 9.2885083 0 0 Z M16 26 C12.7 37.22 9.4 48.44 6 60 C9.76527955 60.94131989 12.70867619 61.13376865 16.5625 61.125 C18.26599609 61.12886719 18.26599609 61.12886719 20.00390625 61.1328125 C23.05233998 61.1347228 23.05233998 61.1347228 26 60 C24.629793 52.29447373 22.61501526 44.86903481 20.375 37.375 C19.88773438 35.72564453 19.88773438 35.72564453 19.390625 34.04296875 C18.597636 31.36080009 17.80069834 28.67987525 17 26 C16.67 26 16.34 26 16 26 Z " fill="#0354CC" transform="translate(926,501)"/>
<path d="M0 0 C10.56 0 21.12 0 32 0 C36.49920934 11.24802335 36.49920934 11.24802335 38.03955078 15.73974609 C38.56173439 17.2560688 38.56173439 17.2560688 39.09446716 18.80302429 C39.45774612 19.86576065 39.82102509 20.92849701 40.1953125 22.0234375 C40.58489639 23.15582352 40.97448029 24.28820953 41.37586975 25.45491028 C42.62772967 29.0942053 43.87642743 32.734576 45.125 36.375 C46.8300171 41.33793412 48.53715065 46.30013517 50.24609375 51.26171875 C50.66097549 52.46627213 51.07585724 53.6708255 51.50331116 54.91188049 C53.7858933 61.52520186 56.094435 68.12747873 58.47265625 74.70703125 C58.71550354 75.37939819 58.95835083 76.05176514 59.20855713 76.74450684 C60.26483569 79.66158269 61.3309336 82.57467323 62.40869141 85.48388672 C62.76237793 86.45213379 63.11606445 87.42038086 63.48046875 88.41796875 C63.77848389 89.22000732 64.07649902 90.0220459 64.38354492 90.84838867 C65 93 65 93 65 97 C55.76 97 46.52 97 37 97 C33 85 33 85 33 82 C32.29359375 82.15597656 31.5871875 82.31195312 30.859375 82.47265625 C20.45246179 84.446832 10.5083765 83.77529398 0 83 C-0.27714844 83.92683594 -0.55429687 84.85367188 -0.83984375 85.80859375 C-1.20207031 87.00613281 -1.56429687 88.20367188 -1.9375 89.4375 C-2.29714844 90.63246094 -2.65679688 91.82742188 -3.02734375 93.05859375 C-4 96 -4 96 -5 97 C-6.99964982 97.08758003 -9.0023611 97.10696576 -11.00390625 97.09765625 C-12.82631836 97.09282227 -12.82631836 97.09282227 -14.68554688 97.08789062 C-15.96494141 97.07951172 -17.24433594 97.07113281 -18.5625 97.0625 C-19.84576172 97.05798828 -21.12902344 97.05347656 -22.45117188 97.04882812 C-25.63416022 97.03699545 -28.81705762 97.02051068 -32 97 C-31.44526277 90.02809156 -29.49077499 83.9569779 -27.16796875 77.3828125 C-26.77960846 76.26382065 -26.39124817 75.1448288 -25.99111938 73.9919281 C-24.73084698 70.36691871 -23.45936907 66.74595502 -22.1875 63.125 C-21.32122479 60.64076459 -20.45558578 58.15630724 -19.59057617 55.67163086 C-17.0713758 48.44388174 -14.53750165 41.22134076 -12 34 C-11.30889042 32.03109737 -10.61780767 30.06218531 -9.92675781 28.09326172 C-6.63563813 18.72243201 -3.32137444 9.36023707 0 0 Z M16 27 C12.22448985 37.89274843 8.99608834 48.86985055 6 60 C9.59708501 60.98018255 12.82429785 61.13350558 16.5625 61.125 C18.26599609 61.12886719 18.26599609 61.12886719 20.00390625 61.1328125 C23.05233998 61.1347228 23.05233998 61.1347228 26 60 C24.47929148 52.69599091 22.49566074 45.58826458 20.375 38.4375 C20.05015625 37.33341797 19.7253125 36.22933594 19.390625 35.09179688 C18.59639176 32.39373982 17.79946328 29.69651103 17 27 C16.67 27 16.34 27 16 27 Z " fill="#0354CC" transform="translate(683,501)"/>
<path d="M0 0 C10.56 0 21.12 0 32 0 C38.78585844 18.6302659 45.31107261 37.34453041 51.79467773 56.08178711 C52.14664719 57.09876175 52.49861664 58.11573639 52.86125183 59.16352844 C53.55804969 61.17785666 54.25419595 63.19241041 54.94966125 65.2071991 C56.63970217 70.0979091 58.34442439 74.98255371 60.08105469 79.85693359 C60.40858734 80.77963547 60.73612 81.70233734 61.07357788 82.65299988 C61.69084615 84.38889706 62.31191366 86.12344962 62.93740845 87.85639954 C63.20991425 88.62397079 63.48242004 89.39154205 63.76318359 90.18237305 C64.00314056 90.85060593 64.24309753 91.51883881 64.49032593 92.20732117 C65 94 65 94 65 97 C55.76 97 46.52 97 37 97 C33 85 33 85 33 82 C31.81470703 82.23396484 31.81470703 82.23396484 30.60546875 82.47265625 C20.21638425 84.2655154 10.46457798 83.82556372 0 83 C-0.27714844 83.92683594 -0.55429688 84.85367188 -0.83984375 85.80859375 C-1.20207031 87.00613281 -1.56429688 88.20367188 -1.9375 89.4375 C-2.29714844 90.63246094 -2.65679688 91.82742188 -3.02734375 93.05859375 C-4 96 -4 96 -5 97 C-6.99964982 97.08758003 -9.0023611 97.10696576 -11.00390625 97.09765625 C-12.82631836 97.09282227 -12.82631836 97.09282227 -14.68554688 97.08789062 C-15.96494141 97.07951172 -17.24433594 97.07113281 -18.5625 97.0625 C-19.84576172 97.05798828 -21.12902344 97.05347656 -22.45117188 97.04882812 C-25.63416022 97.03699545 -28.81705762 97.02051068 -32 97 C-31.54472856 90.926668 -30.45862486 85.59302896 -28.3671875 79.8828125 C-28.09832733 79.12369064 -27.82946716 78.36456879 -27.55245972 77.58244324 C-26.6688093 75.09337986 -25.77190779 72.60931342 -24.875 70.125 C-24.25188405 68.37691859 -23.6298335 66.6284571 -23.00878906 64.87963867 C-22.0318754 62.12974035 -21.05403324 59.38019948 -20.07250977 56.63194275 C-17.61816201 49.759037 -15.20145051 42.87365457 -12.8046875 35.98046875 C-12.46376068 35.00005615 -12.12283386 34.01964355 -11.77157593 33.00952148 C-10.76399876 30.11064799 -9.75693717 27.21159586 -8.75 24.3125 C-7.4964399 20.70385099 -6.24113275 17.09581776 -4.984375 13.48828125 C-4.71100311 12.70043747 -4.43763123 11.91259369 -4.15597534 11.10087585 C-3.90050934 10.36802872 -3.64504333 9.63518158 -3.38183594 8.88012695 C-3.16203064 8.24798782 -2.94222534 7.61584869 -2.71575928 6.96455383 C-1.86276519 4.62332983 -0.92542096 2.31355241 0 0 Z M16 27 C13.26330495 33.87120972 11.26807988 40.87172762 9.3125 48 C8.99216797 49.15628906 8.67183594 50.31257812 8.34179688 51.50390625 C7.55796461 54.33506159 6.77745562 57.16708825 6 60 C9.59708501 60.98018255 12.82429785 61.13350558 16.5625 61.125 C18.26599609 61.12886719 18.26599609 61.12886719 20.00390625 61.1328125 C23.05233998 61.1347228 23.05233998 61.1347228 26 60 C23.32466784 48.89512964 20.30203829 37.9346186 17 27 C16.67 27 16.34 27 16 27 Z " fill="#0354CC" transform="translate(1263,501)"/>
<path d="M0 0 C1.85205078 1.75976562 1.85205078 1.75976562 2.30615234 4.21166992 C2.28520508 5.15953369 2.26425781 6.10739746 2.24267578 7.08398438 C2.22978516 8.11201172 2.21689453 9.14003906 2.20361328 10.19921875 C2.17009766 11.27107422 2.13658203 12.34292969 2.10205078 13.44726562 C2.08400391 14.53072266 2.06595703 15.61417969 2.04736328 16.73046875 C2.00018587 19.40778709 1.93437327 22.08333472 1.85205078 24.75976562 C-3.17273035 24.23827483 -7.55650395 23.47690316 -12.33544922 21.75976562 C-18.61508416 19.52115395 -23.95363736 18.59009737 -30.64794922 18.50976562 C-31.93701172 18.48398437 -33.22607422 18.45820312 -34.55419922 18.43164062 C-38.29623559 18.77330482 -40.14979464 19.56880651 -43.14794922 21.75976562 C-43.35929452 24.15099513 -43.35929452 24.15099513 -42.14794922 26.75976562 C-35.66027052 30.60431596 -28.43199928 32.01186101 -21.18310547 33.83178711 C-11.86751828 36.23506902 -2.08131329 39.62082551 3.10205078 48.25976562 C7.0887175 56.23309906 6.99433661 66.12109356 5.23876953 74.78710938 C2.71168432 82.01212393 -1.91055391 86.64429278 -8.71435547 90.04101562 C-24.84998213 96.77421304 -45.89106849 95.80710128 -62.14794922 89.75976562 C-64.78794922 88.43976563 -67.42794922 87.11976563 -70.14794922 85.75976562 C-70.14794922 77.50976562 -70.14794922 69.25976562 -70.14794922 60.75976562 C-65.40529845 61.55020742 -62.94317572 62.17304385 -58.83544922 64.13476562 C-53.71588669 66.34257696 -48.79742685 67.62240816 -43.33544922 68.57226562 C-42.63057373 68.69585449 -41.92569824 68.81944336 -41.19946289 68.94677734 C-33.67619615 70.15468602 -28.02773511 70.12945667 -21.14794922 66.75976562 C-20.81369187 64.38601701 -20.81369187 64.38601701 -21.14794922 61.75976562 C-24.06165776 59.02827055 -26.90318388 58.06409919 -30.72607422 57.07617188 C-31.80501953 56.78806641 -32.88396484 56.49996094 -33.99560547 56.203125 C-35.11837891 55.91244141 -36.24115234 55.62175781 -37.39794922 55.32226562 C-60.39926307 49.36441658 -60.39926307 49.36441658 -66.46044922 39.19726562 C-70.31017706 31.35522742 -70.34332065 21.48624091 -68.56982422 12.99023438 C-65.80424473 5.81229853 -60.23459929 0.9712912 -53.58544922 -2.62695312 C-38.50643998 -8.46597165 -14.25821974 -8.23275247 0 0 Z " fill="#0354CC" transform="translate(1163.14794921875,505.240234375)"/>
<path d="M0 0 C1.85205078 1.75976562 1.85205078 1.75976562 2.30615234 4.21166992 C2.28520508 5.15953369 2.26425781 6.10739746 2.24267578 7.08398438 C2.22978516 8.11201172 2.21689453 9.14003906 2.20361328 10.19921875 C2.17009766 11.27107422 2.13658203 12.34292969 2.10205078 13.44726562 C2.08400391 14.53072266 2.06595703 15.61417969 2.04736328 16.73046875 C2.00018587 19.40778709 1.93437327 22.08333472 1.85205078 24.75976562 C-3.17273035 24.23827483 -7.55650395 23.47690316 -12.33544922 21.75976562 C-18.61508416 19.52115395 -23.95363736 18.59009737 -30.64794922 18.50976562 C-31.93701172 18.48398437 -33.22607422 18.45820312 -34.55419922 18.43164062 C-38.29623559 18.77330482 -40.14979464 19.56880651 -43.14794922 21.75976562 C-43.35929452 24.15099513 -43.35929452 24.15099513 -42.14794922 26.75976562 C-35.66027052 30.60431596 -28.43199928 32.01186101 -21.18310547 33.83178711 C-11.86751828 36.23506902 -2.08131329 39.62082551 3.10205078 48.25976562 C7.37590191 56.80746788 7.19802963 67.72033502 4.35205078 76.75976562 C1.20433398 84.16680551 -4.0475514 88.08275477 -11.33544922 91.13476562 C-26.6883449 96.83939568 -46.9486345 95.41370129 -62.14794922 89.75976562 C-64.78794922 88.43976563 -67.42794922 87.11976563 -70.14794922 85.75976562 C-70.14794922 77.50976562 -70.14794922 69.25976562 -70.14794922 60.75976562 C-65.40529845 61.55020742 -62.94317572 62.17304385 -58.83544922 64.13476562 C-53.71588669 66.34257696 -48.79742685 67.62240816 -43.33544922 68.57226562 C-42.63057373 68.69585449 -41.92569824 68.81944336 -41.19946289 68.94677734 C-33.67619615 70.15468602 -28.02773511 70.12945667 -21.14794922 66.75976562 C-20.81369187 64.38601701 -20.81369187 64.38601701 -21.14794922 61.75976562 C-24.06165776 59.02827055 -26.90318388 58.06409919 -30.72607422 57.07617188 C-31.80501953 56.78806641 -32.88396484 56.49996094 -33.99560547 56.203125 C-35.11837891 55.91244141 -36.24115234 55.62175781 -37.39794922 55.32226562 C-60.39926307 49.36441658 -60.39926307 49.36441658 -66.46044922 39.19726562 C-70.31017706 31.35522742 -70.34332065 21.48624091 -68.56982422 12.99023438 C-65.80424473 5.81229853 -60.23459929 0.9712912 -53.58544922 -2.62695312 C-38.50643998 -8.46597165 -14.25821974 -8.23275247 0 0 Z " fill="#0354CC" transform="translate(1072.14794921875,505.240234375)"/>
<path d="M0 0 C24.75 0 49.5 0 75 0 C75 7.59 75 15.18 75 23 C66.42 23 57.84 23 49 23 C49 47.42 49 71.84 49 97 C41.08 97 33.16 97 25 97 C24 96 24 96 23.87974548 93.10838318 C23.88196609 91.81376663 23.88418671 90.51915009 23.88647461 89.18530273 C23.88632858 88.47314606 23.88618256 87.76098938 23.8860321 87.0272522 C23.8867313 84.66266888 23.89452394 82.29816339 23.90234375 79.93359375 C23.90420791 78.29834537 23.90563182 76.66309643 23.90663147 75.02784729 C23.91045682 70.71565215 23.92028725 66.40349048 23.93133545 62.09130859 C23.9415492 57.69434054 23.94612901 53.29736711 23.95117188 48.90039062 C23.96190951 40.26690998 23.97950644 31.63346301 24 23 C16.08 23 8.16 23 0 23 C0 15.41 0 7.82 0 0 Z " fill="#0354CC" transform="translate(744,501)"/>
<path d="M0 0 C8.25 0 16.5 0 25 0 C25 24.42 25 48.84 25 74 C34.9 74 44.8 74 55 74 C53 83 53 83 48 97 C32.16 97 16.32 97 0 97 C0 64.99 0 32.98 0 0 Z " fill="#2269D2" transform="translate(833,501)"/>
<path d="M0 0 C7.92 0 15.84 0 24 0 C24 32.01 24 64.02 24 97 C16.08 97 8.16 97 0 97 C-1.88657671 95.11342329 -1.12667188 92.36827497 -1.13552856 89.85786438 C-1.13350433 88.97471054 -1.1314801 88.0915567 -1.12939453 87.18164062 C-1.13114685 86.25651169 -1.13289917 85.33138275 -1.13470459 84.3782196 C-1.13912467 81.30421095 -1.13618457 78.2302593 -1.1328125 75.15625 C-1.13348549 73.03015125 -1.13445548 70.90405258 -1.13571167 68.7779541 C-1.13718886 64.3156664 -1.13503342 59.85339867 -1.13037109 55.39111328 C-1.1246738 49.65729431 -1.12795269 43.92352215 -1.13394356 38.1897049 C-1.13754861 33.79754277 -1.13641084 29.40539183 -1.13381577 25.01322937 C-1.13314634 22.89841201 -1.13397545 20.78359366 -1.13629532 18.66877747 C-1.13882093 15.71861054 -1.13498254 12.76852054 -1.12939453 9.81835938 C-1.13141876 8.93520554 -1.13344299 8.0520517 -1.13552856 7.14213562 C-1.11426234 1.11426234 -1.11426234 1.11426234 0 0 Z " fill="#266CD3" transform="translate(1192,501)"/>
<path d="M0 0 C2.25 -0.30078125 2.25 -0.30078125 5 0 C14.72178587 9.51924867 20.21089853 23.9086341 20.37109375 37.30273438 C20.37302734 38.79256836 20.37302734 38.79256836 20.375 40.3125 C20.39949219 41.29412109 20.42398438 42.27574219 20.44921875 43.28710938 C20.45501953 44.74793945 20.45501953 44.74793945 20.4609375 46.23828125 C20.46915527 47.10493408 20.47737305 47.97158691 20.48583984 48.86450195 C20 52 20 52 16 62 C1.48 62 -13.04 62 -28 62 C-29.16023297 56.19883513 -28.59992596 55.52821907 -25.75 50.625 C-22.08231951 44.12552133 -18.7985684 37.50386071 -15.625 30.75 C-10.70792554 20.33843792 -5.45405756 10.13910484 0 0 Z " fill="#1972EC" transform="translate(525,534)"/>
<path d="M0 0 C1.43352212 0.00015908 2.86704998 0.00585132 4.30053711 0.01586914 C5.43041298 0.01799156 5.43041298 0.01799156 6.58311462 0.02015686 C8.99807646 0.02577163 11.41294687 0.03832656 13.82788086 0.05102539 C15.46134307 0.05603849 17.09480672 0.06060173 18.72827148 0.06469727 C22.74067671 0.07574585 26.75301326 0.09302033 30.76538086 0.11352539 C37.29083569 11.94191324 43.71109585 23.82019055 49.95288086 35.80102539 C50.5170874 36.8811792 51.08129395 37.96133301 51.66259766 39.07421875 C52.1850708 40.08105713 52.70754395 41.08789551 53.24584961 42.12524414 C53.70886475 43.01687256 54.17187988 43.90850098 54.64892578 44.82714844 C55.76538086 47.11352539 55.76538086 47.11352539 56.76538086 50.11352539 C57.09538086 33.61352539 57.42538086 17.11352539 57.76538086 0.11352539 C65.35538086 0.11352539 72.94538086 0.11352539 80.76538086 0.11352539 C80.76538086 32.12352539 80.76538086 64.13352539 80.76538086 97.11352539 C71.52538086 97.11352539 62.28538086 97.11352539 52.76538086 97.11352539 C51.60522461 94.91438477 50.44506836 92.71524414 49.24975586 90.44946289 C47.67236803 87.46209402 46.09394278 84.47527401 44.51538086 81.48852539 C43.90362503 80.3307106 43.90362503 80.3307106 43.2795105 79.14950562 C37.73472042 68.66017059 32.14860965 58.19837086 26.38354492 47.82788086 C25.94365234 47.03140137 25.50375977 46.23492188 25.05053711 45.41430664 C24.67807861 44.74568604 24.30562012 44.07706543 23.921875 43.38818359 C22.38647612 40.36827409 21.0999073 37.22742043 19.76538086 34.11352539 C19.43538086 54.90352539 19.10538086 75.69352539 18.76538086 97.11352539 C11.50538086 97.11352539 4.24538086 97.11352539 -3.23461914 97.11352539 C-5.12119585 95.22694868 -4.36129102 92.48180037 -4.37014771 89.97138977 C-4.36812347 89.08823593 -4.36609924 88.20508209 -4.36401367 87.29516602 C-4.36576599 86.37003708 -4.36751831 85.44490814 -4.36932373 84.491745 C-4.37374381 81.41773634 -4.37080371 78.34378469 -4.36743164 75.26977539 C-4.36810463 73.14367664 -4.36907462 71.01757797 -4.37033081 68.89147949 C-4.371808 64.42919179 -4.36965256 59.96692406 -4.36499023 55.50463867 C-4.35929294 49.7708197 -4.36257183 44.03704754 -4.3685627 38.30323029 C-4.37216775 33.91106816 -4.37102998 29.51891722 -4.36843491 25.12675476 C-4.36776548 23.0119374 -4.36859459 20.89711905 -4.37091446 18.78230286 C-4.37344008 15.83213593 -4.36960168 12.88204593 -4.36401367 9.93188477 C-4.3660379 9.04873093 -4.36806213 8.16557709 -4.37014771 7.25566101 C-4.34508788 0.1524995 -4.34508788 0.1524995 0 0 Z M-2.23461914 1.11352539 C-2.23461914 32.13352539 -2.23461914 63.15352539 -2.23461914 95.11352539 C4.36538086 95.11352539 10.96538086 95.11352539 17.76538086 95.11352539 C18.09538086 72.67352539 18.42538086 50.23352539 18.76538086 27.11352539 C22.06538086 34.37352539 25.36538086 41.63352539 28.76538086 49.11352539 C30.65768685 52.79470698 32.53993165 56.39846085 34.57788086 59.98852539 C35.57977885 61.79027749 36.58105533 63.59237529 37.58178711 65.39477539 C38.34966553 66.76956055 38.34966553 66.76956055 39.13305664 68.17211914 C42.13796449 73.58688578 45.0719024 79.04020447 48.01538086 84.48852539 C49.91288086 87.99477539 51.81038086 91.50102539 53.76538086 95.11352539 C62.34538086 95.11352539 70.92538086 95.11352539 79.76538086 95.11352539 C79.76538086 64.09352539 79.76538086 33.07352539 79.76538086 1.11352539 C73.16538086 1.11352539 66.56538086 1.11352539 59.76538086 1.11352539 C59.43538086 20.25352539 59.10538086 39.39352539 58.76538086 59.11352539 C56.12538086 53.17352539 53.48538086 47.23352539 50.76538086 41.11352539 C48.26591488 36.10698856 45.74207289 31.12800242 43.14038086 26.17602539 C42.50449756 24.95426293 41.86908149 23.73225719 41.23413086 22.51000977 C37.4936664 15.32980402 33.64333197 8.22310242 29.76538086 1.11352539 C19.20538086 1.11352539 8.64538086 1.11352539 -2.23461914 1.11352539 Z " fill="#EFF4FB" transform="translate(1344.234619140625,500.886474609375)"/>
<path d="M0 0 C1.85205078 1.75976562 1.85205078 1.75976562 2.30615234 4.21166992 C2.28520508 5.15953369 2.26425781 6.10739746 2.24267578 7.08398438 C2.22978516 8.11201172 2.21689453 9.14003906 2.20361328 10.19921875 C2.17009766 11.27107422 2.13658203 12.34292969 2.10205078 13.44726562 C2.08400391 14.53072266 2.06595703 15.61417969 2.04736328 16.73046875 C2.00018587 19.40778709 1.93437327 22.08333472 1.85205078 24.75976562 C-3.17273035 24.23827483 -7.55650395 23.47690316 -12.33544922 21.75976562 C-18.61508416 19.52115395 -23.95363736 18.59009737 -30.64794922 18.50976562 C-31.93701172 18.48398437 -33.22607422 18.45820312 -34.55419922 18.43164062 C-38.29623559 18.77330482 -40.14979464 19.56880651 -43.14794922 21.75976562 C-43.35929452 24.15099513 -43.35929452 24.15099513 -42.14794922 26.75976562 C-35.66027052 30.60431596 -28.43199928 32.01186101 -21.18310547 33.83178711 C-11.86751828 36.23506902 -2.08131329 39.62082551 3.10205078 48.25976562 C7.37590191 56.80746788 7.19802963 67.72033502 4.35205078 76.75976562 C1.20433398 84.16680551 -4.0475514 88.08275477 -11.33544922 91.13476562 C-26.6883449 96.83939568 -46.9486345 95.41370129 -62.14794922 89.75976562 C-64.78794922 88.43976563 -67.42794922 87.11976563 -70.14794922 85.75976562 C-70.14794922 77.50976562 -70.14794922 69.25976562 -70.14794922 60.75976562 C-65.40529845 61.55020742 -62.94317572 62.17304385 -58.83544922 64.13476562 C-53.71588669 66.34257696 -48.79742685 67.62240816 -43.33544922 68.57226562 C-42.63057373 68.69585449 -41.92569824 68.81944336 -41.19946289 68.94677734 C-33.67619615 70.15468602 -28.02773511 70.12945667 -21.14794922 66.75976562 C-20.81369187 64.38601701 -20.81369187 64.38601701 -21.14794922 61.75976562 C-24.06165776 59.02827055 -26.90318388 58.06409919 -30.72607422 57.07617188 C-31.80501953 56.78806641 -32.88396484 56.49996094 -33.99560547 56.203125 C-35.11837891 55.91244141 -36.24115234 55.62175781 -37.39794922 55.32226562 C-60.39926307 49.36441658 -60.39926307 49.36441658 -66.46044922 39.19726562 C-70.31017706 31.35522742 -70.34332065 21.48624091 -68.56982422 12.99023438 C-65.80424473 5.81229853 -60.23459929 0.9712912 -53.58544922 -2.62695312 C-38.50643998 -8.46597165 -14.25821974 -8.23275247 0 0 Z M-61.14794922 4.75976562 C-67.85977574 13.07844892 -69.12644037 20.13289659 -68.14794922 30.75976562 C-66.02213977 38.13056287 -61.59659834 43.677017 -55.14794922 47.75976562 C-47.69517901 51.4247268 -39.77953898 53.5410857 -31.70458984 55.32885742 C-27.33015729 56.32440647 -22.42189575 57.4858191 -19.14794922 60.75976562 C-18.67986411 66.14274435 -18.67986411 66.14274435 -20.52294922 68.57226562 C-26.28357858 72.78195631 -36.55455945 71.44725979 -43.36962891 70.42724609 C-50.72075284 68.98345457 -57.83357775 66.8635042 -64.54638672 63.49414062 C-66.15729667 62.62082983 -66.15729667 62.62082983 -68.14794922 62.75976562 C-68.14794922 70.01976562 -68.14794922 77.27976562 -68.14794922 84.75976562 C-53.30009541 93.21162087 -34.04133213 95.57388848 -17.31982422 91.45117188 C-7.83646981 88.43219035 -2.52421527 84.23643639 2.83642578 75.82226562 C5.95403315 69.49112451 5.86926342 60.96467645 4.23876953 54.22460938 C1.38370496 46.89199861 -3.46888525 42.57529422 -10.44091797 39.13476562 C-18.26576436 35.7263905 -26.25486524 33.57703414 -34.58935547 31.81445312 C-38.44026206 30.67313065 -41.05634634 29.31800801 -44.14794922 26.75976562 C-44.52294922 23.00976562 -44.52294922 23.00976562 -44.14794922 19.75976562 C-36.34976833 15.27818911 -27.96735089 15.74200378 -19.37451172 17.55664062 C-15.92332106 18.52986142 -12.54046716 19.59916738 -9.14794922 20.75976562 C-6.17794922 21.74976563 -3.20794922 22.73976563 -0.14794922 23.75976562 C-0.14794922 16.49976563 -0.14794922 9.23976563 -0.14794922 1.75976562 C-2.33419922 0.95539063 -4.52044922 0.15101563 -6.77294922 -0.67773438 C-8.61759766 -1.35642578 -8.61759766 -1.35642578 -10.49951172 -2.04882812 C-25.64754335 -6.99545516 -49.13095118 -6.69085751 -61.14794922 4.75976562 Z " fill="#EDF3FB" transform="translate(1072.14794921875,505.240234375)"/>
<path d="M0 0 C1.85205078 1.75976562 1.85205078 1.75976562 2.30615234 4.21166992 C2.28520508 5.15953369 2.26425781 6.10739746 2.24267578 7.08398438 C2.22978516 8.11201172 2.21689453 9.14003906 2.20361328 10.19921875 C2.17009766 11.27107422 2.13658203 12.34292969 2.10205078 13.44726562 C2.08400391 14.53072266 2.06595703 15.61417969 2.04736328 16.73046875 C2.00018587 19.40778709 1.93437327 22.08333472 1.85205078 24.75976562 C-3.17273035 24.23827483 -7.55650395 23.47690316 -12.33544922 21.75976562 C-18.61508416 19.52115395 -23.95363736 18.59009737 -30.64794922 18.50976562 C-31.93701172 18.48398437 -33.22607422 18.45820312 -34.55419922 18.43164062 C-38.29623559 18.77330482 -40.14979464 19.56880651 -43.14794922 21.75976562 C-43.35929452 24.15099513 -43.35929452 24.15099513 -42.14794922 26.75976562 C-35.66027052 30.60431596 -28.43199928 32.01186101 -21.18310547 33.83178711 C-11.86751828 36.23506902 -2.08131329 39.62082551 3.10205078 48.25976562 C7.0887175 56.23309906 6.99433661 66.12109356 5.23876953 74.78710938 C2.71168432 82.01212393 -1.91055391 86.64429278 -8.71435547 90.04101562 C-24.84998213 96.77421304 -45.89106849 95.80710128 -62.14794922 89.75976562 C-64.78794922 88.43976563 -67.42794922 87.11976563 -70.14794922 85.75976562 C-70.14794922 77.50976562 -70.14794922 69.25976562 -70.14794922 60.75976562 C-65.40529845 61.55020742 -62.94317572 62.17304385 -58.83544922 64.13476562 C-53.71588669 66.34257696 -48.79742685 67.62240816 -43.33544922 68.57226562 C-42.63057373 68.69585449 -41.92569824 68.81944336 -41.19946289 68.94677734 C-33.67619615 70.15468602 -28.02773511 70.12945667 -21.14794922 66.75976562 C-20.81369187 64.38601701 -20.81369187 64.38601701 -21.14794922 61.75976562 C-24.06165776 59.02827055 -26.90318388 58.06409919 -30.72607422 57.07617188 C-31.80501953 56.78806641 -32.88396484 56.49996094 -33.99560547 56.203125 C-35.11837891 55.91244141 -36.24115234 55.62175781 -37.39794922 55.32226562 C-60.39926307 49.36441658 -60.39926307 49.36441658 -66.46044922 39.19726562 C-70.31017706 31.35522742 -70.34332065 21.48624091 -68.56982422 12.99023438 C-65.80424473 5.81229853 -60.23459929 0.9712912 -53.58544922 -2.62695312 C-38.50643998 -8.46597165 -14.25821974 -8.23275247 0 0 Z M-60.99951172 4.39648438 C-67.42381096 11.43789611 -68.79392585 17.84268285 -68.55419922 27.25195312 C-67.63167251 35.21761641 -63.79195705 41.27870717 -57.55419922 46.23632812 C-49.75243544 51.17575649 -40.63275664 53.35218564 -31.70458984 55.32885742 C-27.33015729 56.32440647 -22.42189575 57.4858191 -19.14794922 60.75976562 C-18.67986411 66.14274435 -18.67986411 66.14274435 -20.52294922 68.57226562 C-26.28357858 72.78195631 -36.55455945 71.44725979 -43.36962891 70.42724609 C-50.72075284 68.98345457 -57.83357775 66.8635042 -64.54638672 63.49414062 C-66.15729667 62.62082983 -66.15729667 62.62082983 -68.14794922 62.75976562 C-68.14794922 70.01976562 -68.14794922 77.27976562 -68.14794922 84.75976562 C-53.30009541 93.21162087 -34.04133213 95.57388848 -17.31982422 91.45117188 C-7.79986496 88.42053736 -2.47959447 84.22014806 2.83642578 75.72460938 C6.11662941 69.37867696 5.83970592 60.95572726 4.23876953 54.15429688 C1.39206871 46.86824765 -3.51661059 42.55174293 -10.44091797 39.13476562 C-18.26576436 35.7263905 -26.25486524 33.57703414 -34.58935547 31.81445312 C-38.44026206 30.67313065 -41.05634634 29.31800801 -44.14794922 26.75976562 C-44.52294922 23.00976562 -44.52294922 23.00976562 -44.14794922 19.75976562 C-36.34976833 15.27818911 -27.96735089 15.74200378 -19.37451172 17.55664062 C-15.92332106 18.52986142 -12.54046716 19.59916738 -9.14794922 20.75976562 C-6.17794922 21.74976563 -3.20794922 22.73976563 -0.14794922 23.75976562 C-0.14794922 16.49976563 -0.14794922 9.23976563 -0.14794922 1.75976562 C-2.33419922 0.95539063 -4.52044922 0.15101563 -6.77294922 -0.67773438 C-8.61759766 -1.35642578 -8.61759766 -1.35642578 -10.49951172 -2.04882812 C-25.61189863 -6.98381529 -48.59167464 -6.57162477 -60.99951172 4.39648438 Z " fill="#EEF3FB" transform="translate(1163.14794921875,505.240234375)"/>
<path d="M0 0 C3.64038086 -0.16259766 3.64038086 -0.16259766 7 0 C14.20786425 14.22881727 21.39735584 28.46674139 28.56514072 42.71578407 C31.89372395 49.33170598 35.22823974 55.94450941 38.5769043 62.55029297 C41.49570549 68.30813902 44.40319948 74.07152844 47.29727596 79.84184396 C48.82997711 82.89681998 50.36817794 85.94873083 51.9199543 88.99406815 C53.6497998 92.39583524 55.35947423 95.80703088 57.06469727 99.22119141 C57.84152611 100.73170578 57.84152611 100.73170578 58.63404846 102.2727356 C62.01625704 109.11776589 62.01625704 109.11776589 61.93345642 113.61117554 C61 116 61 116 59 117 C57.62732006 117.10405068 56.2498519 117.14860729 54.87329102 117.16113281 C54.02223282 117.17074036 53.17117462 117.1803479 52.29432678 117.19024658 C51.37348801 117.19449646 50.45264923 117.19874634 49.50390625 117.203125 C48.08717873 117.21167511 48.08717873 117.21167511 46.64183044 117.22039795 C44.64200971 117.22985293 42.64217336 117.2363839 40.64233398 117.24023438 C37.57833823 117.24994978 34.51501038 117.28097244 31.45117188 117.3125 C29.51042066 117.31902895 27.56966464 117.32427985 25.62890625 117.328125 C24.71009171 117.3404718 23.79127716 117.3528186 22.84461975 117.36553955 C21.99040939 117.36253845 21.13619904 117.35953735 20.25610352 117.35644531 C19.12930931 117.36191376 19.12930931 117.36191376 17.97975159 117.36749268 C15.42108716 116.89253893 14.60986262 116.01084208 13 114 C11.66708006 111.58506057 10.41657379 109.18210608 9.20703125 106.70703125 C8.85613937 106.00100266 8.5052475 105.29497406 8.14372253 104.56755066 C7.02763686 102.31862753 5.91998233 100.06567028 4.8125 97.8125 C4.05589133 96.28423141 3.29873609 94.75623329 2.54101562 93.22851562 C0.68766053 89.48878243 -1.15814557 85.74540987 -3 82 C-2.94779297 83.97419922 -2.94779297 83.97419922 -2.89453125 85.98828125 C-2.53522712 105.357538 -2.53522712 105.357538 -6 113 C-6.46720459 114.04051514 -6.46720459 114.04051514 -6.94384766 115.10205078 C-10.36863347 118.26332897 -14.36274196 117.52945419 -18.84765625 117.4609375 C-19.81529404 117.46002106 -20.78293182 117.45910461 -21.77989197 117.4581604 C-23.82507229 117.45211851 -25.87024352 117.43635494 -27.9152832 117.41162109 C-31.05387793 117.37510033 -34.19129309 117.37060174 -37.33007812 117.37109375 C-39.31511442 117.36126342 -41.30014268 117.34960678 -43.28515625 117.3359375 C-44.2278688 117.33371185 -45.17058136 117.33148621 -46.14186096 117.32919312 C-47.01293991 117.31643341 -47.88401886 117.30367371 -48.78149414 117.29052734 C-49.54965958 117.28290375 -50.31782501 117.27528015 -51.10926819 117.26742554 C-53 117 -53 117 -55 115 C-55.47915133 110.33261757 -54.54989819 107.35591659 -52.46142578 103.20996094 C-51.90730011 102.0957074 -51.35317444 100.98145386 -50.78225708 99.83343506 C-50.17031482 98.63355827 -49.55799084 97.4338761 -48.9453125 96.234375 C-48.32140287 94.99267669 -47.69844138 93.75050156 -47.0763855 92.50787354 C-45.7738519 89.91198771 -44.46358579 87.32021784 -43.14697266 84.73144531 C-41.45910175 81.41240781 -39.78529649 78.0865332 -38.11650276 74.75786972 C-36.83152065 72.1962142 -35.54202465 69.63685516 -34.25085068 67.07831573 C-33.63213082 65.85226958 -33.01415835 64.62584596 -32.39694595 63.39904022 C-31.53459211 61.68807046 -30.66612025 59.98018838 -29.79736328 58.27246094 C-29.30438751 57.30016541 -28.81141174 56.32786987 -28.30349731 55.32611084 C-27 53 -27 53 -25 51 C-22.609375 50.6328125 -22.609375 50.6328125 -20 51 C-18.015625 52.6796875 -18.015625 52.6796875 -16.25 54.875 C-15.65703125 55.59429688 -15.0640625 56.31359375 -14.453125 57.0546875 C-13 59 -13 59 -12 61 C-12.10828125 60.17822266 -12.10828125 60.17822266 -12.21875 59.33984375 C-14.43327168 40.42413772 -12.80824523 23.01348102 -4 6 C-3.42121094 4.87851562 -2.84242188 3.75703125 -2.24609375 2.6015625 C-1.50488281 1.74304688 -0.76367188 0.88453125 0 0 Z M2 1 C-9.88564401 13.85987712 -11.63926347 31.68601071 -11.28125 48.24609375 C-10.52343598 67.09060602 2.25739133 101.25739133 16 115 C17.34544327 115.09785341 18.69592563 115.12797985 20.04492188 115.12939453 C20.90251099 115.13254669 21.7601001 115.13569885 22.64367676 115.13894653 C24.04208801 115.13591019 24.04208801 115.13591019 25.46875 115.1328125 C26.41939331 115.13376923 27.37003662 115.13472595 28.3494873 115.13571167 C30.36368882 115.13639357 32.37789252 115.13453862 34.39208984 115.13037109 C37.48670355 115.12502298 40.5811721 115.13031577 43.67578125 115.13671875 C45.62760449 115.13605797 47.57942764 115.13477681 49.53125 115.1328125 C50.46352417 115.13483673 51.39579834 115.13686096 52.35632324 115.13894653 C53.21391235 115.13579437 54.07150146 115.13264221 54.95507812 115.12939453 C56.09305847 115.12820114 56.09305847 115.12820114 57.25402832 115.12698364 C59.02877312 115.18921087 59.02877312 115.18921087 60 114 C59.70010713 107.47155247 57.06828911 102.44676846 54.14477539 96.69018555 C53.64065628 95.67800461 53.13653717 94.66582367 52.61714172 93.62297058 C50.95364668 90.28928482 49.27593678 86.96298231 47.59765625 83.63671875 C46.43726577 81.32018856 45.27764406 79.00327313 44.11875916 76.68598938 C41.69116308 71.83695791 39.25725152 66.9911825 36.81762695 62.14819336 C33.99691212 56.54857671 31.18594791 50.94415555 28.38062674 45.33681267 C25.67920547 39.93722118 22.97305661 34.54002021 20.26428032 29.14411354 C19.1123448 26.84913844 17.96127757 24.5537273 16.81108284 22.25787926 C15.20636333 19.05745009 13.59633399 15.85975263 11.98461914 12.6628418 C11.50714233 11.70855286 11.02966553 10.75426392 10.53771973 9.77105713 C10.09887955 8.9033519 9.66003937 8.03564667 9.207901 7.14164734 C8.63741579 6.00765267 8.63741579 6.00765267 8.05540562 4.85074902 C7.01756434 2.84158527 7.01756434 2.84158527 5 1 C4.01 1 3.02 1 2 1 Z M-25 53 C-31.22766157 64.55975234 -37.10700234 76.24225204 -42.71850586 88.11401367 C-45.87859905 94.77073215 -49.19907754 101.22270284 -52.98828125 107.546875 C-54.41074994 110.35197168 -54.41074994 110.35197168 -53 115 C-38.48 115 -23.96 115 -9 115 C-5.45841455 107.06491086 -5.45841455 107.06491086 -4.46875 99.4140625 C-4.45642334 97.99722168 -4.45642334 97.99722168 -4.44384766 96.55175781 C-4.47164307 95.1030127 -4.47164307 95.1030127 -4.5 93.625 C-4.51208496 92.61276367 -4.52416992 91.60052734 -4.53662109 90.55761719 C-4.73419436 83.11688835 -5.67323029 76.73542914 -9 70 C-9.47050781 69.02804687 -9.94101562 68.05609375 -10.42578125 67.0546875 C-13.0781675 61.91440406 -15.78486896 56.99897047 -20 53 C-22.60190333 52.80693494 -22.60190333 52.80693494 -25 53 Z M-5 78 C-4 80 -4 80 -4 80 Z " fill="#EBF3FE" transform="translate(550,481)"/>
<path d="M0 0 C10.56 0 21.12 0 32 0 C36.49991581 11.24978953 36.49991581 11.24978953 38.36254883 16.60107422 C38.78010941 17.79707245 39.19766998 18.99307068 39.62788391 20.22531128 C40.07097521 21.50175538 40.51402317 22.77821452 40.95703125 24.0546875 C41.42758688 25.405029 41.89835048 26.75529805 42.36930847 28.10549927 C43.60321598 31.64472922 44.83442273 35.18489259 46.06500244 38.72528076 C47.53743531 42.95983274 49.01306421 47.19327193 50.48841667 51.4268074 C51.67852186 54.84229197 52.86749035 58.25816254 54.05374146 61.67498779 C56.10002402 67.56645607 58.15498443 73.45410377 60.25927734 79.32519531 C60.59166916 80.25703644 60.92406097 81.18887756 61.26652527 82.1489563 C61.86593474 83.8255769 62.47027406 85.50044765 63.08076477 87.17306519 C64.33278938 90.68366364 65 93.22570028 65 97 C55.76 97 46.52 97 37 97 C33 84 33 84 33 82 C32.29359375 82.15597656 31.5871875 82.31195312 30.859375 82.47265625 C20.45246179 84.446832 10.5083765 83.77529398 0 83 C-1.32 87.62 -2.64 92.24 -4 97 C-13.24 97 -22.48 97 -32 97 C-30.87501137 88.00009098 -30.87501137 88.00009098 -29.5480957 84.22851562 C-29.1047438 82.94951134 -29.1047438 82.94951134 -28.6524353 81.64466858 C-28.16899155 80.28915138 -28.16899155 80.28915138 -27.67578125 78.90625 C-27.33737213 77.93711166 -26.99896301 76.96797333 -26.65029907 75.96946716 C-25.54518069 72.81029769 -24.42893485 69.655186 -23.3125 66.5 C-22.5462168 64.31609595 -21.78068034 62.13192975 -21.01586914 59.94750977 C-19.45329315 55.48840647 -17.88629769 51.03089583 -16.31542969 46.57470703 C-14.11943052 40.34369405 -11.93623935 34.10826898 -9.7578125 27.87109375 C-6.51158569 18.578483 -3.25794816 9.2885083 0 0 Z M2 1 C-2.31084199 11.34193034 -2.31084199 11.34193034 -6.09375 21.83984375 C-6.36250946 22.63341278 -6.63126892 23.42698181 -6.90817261 24.24459839 C-7.77574648 26.80768829 -8.63789781 29.37256513 -9.5 31.9375 C-10.72897811 35.57646954 -11.96139363 39.21426555 -13.1953125 42.8515625 C-13.50731598 43.77187759 -13.81931946 44.69219269 -14.14077759 45.64039612 C-16.31502904 52.03509517 -18.54237847 58.40939564 -20.8046875 64.7734375 C-21.10751648 65.6267012 -21.41034546 66.4799649 -21.72235107 67.35908508 C-23.16944202 71.43301824 -24.62387862 75.5041399 -26.08789062 79.57202148 C-26.60830183 81.03360992 -27.12849645 82.4952755 -27.6484375 83.95703125 C-27.88835419 84.61557098 -28.12827087 85.27411072 -28.37545776 85.9526062 C-29.53184346 89.22245164 -30 91.46761219 -30 95 C-22.08 95 -14.16 95 -6 95 C-3.89064603 89.37505608 -2.59343896 85.69701401 -2 80 C-0.845 80.33 0.31 80.66 1.5 81 C12.00081182 83.33535405 23.41665386 82.17592735 34 81 C35.32 85.62 36.64 90.24 38 95 C46.25 95 54.5 95 63 95 C61.46658753 87.8697863 61.46658753 87.8697863 59.40283203 81.01977539 C59.10095978 80.14804687 58.79908752 79.27631836 58.48806763 78.37817383 C58.16458344 77.46060303 57.84109924 76.54303223 57.5078125 75.59765625 C57.1653952 74.61361816 56.82297791 73.62958008 56.47018433 72.61572266 C55.36005253 69.42956967 54.24270416 66.24600362 53.125 63.0625 C52.35770317 60.86593316 51.59077861 58.66923625 50.82421875 56.47241211 C48.91417385 51.00334911 46.99769819 45.53656889 45.07824707 40.07080078 C44.06515959 37.18557169 43.05333112 34.29990488 42.04199219 31.4140625 C40.36464644 26.62903833 38.68373525 21.84527938 37 17.0625 C36.74720276 16.34385773 36.49440552 15.62521545 36.23394775 14.88479614 C35.53251856 12.8926968 34.82917188 10.90128751 34.125 8.91015625 C33.73570312 7.80808838 33.34640625 6.70602051 32.9453125 5.57055664 C32.07551396 3.05850943 32.07551396 3.05850943 31 1 C21.43 1 11.86 1 2 1 Z " fill="#F5F8FD" transform="translate(926,501)"/>
<path d="M0 0 C10.56 0 21.12 0 32 0 C38.78585844 18.6302659 45.31107261 37.34453041 51.79467773 56.08178711 C52.14664719 57.09876175 52.49861664 58.11573639 52.86125183 59.16352844 C53.55804969 61.17785666 54.25419595 63.19241041 54.94966125 65.2071991 C56.63970217 70.0979091 58.34442439 74.98255371 60.08105469 79.85693359 C60.40858734 80.77963547 60.73612 81.70233734 61.07357788 82.65299988 C61.69084615 84.38889706 62.31191366 86.12344962 62.93740845 87.85639954 C63.20991425 88.62397079 63.48242004 89.39154205 63.76318359 90.18237305 C64.00314056 90.85060593 64.24309753 91.51883881 64.49032593 92.20732117 C65 94 65 94 65 97 C55.76 97 46.52 97 37 97 C33 85 33 85 33 82 C31.81470703 82.23396484 31.81470703 82.23396484 30.60546875 82.47265625 C20.21638425 84.2655154 10.46457798 83.82556372 0 83 C-0.27714844 83.92683594 -0.55429688 84.85367188 -0.83984375 85.80859375 C-1.20207031 87.00613281 -1.56429688 88.20367188 -1.9375 89.4375 C-2.29714844 90.63246094 -2.65679688 91.82742188 -3.02734375 93.05859375 C-4 96 -4 96 -5 97 C-6.99964982 97.08758003 -9.0023611 97.10696576 -11.00390625 97.09765625 C-12.82631836 97.09282227 -12.82631836 97.09282227 -14.68554688 97.08789062 C-15.96494141 97.07951172 -17.24433594 97.07113281 -18.5625 97.0625 C-19.84576172 97.05798828 -21.12902344 97.05347656 -22.45117188 97.04882812 C-25.63416022 97.03699545 -28.81705762 97.02051068 -32 97 C-31.54472856 90.926668 -30.45862486 85.59302896 -28.3671875 79.8828125 C-28.09832733 79.12369064 -27.82946716 78.36456879 -27.55245972 77.58244324 C-26.6688093 75.09337986 -25.77190779 72.60931342 -24.875 70.125 C-24.25188405 68.37691859 -23.6298335 66.6284571 -23.00878906 64.87963867 C-22.0318754 62.12974035 -21.05403324 59.38019948 -20.07250977 56.63194275 C-17.61816201 49.759037 -15.20145051 42.87365457 -12.8046875 35.98046875 C-12.46376068 35.00005615 -12.12283386 34.01964355 -11.77157593 33.00952148 C-10.76399876 30.11064799 -9.75693717 27.21159586 -8.75 24.3125 C-7.4964399 20.70385099 -6.24113275 17.09581776 -4.984375 13.48828125 C-4.71100311 12.70043747 -4.43763123 11.91259369 -4.15597534 11.10087585 C-3.90050934 10.36802872 -3.64504333 9.63518158 -3.38183594 8.88012695 C-3.16203064 8.24798782 -2.94222534 7.61584869 -2.71575928 6.96455383 C-1.86276519 4.62332983 -0.92542096 2.31355241 0 0 Z M2 1 C-1.20515987 8.12622787 -1.20515987 8.12622787 -3.94775391 15.35083008 C-4.43991394 16.77720291 -4.43991394 16.77720291 -4.9420166 18.23239136 C-5.28341675 19.23464752 -5.62481689 20.23690369 -5.9765625 21.26953125 C-6.34390503 22.33656281 -6.71124756 23.40359436 -7.08972168 24.50296021 C-8.27178551 27.93823578 -9.44852063 31.37530837 -10.625 34.8125 C-12.23734692 39.50858318 -13.85242041 44.20372374 -15.46875 48.8984375 C-16.05911545 50.61434334 -16.05911545 50.61434334 -16.66140747 52.36491394 C-18.86387864 58.75253118 -21.09835561 65.12626556 -23.40625 71.4765625 C-23.64789886 72.14272079 -23.88954773 72.80887909 -24.13851929 73.495224 C-25.20018434 76.415677 -26.27206905 79.3318489 -27.35791016 82.2434082 C-27.89617432 83.7142688 -27.89617432 83.7142688 -28.4453125 85.21484375 C-28.74969238 86.03073975 -29.05407227 86.84663574 -29.36767578 87.68725586 C-30.21977424 90.40422601 -30.21977424 90.40422601 -30 95 C-22.08 95 -14.16 95 -6 95 C-5.34 93.081875 -4.68 91.16375 -4 89.1875 C-3.62875 88.10855469 -3.2575 87.02960938 -2.875 85.91796875 C-1.85638488 83.02879198 -1.85638488 83.02879198 -2 80 C-0.845 80.33 0.31 80.66 1.5 81 C12.11228585 83.34340697 23.50421765 82.49052463 34 80 C34.20496094 80.83144531 34.40992188 81.66289063 34.62109375 82.51953125 C34.89050781 83.60621094 35.15992188 84.69289063 35.4375 85.8125 C35.70433594 86.89144531 35.97117187 87.97039062 36.24609375 89.08203125 C36.76077412 91.0740843 37.34937175 93.04811524 38 95 C46.25 95 54.5 95 63 95 C62.15166521 90.75832605 61.00415746 86.90440073 59.55078125 82.859375 C59.30151886 82.15612091 59.05225647 81.45286682 58.79544067 80.728302 C58.25422084 79.20166477 57.71158511 77.67552892 57.16769409 76.14984131 C55.69486989 72.01680952 54.23366286 67.87968455 52.7734375 63.7421875 C52.31423164 62.44143784 52.31423164 62.44143784 51.8457489 61.1144104 C47.69550027 49.33156937 43.68594286 37.50041868 39.67114258 25.67089844 C39.38850555 24.83936249 39.10586853 24.00782654 38.81466675 23.15109253 C38.2938848 21.61853005 37.77409936 20.08562832 37.25564575 18.55227661 C35.25560191 12.6658252 33.12626787 6.84723665 31 1 C21.43 1 11.86 1 2 1 Z " fill="#F5F8FD" transform="translate(1263,501)"/>
<path d="M0 0 C10.56 0 21.12 0 32 0 C36.49920934 11.24802335 36.49920934 11.24802335 38.03955078 15.73974609 C38.56173439 17.2560688 38.56173439 17.2560688 39.09446716 18.80302429 C39.45774612 19.86576065 39.82102509 20.92849701 40.1953125 22.0234375 C40.58489639 23.15582352 40.97448029 24.28820953 41.37586975 25.45491028 C42.62772967 29.0942053 43.87642743 32.734576 45.125 36.375 C46.8300171 41.33793412 48.53715065 46.30013517 50.24609375 51.26171875 C50.66097549 52.46627213 51.07585724 53.6708255 51.50331116 54.91188049 C53.7858933 61.52520186 56.094435 68.12747873 58.47265625 74.70703125 C58.71550354 75.37939819 58.95835083 76.05176514 59.20855713 76.74450684 C60.26483569 79.66158269 61.3309336 82.57467323 62.40869141 85.48388672 C62.76237793 86.45213379 63.11606445 87.42038086 63.48046875 88.41796875 C63.77848389 89.22000732 64.07649902 90.0220459 64.38354492 90.84838867 C65 93 65 93 65 97 C55.76 97 46.52 97 37 97 C33 85 33 85 33 82 C32.29359375 82.15597656 31.5871875 82.31195312 30.859375 82.47265625 C20.45246179 84.446832 10.5083765 83.77529398 0 83 C-0.27714844 83.92683594 -0.55429687 84.85367188 -0.83984375 85.80859375 C-1.20207031 87.00613281 -1.56429687 88.20367188 -1.9375 89.4375 C-2.29714844 90.63246094 -2.65679688 91.82742188 -3.02734375 93.05859375 C-4 96 -4 96 -5 97 C-6.99964982 97.08758003 -9.0023611 97.10696576 -11.00390625 97.09765625 C-12.82631836 97.09282227 -12.82631836 97.09282227 -14.68554688 97.08789062 C-15.96494141 97.07951172 -17.24433594 97.07113281 -18.5625 97.0625 C-19.84576172 97.05798828 -21.12902344 97.05347656 -22.45117188 97.04882812 C-25.63416022 97.03699545 -28.81705762 97.02051068 -32 97 C-31.44526277 90.02809156 -29.49077499 83.9569779 -27.16796875 77.3828125 C-26.77960846 76.26382065 -26.39124817 75.1448288 -25.99111938 73.9919281 C-24.73084698 70.36691871 -23.45936907 66.74595502 -22.1875 63.125 C-21.32122479 60.64076459 -20.45558578 58.15630724 -19.59057617 55.67163086 C-17.0713758 48.44388174 -14.53750165 41.22134076 -12 34 C-11.30889042 32.03109737 -10.61780767 30.06218531 -9.92675781 28.09326172 C-6.63563813 18.72243201 -3.32137444 9.36023707 0 0 Z M2 1 C-1.91734067 10.29413526 -1.91734067 10.29413526 -5.40014648 19.69213867 C-5.80083847 20.85762741 -6.20153046 22.02311615 -6.61436462 23.22392273 C-7.02908524 24.44295792 -7.44380585 25.6619931 -7.87109375 26.91796875 C-8.32003219 28.22785302 -8.76934597 29.53760869 -9.2190094 30.84724426 C-10.39223278 34.26711409 -11.5609008 37.68852181 -12.72839355 41.11035156 C-14.36035378 45.89076734 -15.99864692 50.66901725 -17.63613892 55.44754028 C-18.53531594 58.07157796 -19.4327759 60.69619353 -20.32894897 63.32125854 C-22.18539988 68.75061962 -24.04905031 74.17530172 -25.99658203 79.57275391 C-26.28340347 80.36885574 -26.57022491 81.16495758 -26.86573792 81.98518372 C-27.37280233 83.3834068 -27.88523326 84.77970323 -28.40464783 86.17338562 C-29.57291865 89.38875317 -30 91.50078443 -30 95 C-22.08 95 -14.16 95 -6 95 C-3.89064603 89.37505608 -2.59343896 85.69701401 -2 80 C-0.845 80.33 0.31 80.66 1.5 81 C12.11228585 83.34340697 23.50421765 82.49052463 34 80 C34.20496094 80.83144531 34.40992188 81.66289063 34.62109375 82.51953125 C34.89050781 83.60621094 35.15992188 84.69289063 35.4375 85.8125 C35.70433594 86.89144531 35.97117187 87.97039062 36.24609375 89.08203125 C36.76077412 91.0740843 37.34937175 93.04811524 38 95 C46.25 95 54.5 95 63 95 C61.29032589 87.286746 61.29032589 87.286746 58.98803711 79.8671875 C58.40118385 78.18737793 58.40118385 78.18737793 57.80247498 76.47363281 C57.38168167 75.28608398 56.96088837 74.09853516 56.52734375 72.875 C56.0805164 71.60268694 55.63411996 70.33022248 55.18812561 69.05761719 C54.01418409 65.71194551 52.83394678 62.368528 51.65246582 59.0255127 C50.71485439 56.36924046 49.78170097 53.71141384 48.84880638 51.05348206 C42.98202176 34.33887777 37.01962698 17.66025728 31 1 C21.43 1 11.86 1 2 1 Z " fill="#F6F9FD" transform="translate(683,501)"/>
<path d="M0 0 C24.75 0 49.5 0 75 0 C75 7.59 75 15.18 75 23 C66.42 23 57.84 23 49 23 C49 47.42 49 71.84 49 97 C41.08 97 33.16 97 25 97 C24 96 24 96 23.87974548 93.10838318 C23.88196609 91.81376663 23.88418671 90.51915009 23.88647461 89.18530273 C23.88632858 88.47314606 23.88618256 87.76098938 23.8860321 87.0272522 C23.8867313 84.66266888 23.89452394 82.29816339 23.90234375 79.93359375 C23.90420791 78.29834537 23.90563182 76.66309643 23.90663147 75.02784729 C23.91045682 70.71565215 23.92028725 66.40349048 23.93133545 62.09130859 C23.9415492 57.69434054 23.94612901 53.29736711 23.95117188 48.90039062 C23.96190951 40.26690998 23.97950644 31.63346301 24 23 C16.08 23 8.16 23 0 23 C0 15.41 0 7.82 0 0 Z M1 1 C1 7.93 1 14.86 1 22 C9.25 22 17.5 22 26 22 C26 46.09 26 70.18 26 95 C33.26 95 40.52 95 48 95 C48 70.91 48 46.82 48 22 C56.58 22 65.16 22 74 22 C74 15.07 74 8.14 74 1 C49.91 1 25.82 1 1 1 Z " fill="#EFF4FB" transform="translate(744,501)"/>
<path d="M0 0 C6.12431611 1.53107903 11.53148921 4.72515618 15.36328125 9.80859375 C20.2773349 18.11781174 20.27077098 28.72708594 18.38671875 38.02734375 C15.85963354 45.25235831 11.2373953 49.88452715 4.43359375 53.28125 C-11.70203292 60.01444742 -32.74311927 59.04733566 -49 53 C-51.64 51.68 -54.28 50.36 -57 49 C-57 40.75 -57 32.5 -57 24 C-56.01 24.33 -55.02 24.66 -54 25 C-54.66 25 -55.32 25 -56 25 C-56 32.59 -56 40.18 -56 48 C-48.95349039 50.36604292 -48.95349039 50.36604292 -41.875 52.625 C-41.10929687 52.86476563 -40.34359375 53.10453125 -39.5546875 53.3515625 C-24.78967904 57.09925578 -6.42061591 56.66892338 7 49 C12.01384426 44.87750583 15.77913365 39.46477799 17 33 C17.6511532 25.02604194 17.6710391 17.76684256 13 11 C9.22310048 6.92131432 4.61323585 4.03798459 0 1 C0 0.67 0 0.34 0 0 Z " fill="#F6F8FD" transform="translate(1150,542)"/>
<path d="M0 0 C1.155 0.165 2.31 0.33 3.5 0.5 C14.26057677 1.6880763 25.27007723 1.27304168 36 0 C36.67220351 1.93558599 37.33758077 3.87354372 38 5.8125 C38.37125 6.89144531 38.7425 7.97039063 39.125 9.08203125 C40 12 40 12 40 15 C48.25 15 56.5 15 65 15 C64.505 11.535 64.505 11.535 64 8 C66 11 66 11 67 17 C57.76 17 48.52 17 39 17 C35 5 35 5 35 2 C34.20980469 2.15597656 33.41960937 2.31195312 32.60546875 2.47265625 C22.21638425 4.2655154 12.46457798 3.82556372 2 3 C0.68 7.29 -0.64 11.58 -2 16 C-10.91 16 -19.82 16 -29 16 C-28.67 15.01 -28.34 14.02 -28 13 C-28 13.66 -28 14.32 -28 15 C-20.08 15 -12.16 15 -4 15 C-3.525625 13.081875 -3.05125 11.16375 -2.5625 9.1875 C-1.79317287 6.07674246 -1.01348676 3.04046027 0 0 Z " fill="#D4E2F6" transform="translate(1261,581)"/>
<path d="M0 0 C1.155 0.165 2.31 0.33 3.5 0.5 C14.26057677 1.6880763 25.27007723 1.27304168 36 0 C38.15984041 5.35264798 39.15393802 9.07756617 40 15 C48.25 15 56.5 15 65 15 C65.33 14.01 65.66 13.02 66 12 C66.495 14.475 66.495 14.475 67 17 C57.76 17 48.52 17 39 17 C35 4 35 4 35 2 C33.94039062 2.23396484 33.94039062 2.23396484 32.859375 2.47265625 C22.45246179 4.446832 12.5083765 3.77529398 2 3 C1.80664062 3.77085937 1.61328125 4.54171875 1.4140625 5.3359375 C1.15367187 6.33882812 0.89328125 7.34171875 0.625 8.375 C0.24214844 9.87160156 0.24214844 9.87160156 -0.1484375 11.3984375 C-1 14 -1 14 -3 16 C-5.61376953 16.22705078 -5.61376953 16.22705078 -8.8828125 16.1953125 C-10.04941406 16.18886719 -11.21601562 16.18242188 -12.41796875 16.17578125 C-13.64128906 16.15902344 -14.86460937 16.14226563 -16.125 16.125 C-17.35605469 16.11597656 -18.58710937 16.10695313 -19.85546875 16.09765625 C-22.90383815 16.07402548 -25.95182382 16.04108054 -29 16 C-28.67 15.34 -28.34 14.68 -28 14 C-20.08 14 -12.16 14 -4 14 C-2.68 9.38 -1.36 4.76 0 0 Z " fill="#D6E3F7" transform="translate(924,581)"/>
<path d="M0 0 C0.66 0 1.32 0 2 0 C3.57180585 5.21287738 5.13824317 10.42732598 6.69970703 15.64331055 C7.23175829 17.41784272 7.76527909 19.19193497 8.30029297 20.96557617 C9.06864139 23.51367042 9.83170723 26.06329517 10.59375 28.61328125 C10.95466736 29.80405022 10.95466736 29.80405022 11.32287598 31.01887512 C12.24104279 34.10630971 13 36.76040053 13 40 C10.62384014 41.18807993 9.1488258 41.12914522 6.5 41.1328125 C5.1696875 41.13474609 5.1696875 41.13474609 3.8125 41.13671875 C2.884375 41.13285156 1.95625 41.12898437 1 41.125 C-0.3921875 41.13080078 -0.3921875 41.13080078 -1.8125 41.13671875 C-2.699375 41.13542969 -3.58625 41.13414062 -4.5 41.1328125 C-5.3146875 41.13168457 -6.129375 41.13055664 -6.96875 41.12939453 C-9 41 -9 41 -11 40 C-9.00728941 31.76419889 -6.78341869 23.62331048 -4.375 15.5 C-3.7571464 13.40644647 -3.13993165 11.31270426 -2.5234375 9.21875 C-2.25450684 8.31060547 -1.98557617 7.40246094 -1.70849609 6.46679688 C-1.09185737 4.31982317 -0.5249976 2.17091892 0 0 Z M1 6 C-1.73669505 12.87120972 -3.73192012 19.87172762 -5.6875 27 C-6.00783203 28.15628906 -6.32816406 29.31257812 -6.65820312 30.50390625 C-7.44203539 33.33506159 -8.22254438 36.16708825 -9 39 C-5.40291499 39.98018255 -2.17570215 40.13350558 1.5625 40.125 C3.26599609 40.12886719 3.26599609 40.12886719 5.00390625 40.1328125 C8.05233998 40.1347228 8.05233998 40.1347228 11 39 C8.32466784 27.89512964 5.30203829 16.9346186 2 6 C1.67 6 1.34 6 1 6 Z " fill="#DFE9F8" transform="translate(1278,522)"/>
<path d="M0 0 C2.26513175 3.39769762 3.25984997 6.75195947 4.3828125 10.625 C4.60194305 11.36830566 4.82107361 12.11161133 5.04684448 12.87744141 C5.50816827 14.44686078 5.96694167 16.01703178 6.42333984 17.58789062 C7.12295687 19.99297629 7.8323465 22.39502097 8.54296875 24.796875 C8.99016988 26.32274488 9.43680375 27.84878116 9.8828125 29.375 C10.09527618 30.09381348 10.30773987 30.81262695 10.52664185 31.55322266 C11.36966793 34.47189208 12 36.94467658 12 40 C9.61561291 41.19219354 8.12343998 41.12916022 5.46484375 41.1328125 C4.57345703 41.13410156 3.68207031 41.13539063 2.76367188 41.13671875 C1.83103516 41.13285156 0.89839844 41.12898437 -0.0625 41.125 C-0.99900391 41.12886719 -1.93550781 41.13273438 -2.90039062 41.13671875 C-3.79048828 41.13542969 -4.68058594 41.13414062 -5.59765625 41.1328125 C-6.82754272 41.13112061 -6.82754272 41.13112061 -8.08227539 41.12939453 C-10 41 -10 41 -11 40 C-10.53350478 34.60413189 -9.49165274 29.68362922 -7.96875 24.47265625 C-7.77277222 23.79827011 -7.57679443 23.12388397 -7.37487793 22.42906189 C-6.96425367 21.02078542 -6.55069227 19.61336221 -6.13427734 18.20678711 C-5.49497879 16.04552493 -4.86596677 13.88145711 -4.23828125 11.71679688 C-1.14555958 1.14555958 -1.14555958 1.14555958 0 0 Z M0 6 C-3.77551015 16.89274843 -7.00391166 27.86985055 -10 39 C-6.40291499 39.98018255 -3.17570215 40.13350558 0.5625 40.125 C2.26599609 40.12886719 2.26599609 40.12886719 4.00390625 40.1328125 C7.05233998 40.1347228 7.05233998 40.1347228 10 39 C8.47929148 31.69599091 6.49566074 24.58826458 4.375 17.4375 C4.05015625 16.33341797 3.7253125 15.22933594 3.390625 14.09179688 C2.59639176 11.39373982 1.79946328 8.69651103 1 6 C0.67 6 0.34 6 0 6 Z " fill="#DFE9F8" transform="translate(699,522)"/>
<path d="M0 0 C-1.08667969 0.60134766 -1.08667969 0.60134766 -2.1953125 1.21484375 C-9.87984027 5.73334608 -15.13064065 10.39192196 -18 19 C-18.92153843 29.12375789 -18.05399602 36.76168883 -11.56640625 44.76953125 C-4.08473535 52.13925695 7.49512129 54.36733177 17.44311523 56.56884766 C21.8176044 57.56483746 26.7259159 58.7259159 30 62 C30.04080783 63.99958364 30.04254356 66.00045254 30 68 C29.7525 67.401875 29.505 66.80375 29.25 66.1875 C27.32661852 62.82158242 25.01660948 61.35657057 21.37792969 60.08032227 C19.91468262 59.70218384 19.91468262 59.70218384 18.421875 59.31640625 C17.34292969 59.02830078 16.26398438 58.74019531 15.15234375 58.44335938 C14.02957031 58.15267578 12.90679688 57.86199219 11.75 57.5625 C-11.25131386 51.60465095 -11.25131386 51.60465095 -17.3125 41.4375 C-21.16222784 33.5954618 -21.19537143 23.72647528 -19.421875 15.23046875 C-16.76074589 8.32362911 -10.94164832 2.90426182 -4.33984375 -0.28515625 C-2 -1 -2 -1 0 0 Z " fill="#EAF1FB" transform="translate(1023,503)"/>
<path d="M0 0 C2.08863794 2.08863794 2.80475803 3.54952544 3.9609375 6.234375 C4.34362793 7.10707031 4.72631836 7.97976563 5.12060547 8.87890625 C5.53455566 9.82636719 5.94850586 10.77382813 6.375 11.75 C11.18561776 22.5416247 16.65176214 32.85506345 22.41503906 43.16210938 C25.21673733 48.17858205 27.98492012 53.21328033 30.75 58.25 C31.27577637 59.19746094 31.80155273 60.14492188 32.34326172 61.12109375 C32.8229541 61.99378906 33.30264648 62.86648438 33.796875 63.765625 C34.22323242 64.53680664 34.64958984 65.30798828 35.08886719 66.10253906 C36 68 36 68 36 70 C44.58 70 53.16 70 62 70 C62 70.33 62 70.66 62 71 C53.09 71 44.18 71 35 71 C24.96978494 53.40313147 15.24148401 35.59001531 6.125 17.5 C5.65211548 16.56800781 5.65211548 16.56800781 5.16967773 15.6171875 C3.76412194 12.78587534 2.5953509 10.11414319 2 7 C1.34 7 0.68 7 0 7 C0 4.69 0 2.38 0 0 Z " fill="#DCE8F8" transform="translate(1362,526)"/>
<path d="M0 0 C2.21481177 2.21481177 2.54893295 3.33353278 3.3671875 6.296875 C3.61130371 7.16715332 3.85541992 8.03743164 4.10693359 8.93408203 C4.36039551 9.86333496 4.61385742 10.79258789 4.875 11.75 C5.40610015 13.65889587 5.93735062 15.56774991 6.46875 17.4765625 C6.85740234 18.88470215 6.85740234 18.88470215 7.25390625 20.32128906 C7.91250055 22.68584949 8.58920319 25.04349476 9.28125 27.3984375 C9.6421875 28.62820313 10.003125 29.85796875 10.375 31.125 C10.69210937 32.20007813 11.00921875 33.27515625 11.3359375 34.3828125 C12 37 12 37 12 40 C9.17588235 40.94137255 7.47081968 41.11725382 4.55078125 41.09765625 C3.70322266 41.09443359 2.85566406 41.09121094 1.98242188 41.08789062 C0.66081055 41.07532227 0.66081055 41.07532227 -0.6875 41.0625 C-1.58017578 41.05798828 -2.47285156 41.05347656 -3.39257812 41.04882812 C-5.59511987 41.03704983 -7.79752599 41.02060164 -10 41 C-11.25924575 37.41895398 -10.72366228 35.12762253 -9.671875 31.52734375 C-9.36636719 30.46193359 -9.06085937 29.39652344 -8.74609375 28.29882812 C-8.41738281 27.18958984 -8.08867188 26.08035156 -7.75 24.9375 C-7.11947538 22.75920611 -6.48926473 20.58082131 -5.859375 18.40234375 C-5.54806641 17.33999512 -5.23675781 16.27764648 -4.91601562 15.18310547 C-3.75662909 11.15429907 -2.680897 7.10534504 -1.62207031 3.04907227 C-1 1 -1 1 0 0 Z M0 5 C-3.3 16.22 -6.6 27.44 -10 39 C-6.23472045 39.94131989 -3.29132381 40.13376865 0.5625 40.125 C2.26599609 40.12886719 2.26599609 40.12886719 4.00390625 40.1328125 C7.05233998 40.1347228 7.05233998 40.1347228 10 39 C8.629793 31.29447373 6.61501526 23.86903481 4.375 16.375 C3.88773438 14.72564453 3.88773438 14.72564453 3.390625 13.04296875 C2.597636 10.36080009 1.80069834 7.67987525 1 5 C0.67 5 0.34 5 0 5 Z " fill="#E5EDFA" transform="translate(942,522)"/>
<path d="M0 0 C1.155 0.165 2.31 0.33 3.5 0.5 C14.26057677 1.6880763 25.27007723 1.27304168 36 0 C36.67220351 1.93558599 37.33758077 3.87354372 38 5.8125 C38.37125 6.89144531 38.7425 7.97039063 39.125 9.08203125 C40 12 40 12 40 15 C48.25 15 56.5 15 65 15 C65 15.33 65 15.66 65 16 C56.42 16 47.84 16 39 16 C35.625 7 35.625 7 35 2 C33.94039062 2.23396484 33.94039062 2.23396484 32.859375 2.47265625 C22.45246179 4.446832 12.5083765 3.77529398 2 3 C0.68 7.29 -0.64 11.58 -2 16 C-10.91 16 -19.82 16 -29 16 C-28.67 15.01 -28.34 14.02 -28 13 C-28 13.66 -28 14.32 -28 15 C-20.08 14.67 -12.16 14.34 -4 14 C-2.68 9.38 -1.36 4.76 0 0 Z " fill="#D7E4F7" transform="translate(681,581)"/>
<path d="M0 0 C2.22925794 0.85903562 4.38382797 1.77670437 6.5625 2.75 C12.29341272 5.18099806 17.86294244 6.82606933 24 7.875 C25.03942749 8.05434082 25.03942749 8.05434082 26.09985352 8.23730469 C33.39248884 9.38021318 39.47365628 9.83902572 46 6 C47.51973152 2.94818931 47.51973152 2.94818931 48 0 C48.33 0 48.66 0 49 0 C49.49046322 5.39509537 49.49046322 5.39509537 47.125 8.3125 C41.47693526 12.79772788 32.90788222 11.54066688 26 11 C16.42059275 9.6156432 7.63613565 6.31806783 -1 2 C-1 9.26 -1 16.52 -1 24 C-1.33 24 -1.66 24 -2 24 C-2 16.41 -2 8.82 -2 1 C-1.34 0.67 -0.68 0.34 0 0 Z " fill="#DAE6F7" transform="translate(1096,566)"/>
<path d="M0 0 C0.70189453 0.00451172 1.40378906 0.00902344 2.12695312 0.01367188 C3.85550538 0.02543073 5.58401365 0.04336546 7.3125 0.0625 C7.3125 0.7225 7.3125 1.3825 7.3125 2.0625 C5.77529297 2.11857422 5.77529297 2.11857422 4.20703125 2.17578125 C2.84631938 2.24147079 1.48564389 2.30791709 0.125 2.375 C-0.54853516 2.39755859 -1.22207031 2.42011719 -1.91601562 2.44335938 C-6.29735323 2.67845554 -9.13141376 3.48692686 -12.6875 6.0625 C-12.8988453 8.4537295 -12.8988453 8.4537295 -11.6875 11.0625 C-5.07535817 14.98080627 2.40461988 16.50127445 9.83544922 18.22460938 C10.64127441 18.41990234 11.44709961 18.61519531 12.27734375 18.81640625 C13.0055835 18.98470947 13.73382324 19.1530127 14.48413086 19.32641602 C16.3125 20.0625 16.3125 20.0625 18.3125 23.0625 C17.77625 22.89234375 17.24 22.7221875 16.6875 22.546875 C12.58220295 21.27747394 8.48372338 20.0828984 4.296875 19.11328125 C3.59820313 18.94924805 2.89953125 18.78521484 2.1796875 18.61621094 C0.79662873 18.29532599 -0.58877141 17.98432787 -1.9765625 17.68457031 C-6.90076452 16.53380571 -11.06429236 14.68570764 -14.6875 11.0625 C-15 7.6875 -15 7.6875 -14.6875 4.0625 C-10.50498305 -0.26424167 -5.66220761 -0.06872894 0 0 Z " fill="#E7EFFA" transform="translate(1132.6875,520.9375)"/>
<path d="M0 0 C0.70189453 0.00451172 1.40378906 0.00902344 2.12695312 0.01367188 C3.85550538 0.02543073 5.58401365 0.04336546 7.3125 0.0625 C7.3125 0.7225 7.3125 1.3825 7.3125 2.0625 C5.77529297 2.11857422 5.77529297 2.11857422 4.20703125 2.17578125 C2.84631938 2.24147079 1.48564389 2.30791709 0.125 2.375 C-0.54853516 2.39755859 -1.22207031 2.42011719 -1.91601562 2.44335938 C-6.29735323 2.67845554 -9.13141376 3.48692686 -12.6875 6.0625 C-12.8988453 8.4537295 -12.8988453 8.4537295 -11.6875 11.0625 C-5.07535817 14.98080627 2.40461988 16.50127445 9.83544922 18.22460938 C10.64127441 18.41990234 11.44709961 18.61519531 12.27734375 18.81640625 C13.0055835 18.98470947 13.73382324 19.1530127 14.48413086 19.32641602 C16.3125 20.0625 16.3125 20.0625 18.3125 23.0625 C17.77625 22.89234375 17.24 22.7221875 16.6875 22.546875 C12.58220295 21.27747394 8.48372338 20.0828984 4.296875 19.11328125 C3.59820313 18.94924805 2.89953125 18.78521484 2.1796875 18.61621094 C0.79662873 18.29532599 -0.58877141 17.98432787 -1.9765625 17.68457031 C-6.90076452 16.53380571 -11.06429236 14.68570764 -14.6875 11.0625 C-15 7.6875 -15 7.6875 -14.6875 4.0625 C-10.50498305 -0.26424167 -5.66220761 -0.06872894 0 0 Z " fill="#E7EFFA" transform="translate(1041.6875,520.9375)"/>
<path d="M0 0 C6.12431611 1.53107903 11.53148921 4.72515618 15.36328125 9.80859375 C20.11024699 17.83528128 20.34865691 28.0094542 18.328125 36.984375 C17.6404106 39.0215667 16.8343768 41.01835511 16 43 C15.34 43 14.68 43 14 43 C14.2165625 42.34515625 14.433125 41.6903125 14.65625 41.015625 C17.54439371 31.54893172 19.00117058 22.08863898 14.33203125 12.96484375 C10.73408415 7.65760799 5.26141477 4.46483412 0 1 C0 0.67 0 0.34 0 0 Z " fill="#F3F6FC" transform="translate(1059,542)"/>
<path d="M0 0 C0.33 0 0.66 0 1 0 C1.49046322 5.39509537 1.49046322 5.39509537 -0.875 8.3125 C-6.48057429 12.76398547 -15.11904599 11.48339746 -22 11 C-26.41990167 10.36263435 -30.71650825 9.25152455 -35 8 C-35 7.67 -35 7.34 -35 7 C-34.37996094 7.06058594 -33.75992188 7.12117187 -33.12109375 7.18359375 C-31.2207849 7.36339007 -29.31963443 7.53439132 -27.41796875 7.69921875 C-25.00214181 7.91181152 -22.58814044 8.1456566 -20.17578125 8.39453125 C-10.56484359 9.54331773 -10.56484359 9.54331773 -2 6 C-0.48026848 2.94818931 -0.48026848 2.94818931 0 0 Z " fill="#DEE8F8" transform="translate(1053,566)"/>
<path d="M0 0 C1.65 0 3.3 0 5 0 C4.32517578 0.53560547 4.32517578 0.53560547 3.63671875 1.08203125 C1.38115827 3.72518208 0.76721722 6.36245036 -0.1875 9.6875 C-0.785625 11.770625 -1.38375 13.85375 -2 16 C-10.91 16 -19.82 16 -29 16 C-28.67 15.01 -28.34 14.02 -28 13 C-28 13.66 -28 14.32 -28 15 C-20.08 14.67 -12.16 14.34 -4 14 C-2.68 9.38 -1.36 4.76 0 0 Z " fill="#BED3F2" transform="translate(681,581)"/>
<path d="M0 0 C-1.08667969 0.60134766 -1.08667969 0.60134766 -2.1953125 1.21484375 C-9.87984027 5.73334608 -15.13064065 10.39192196 -18 19 C-18.07029121 21.57265818 -18.09370832 24.11641431 -18.0625 26.6875 C-18.05573242 27.7403418 -18.05573242 27.7403418 -18.04882812 28.81445312 C-18.03706927 30.54300538 -18.01913454 32.27151365 -18 34 C-18.66 34 -19.32 34 -20 34 C-20.81950282 15.4473668 -20.81950282 15.4473668 -16 9 C-5.19098458 -2.59549229 -5.19098458 -2.59549229 0 0 Z " fill="#F6F9FD" transform="translate(1023,503)"/>
<path d="M0 0 C0.33 0.99 0.66 1.98 1 3 C-3.08501501 10.51642762 -8.58838814 14.33859431 -16.38671875 17.28515625 C-20.3805378 18.3776359 -23.8811529 18.26573207 -28 18 C-28 17.67 -28 17.34 -28 17 C-27.07380859 16.85304688 -27.07380859 16.85304688 -26.12890625 16.703125 C-16.58179758 15.01748633 -8.68390159 12.51740254 -2.8125 4.34765625 C-1.8442425 2.91880404 -0.91784185 1.46174813 0 0 Z " fill="#E0EAF9" transform="translate(1166,580)"/>
<path d="M0 0 C0.66 0.33 1.32 0.66 2 1 C2 8.26 2 15.52 2 23 C9.00499602 26.35131278 9.00499602 26.35131278 16 28 C16 28.33 16 28.66 16 29 C14.66549443 28.93821733 13.33226026 28.84901934 12 28.75 C11.2575 28.70359375 10.515 28.6571875 9.75 28.609375 C7 28 7 28 -1 24 C-0.67 16.08 -0.34 8.16 0 0 Z " fill="#D5E2F6" transform="translate(1003,567)"/>
<path d="M0 0 C0.70189453 0.00451172 1.40378906 0.00902344 2.12695312 0.01367188 C3.85550538 0.02543073 5.58401365 0.04336546 7.3125 0.0625 C7.3125 0.7225 7.3125 1.3825 7.3125 2.0625 C6.27609375 2.11148438 5.2396875 2.16046875 4.171875 2.2109375 C2.80205792 2.28599597 1.43226752 2.36154247 0.0625 2.4375 C-0.61941406 2.4684375 -1.30132813 2.499375 -2.00390625 2.53125 C-5.76233935 2.75018785 -8.38634396 3.32106448 -11.6875 5.0625 C-12.6775 4.7325 -13.6675 4.4025 -14.6875 4.0625 C-9.84405217 0.22114483 -6.02835223 -0.07317328 0 0 Z " fill="#CEDEF5" transform="translate(1132.6875,520.9375)"/>
<path d="M0 0 C0.70189453 0.00451172 1.40378906 0.00902344 2.12695312 0.01367188 C3.85550538 0.02543073 5.58401365 0.04336546 7.3125 0.0625 C7.3125 0.7225 7.3125 1.3825 7.3125 2.0625 C6.27609375 2.11148438 5.2396875 2.16046875 4.171875 2.2109375 C2.80205792 2.28599597 1.43226752 2.36154247 0.0625 2.4375 C-0.61941406 2.4684375 -1.30132813 2.499375 -2.00390625 2.53125 C-5.76233935 2.75018785 -8.38634396 3.32106448 -11.6875 5.0625 C-12.6775 4.7325 -13.6675 4.4025 -14.6875 4.0625 C-9.84405217 0.22114483 -6.02835223 -0.07317328 0 0 Z " fill="#CEDEF5" transform="translate(1041.6875,520.9375)"/>
<path d="M0 0 C1.65 0 3.3 0 5 0 C4.32517578 0.55107422 4.32517578 0.55107422 3.63671875 1.11328125 C1.4702333 3.61068572 0.79330432 6.042162 -0.1875 9.1875 C-0.53167969 10.27417969 -0.87585937 11.36085938 -1.23046875 12.48046875 C-1.48441406 13.31191406 -1.73835938 14.14335938 -2 15 C-2.33 15 -2.66 15 -3 15 C-2.5547115 9.72684667 -1.91626837 4.98229776 0 0 Z " fill="#DDE8F8" transform="translate(1261,581)"/>
<path d="M0 0 C0.33 0.99 0.66 1.98 1 3 C-1.19959469 6.82892409 -3.65776408 10.10339553 -7 13 C-7.66 13 -8.32 13 -9 13 C-7.7589311 9.2767933 -5.75859975 7.75859975 -3 5 C-1.94712186 3.36622358 -0.9272999 1.70818403 0 0 Z " fill="#EBF2FB" transform="translate(1166,580)"/>
<path d="M0 0 C7.14893617 0.59574468 7.14893617 0.59574468 10.5 2.1875 C12.63781283 4.7706905 12.2885863 6.75340408 12 10 C11.7525 9.401875 11.505 8.80375 11.25 8.1875 C8.65456127 3.64548222 4.85439417 2.43425282 0 1 C0 0.67 0 0.34 0 0 Z " fill="#F4F7FD" transform="translate(1132,561)"/>
<path d="M0 0 C7.14893617 0.59574468 7.14893617 0.59574468 10.5 2.1875 C12.63781283 4.7706905 12.2885863 6.75340408 12 10 C11.7525 9.401875 11.505 8.80375 11.25 8.1875 C8.65456127 3.64548222 4.85439417 2.43425282 0 1 C0 0.67 0 0.34 0 0 Z " fill="#F4F7FD" transform="translate(1041,561)"/>
<path d="M0 0 C3.45436806 2.53790306 5.62097097 4.43145646 8 8 C7.67 8.99 7.34 9.98 7 11 C6.61328125 10.44570313 6.2265625 9.89140625 5.828125 9.3203125 C5.30734375 8.59585938 4.7865625 7.87140625 4.25 7.125 C3.73953125 6.40570312 3.2290625 5.68640625 2.703125 4.9453125 C0.92496453 2.91429435 -0.52701607 2.02144988 -3 1 C-2.01 0.67 -1.02 0.34 0 0 Z " fill="#EAF1FB" transform="translate(529,532)"/>
<path d="M0 0 C2 2 2 2 2 5 C1.34 5 0.68 5 0 5 C-0.33 6.65 -0.66 8.3 -1 10 C-1.66 10 -2.32 10 -3 10 C-2.69201674 8.51988629 -2.378482 7.04092675 -2.0625 5.5625 C-1.88847656 4.73878906 -1.71445312 3.91507813 -1.53515625 3.06640625 C-1 1 -1 1 0 0 Z " fill="#CEDDF5" transform="translate(942,522)"/>
<path d="M0 0 C2.26185454 2.26185454 3.03921617 3.96983561 4 7 C3.67 7.99 3.34 8.98 3 10 C2.67 9.01 2.34 8.02 2 7 C1.34 7 0.68 7 0 7 C0 4.69 0 2.38 0 0 Z " fill="#EFF4FC" transform="translate(1362,526)"/>
</svg>
