<?xml version="1.0" encoding="UTF-8"?>
<svg version="1.1" xmlns="http://www.w3.org/2000/svg" width="1036" height="222">
<path d="M0 0 C0.72509766 -0.020625 1.45019531 -0.04125 2.19726562 -0.0625 C5.20827411 -0.08453849 7.61531737 -0.05500433 10.30453491 1.37849426 C12.84581773 3.90431134 13.29878588 6.05594558 14.17041016 9.5222168 C14.33359238 10.15354019 14.4967746 10.78486359 14.66490173 11.43531799 C15.19990467 13.51990556 15.71324035 15.6091966 16.2265625 17.69921875 C16.59588013 19.15583722 16.96653679 20.61211678 17.33847046 22.06806946 C18.31446049 25.90368333 19.27216123 29.74363799 20.22613525 33.58477783 C21.19446812 37.47010386 22.17998044 41.35106098 23.1640625 45.23242188 C25.18970243 53.23387299 27.19237144 61.24088956 29.1875 69.25 C29.85367986 71.9167887 30.52058257 74.58339565 31.1875 77.25 C31.38937424 76.35908157 31.59124847 75.46816315 31.79924011 74.55024719 C33.70728891 66.14463273 35.63283337 57.7432609 37.57801342 49.34615803 C38.57738043 45.0292153 39.56997309 40.71094746 40.54711914 36.38891602 C41.49081835 32.21598464 42.45226379 28.04750686 43.42601967 23.88149071 C43.79394495 22.29338766 44.15551054 20.70379704 44.51051903 19.11275673 C45.00989874 16.87986992 45.53188214 14.65340136 46.05932617 12.42700195 C46.35022629 11.15903275 46.6411264 9.89106354 46.94084167 8.58467102 C48.38339738 4.7259965 50.00017283 2.82734847 53.1875 0.25 C56.59765625 -0.30859375 56.59765625 -0.30859375 60.25 -0.1875 C61.45785156 -0.16558594 62.66570312 -0.14367187 63.91015625 -0.12109375 C68.7140688 0.42285344 68.7140688 0.42285344 71.1875 2.25 C72.18363259 4.7350661 72.88281121 6.9769307 73.515625 9.55859375 C73.71955872 10.33963974 73.92349243 11.12068573 74.13360596 11.92539978 C77.31498442 24.32549505 80.09373015 36.83186336 82.9375 49.3125 C83.81829892 53.17633548 84.70084128 57.03975784 85.58770752 60.90220642 C86.13538807 63.28745399 86.67972729 65.67347171 87.22039795 68.06031799 C87.46445374 69.12330612 87.70850952 70.18629425 87.95996094 71.28149414 C88.17360291 72.21981583 88.38724487 73.15813751 88.60736084 74.12489319 C88.98996276 76.21777084 88.98996276 76.21777084 90.1875 77.25 C90.40634354 76.38635834 90.62518707 75.52271667 90.85066223 74.63290405 C92.91781634 66.48026292 94.99160231 58.32934374 97.07278919 50.18027306 C98.14242437 45.99105299 99.20951575 41.80121961 100.27075195 37.60986328 C101.29566684 33.56235506 102.32731784 29.51661814 103.36359215 25.47200394 C103.75708327 23.93131887 104.14817442 22.39001872 104.53678322 20.84809494 C105.08297303 18.6826799 105.63778203 16.5196415 106.19458008 14.35693359 C106.50768631 13.12671478 106.82079254 11.89649597 107.14338684 10.6289978 C108.1928354 7.2327334 109.36511592 4.30294569 111.1875 1.25 C114.70487321 0.07754226 117.5450132 0.11733715 121.25 0.125 C123.12365234 0.12113281 123.12365234 0.12113281 125.03515625 0.1171875 C128.1875 0.25 128.1875 0.25 130.1875 1.25 C129.70097591 7.24916467 128.67794229 12.7153607 126.8425293 18.44091797 C126.48618912 19.58681396 126.48618912 19.58681396 126.12265015 20.75585938 C125.34361337 23.2538678 124.55288912 25.7479982 123.76171875 28.2421875 C123.21157399 29.99638838 122.66209093 31.75079691 122.11323547 33.50540161 C120.96404845 37.17333112 119.8095214 40.83951827 118.65063477 44.50439453 C117.17403163 49.17421286 115.70675105 53.84688948 114.24299908 58.52075005 C112.83587544 63.01226843 111.42392379 67.50226475 110.01171875 71.9921875 C109.74707006 72.83507198 109.48242138 73.67795647 109.20975304 74.5463829 C101.102705 100.334795 101.102705 100.334795 99.1875 102.25 C96.0718708 102.55467105 92.94120638 102.52829403 89.8125 102.5625 C88.49765625 102.60600586 88.49765625 102.60600586 87.15625 102.65039062 C86.31320313 102.65876953 85.47015625 102.66714844 84.6015625 102.67578125 C83.8276416 102.69036377 83.0537207 102.70494629 82.25634766 102.7199707 C80.1875 102.25 80.1875 102.25 78.67701721 100.65061951 C76.79854356 97.62312815 76.11569208 94.83702853 75.28637695 91.37011719 C75.12012817 90.68678314 74.95387939 90.0034491 74.78259277 89.29940796 C74.23787381 87.05064981 73.70678108 84.79890838 73.17578125 82.546875 C72.79976178 80.98297315 72.42289334 79.41927521 72.04521179 77.85577393 C71.05530334 73.74784686 70.07693367 69.63725581 69.10095215 65.52600098 C68.10225883 61.32816209 67.09266261 57.13294863 66.08398438 52.9375 C64.10781738 44.71086182 62.14383429 36.48137691 60.1875 28.25 C59.02001496 32.88145959 57.85286971 37.51300453 56.68628693 42.14469147 C56.27733378 43.76833747 55.86826667 45.39195476 55.45916748 47.01556396 C53.1952533 56.01546603 50.98364613 65.02355458 48.9140625 74.0703125 C48.73510437 74.84889618 48.55614624 75.62747986 48.37176514 76.42965698 C47.51507963 80.16117851 46.66919936 83.89463445 45.83984375 87.63232422 C45.53162976 88.98413612 45.22305572 90.335866 44.9140625 91.6875 C44.52081787 93.44900391 44.52081787 93.44900391 44.11962891 95.24609375 C43.18673427 98.25246766 42.4343662 100.05490339 40.1875 102.25 C37.07026596 103.06629391 33.89911067 102.85306269 30.6875 102.8125 C29.38619141 102.84827148 29.38619141 102.84827148 28.05859375 102.88476562 C26.80755859 102.88186523 26.80755859 102.88186523 25.53125 102.87890625 C24.77005859 102.87963135 24.00886719 102.88035645 23.22460938 102.88110352 C21.1875 102.25 21.1875 102.25 19.71618652 100.18936157 C17.93306838 96.76077836 16.78458462 93.27817336 15.69140625 89.58911133 C15.34684891 88.45631241 15.34684891 88.45631241 14.99533081 87.30062866 C14.24043043 84.81299853 13.49518155 82.32258824 12.75 79.83203125 C12.2239783 78.09175587 11.6973575 76.35166148 11.17016602 74.61174011 C9.7843891 70.03234624 8.40679193 65.45053119 7.03088379 60.86816406 C5.6375156 56.23288046 4.23638941 51.59994414 2.8359375 46.96679688 C0.55454255 39.41532606 -1.72652175 31.86374204 -3.99082947 24.30712605 C-4.91691873 21.21729633 -5.84959555 18.13066755 -6.80712891 15.05038452 C-7.08089355 14.1671048 -7.3546582 13.28382507 -7.63671875 12.3737793 C-7.86319092 11.65594772 -8.08966309 10.93811615 -8.32299805 10.1985321 C-9.09785509 7.11410348 -9.08163093 4.41228839 -8.8125 1.25 C-6.7781764 -0.7843236 -2.78303586 0.01947882 0 0 Z " fill="#232F3E" transform="translate(116.8125,18.75)"/>
<path d="M0 0 C6.36662808 -0.8842539 10.48163551 2.2093526 15.75 5.3125 C91.57699144 48.08865484 184.27513741 54.4572395 267.19995117 31.53808594 C277.77034115 28.52858698 288.01744712 24.9079827 298.16088867 20.66870117 C305.19928007 17.84694662 305.19928007 17.84694662 309.6171875 18.69140625 C312 20 312 20 313 21 C313.06640625 24.19140625 313.06640625 24.19140625 312 28 C309.62048012 30.46381849 306.84813081 32.15631888 303.9375 33.9375 C302.71728149 34.71335449 302.71728149 34.71335449 301.47241211 35.50488281 C293.90306431 40.23471344 286.12475809 44.32071933 278 48 C277.29891113 48.32419922 276.59782227 48.64839844 275.87548828 48.98242188 C258.02199205 57.17275818 239.23777536 62.97109998 220 66.875 C219.05946777 67.06602295 218.11893555 67.2570459 217.14990234 67.45385742 C201.81008598 70.36422527 186.5265181 71.38463298 170.9375 71.3125 C170.09071686 71.31034485 169.24393372 71.3081897 168.37149048 71.30596924 C109.83851466 71.06832347 52.65115596 51.22081149 8 13 C7.20335937 12.34902344 6.40671875 11.69804687 5.5859375 11.02734375 C4.85632813 10.42019531 4.12671875 9.81304687 3.375 9.1875 C2.74335937 8.66542969 2.11171875 8.14335937 1.4609375 7.60546875 C-0.24030809 5.73591812 -0.70637632 4.49580126 -1 2 C-0.67 1.34 -0.34 0.68 0 0 Z " fill="#232F3E" transform="translate(1,151)"/>
<path d="M0 0 C9.96539632 9.26168952 13.63357765 22.39286399 14.28515625 35.62890625 C14.74906068 51.99268105 12.40218758 69.05323797 0.67578125 81.4765625 C-7.83731687 89.21574261 -17.897281 92.71105544 -29.43359375 92.28515625 C-37.79422278 91.35619747 -47.80988428 89.19011572 -54 83 C-54.33 97.85 -54.66 112.7 -55 128 C-61.6 128 -68.2 128 -75 128 C-75 83.78 -75 39.56 -75 -6 C-69.39 -6 -63.78 -6 -58 -6 C-57.34 -3.36 -56.68 -0.72 -56 2 C-55.46632813 1.61328125 -54.93265625 1.2265625 -54.3828125 0.828125 C-37.70961756 -10.82580365 -16.52595849 -13.71234129 0 0 Z M-50.66967773 12.5715332 C-51.88590065 13.25213554 -51.88590065 13.25213554 -53.12669373 13.94648743 C-54.05398033 14.46797615 -54.05398033 14.46797615 -55 15 C-55.22847266 22.29512218 -55.3859144 29.58932075 -55.49438477 36.88720703 C-55.53960555 39.36867749 -55.60099528 41.84990867 -55.67895508 44.33056641 C-55.78833135 47.90066499 -55.8392093 51.46759258 -55.87890625 55.0390625 C-55.92535782 56.14553131 -55.97180939 57.25200012 -56.01966858 58.39199829 C-56.1017282 64.2723682 -56.1017282 64.2723682 -53.042099 69.03024292 C-45.29801215 74.30060667 -36.34164215 76.90402989 -27 76 C-18.22440252 74.09097458 -13.9969894 69.77073331 -9.11328125 62.453125 C-6.1204019 55.8582891 -5.63600647 48.84142228 -5.6875 41.6875 C-5.69313965 40.86080811 -5.6987793 40.03411621 -5.70458984 39.18237305 C-5.90680565 28.9204215 -7.31658525 19.41538866 -15 12 C-26.05729133 3.79079886 -39.36187729 6.23006108 -50.66967773 12.5715332 Z " fill="#232F3E" transform="translate(944,32)"/>
<path d="M0 0 C7.34771708 6.57031357 10.75855418 13.23217824 12 23 C12.14038373 26.8345291 12.13692672 30.66714038 12.140625 34.50390625 C12.1589609 36.79493175 12.17853193 39.08594764 12.19921875 41.37695312 C12.2280824 44.96216031 12.24999785 48.54674944 12.25048828 52.13208008 C11.92574835 69.4348221 11.92574835 69.4348221 17.03027344 85.69506836 C18 88 18 88 17.77905273 90.19628906 C16.5949155 92.93787663 14.72279129 94.10115716 12.3125 95.8125 C11.46300781 96.43769531 10.61351563 97.06289062 9.73828125 97.70703125 C6.26162324 99.34864866 4.61868251 99.23084439 1 98 C-0.828125 96.00390625 -0.828125 96.00390625 -2.25 93.5625 C-4.33844929 90.06351594 -4.33844929 90.06351594 -7 87 C-7.38929687 87.44730469 -7.77859375 87.89460938 -8.1796875 88.35546875 C-15.53695034 96.30605924 -24.67003362 100.45980973 -35.4453125 101.25390625 C-45.78952087 101.57781581 -54.22175092 100.34978373 -62.4375 93.75 C-67.95175756 88.49563573 -70.6971215 82.22043817 -71.23828125 74.6796875 C-71.45661128 63.48740047 -69.89478982 55.12069116 -61.984375 46.75390625 C-53.11606496 38.9155771 -43.08648831 37.66006715 -31.6875 37.75 C-30.71876953 37.74226563 -29.75003906 37.73453125 -28.75195312 37.7265625 C-21.97712504 37.74464076 -15.61976908 38.57771754 -9 40 C-8.26850795 28.05388682 -8.26850795 28.05388682 -12 17 C-18.46177063 11.44735295 -25.17481997 10.65562854 -33.4609375 10.70703125 C-40.8847446 11.32158482 -48.76532256 13.15329856 -55.59765625 16.1328125 C-58.50086081 17.18079854 -60.93726379 17.14245285 -64 17 C-64.93218249 4.08754624 -64.93218249 4.08754624 -61.75 0.375 C-60.5125 -0.07875 -59.275 -0.5325 -58 -1 C-56.70642578 -1.51046875 -56.70642578 -1.51046875 -55.38671875 -2.03125 C-38.59218805 -8.25968523 -15.49432346 -10.89361991 0 0 Z M-46 57.4375 C-50.61256929 63.34735441 -50.78867498 68.63574734 -50 76 C-48.26141451 79.81151433 -46.78176637 81.42797583 -43.4375 83.875 C-34.49944619 86.80018125 -26.32286141 84.9496009 -18 81 C-12.60731633 77.67259944 -9.9856473 72.95694191 -8 67 C-7.931009 64.93854893 -7.91532273 62.87498599 -7.9375 60.8125 C-7.94652344 59.72582031 -7.95554688 58.63914062 -7.96484375 57.51953125 C-7.97644531 56.68808594 -7.98804688 55.85664062 -8 55 C-19.58273267 50.65647525 -35.86189612 49.2002906 -46 57.4375 Z " fill="#232F3E" transform="translate(86,23)"/>
<path d="M0 0 C6.25216377 6.88513076 8.32348385 14.57808947 8.22705078 23.77124023 C8.22734283 24.51353378 8.22763489 25.25582733 8.22793579 26.02061462 C8.22655342 28.45006404 8.21104439 30.87919857 8.1953125 33.30859375 C8.19157847 35.00252617 8.18873334 36.69646076 8.18673706 38.39039612 C8.17913128 42.83078054 8.15950928 47.2710324 8.1373291 51.71136475 C8.1168046 56.24961555 8.10772126 60.78788795 8.09765625 65.32617188 C8.07626028 74.21751528 8.04110329 83.10872583 8 92 C2.72 92 -2.56 92 -8 92 C-9.4783226 89.04335481 -9.06032783 86.25770263 -9 83 C-9.96486328 83.68835938 -9.96486328 83.68835938 -10.94921875 84.390625 C-22.54943127 92.26751681 -33.93655115 95.5296537 -48 94 C-55.40107731 92.2411325 -62.09499168 88.50807694 -66.28125 82.01171875 C-70.59698957 73.82722692 -71.45044499 64.32854901 -69 55.375 C-66.23478837 48.19831122 -60.9383893 42.73519042 -54.25 39.0625 C-40.38839364 32.98358613 -24.38717555 34.518065 -10 38 C-10.25562253 34.93553699 -10.52886758 31.87439017 -10.8125 28.8125 C-10.88275391 27.94818359 -10.95300781 27.08386719 -11.02539062 26.19335938 C-11.48050856 21.44192813 -11.94589584 17.86298818 -15 14 C-22.71204313 8.46314852 -32.5271357 9.04864629 -41.59130859 10.38085938 C-48.78563071 11.65511126 -55.9129493 13.22823733 -63 15 C-63 10.05 -63 5.1 -63 0 C-44.95381061 -8.44095955 -17.13119238 -12.19859044 0 0 Z M-47 54.5625 C-50.92246376 59.34300271 -50.48588557 64.00451908 -50 70 C-48.42088796 73.78986889 -46.46675336 75.83327915 -43 78 C-34.2891695 80.90361017 -26.21230484 78.31867113 -18 75 C-17.16210938 74.75378906 -16.32421875 74.50757812 -15.4609375 74.25390625 C-12.68399644 73.14999858 -11.60502662 72.55974073 -10 70 C-9.02368845 64.05589961 -9.55339219 57.97337951 -10 52 C-21.32121914 47.29557448 -37.21530268 46.20473771 -47 54.5625 Z " fill="#232F3E" transform="translate(602,30)"/>
<path d="M0 0 C6.6 0 13.2 0 20 0 C20.01458252 2.07337646 20.02916504 4.14675293 20.04418945 6.28295898 C20.09469635 13.16021668 20.16131909 20.03725178 20.23571491 26.91429043 C20.28029928 31.08077977 20.31958108 35.24717403 20.34643555 39.41381836 C20.37258841 43.44053293 20.41307379 47.4668792 20.46318626 51.49336433 C20.47977445 53.02376765 20.49133856 54.55423454 20.49761391 56.08471489 C20.53413861 64.17930242 20.64011815 71.50071099 24 79 C26.14491311 80.69187191 26.14491311 80.69187191 29 81 C30.134375 81.268125 31.26875 81.53625 32.4375 81.8125 C42.82149515 82.89212142 51.96389219 78.5180539 61 74 C61.33 49.58 61.66 25.16 62 0 C68.6 0 75.2 0 82 0 C82 31.68 82 63.36 82 96 C76.39 96 70.78 96 65 96 C64.34 93.03 63.68 90.06 63 87 C62.09121094 87.58007812 62.09121094 87.58007812 61.1640625 88.171875 C47.41207475 96.71926431 35.10449439 99.55256293 19 98 C12.28880512 96.19164087 7.79309348 92.74711133 4 87 C0.57509129 80.15018259 -0.12647425 74.11391258 -0.11352539 66.52587891 C-0.11367142 65.80323853 -0.11381744 65.08059814 -0.1139679 64.33605957 C-0.11327561 61.96619584 -0.10551546 59.59641237 -0.09765625 57.2265625 C-0.09578964 55.57604007 -0.09436688 53.92551708 -0.09336853 52.2749939 C-0.0895625 47.94478813 -0.07974866 43.61461626 -0.06866455 39.28442383 C-0.05840917 34.86019346 -0.05386209 30.43595759 -0.04882812 26.01171875 C-0.03812458 17.3411286 -0.02054338 8.67057243 0 0 Z " fill="#232F3E" transform="translate(767,26)"/>
<path d="M0 0 C2 2 2 2 2.1953125 5.0390625 C2.17210937 6.22242188 2.14890625 7.40578125 2.125 8.625 C2.10695313 9.81351563 2.08890625 11.00203125 2.0703125 12.2265625 C2.04710937 13.14179687 2.02390625 14.05703125 2 15 C-1.71668825 16.38173352 -3.83126279 15.57549763 -7.4375 14.125 C-17.03417865 10.30768415 -29.85249785 8.80300861 -39.875 12.25 C-43.82001467 14.3478666 -43.82001467 14.3478666 -46 18 C-46.51575613 21.12384111 -46.78931139 23.92064702 -46 27 C-42.55484476 31.31291991 -38.86579532 33.21062802 -33.75 34.9375 C-32.7125061 35.3097168 -32.7125061 35.3097168 -31.65405273 35.68945312 C-27.94879012 37.01124511 -24.2208884 38.2618616 -20.48828125 39.50390625 C-0.27208261 46.28767229 -0.27208261 46.28767229 5.0703125 55.99609375 C8.94455248 64.34687153 8.86149939 71.97582509 6.03515625 80.546875 C2.56943987 88.7599689 -3.67673319 94.41853628 -11.59375 98.2578125 C-26.66104284 103.9278727 -46.0988764 102.75442675 -61 97 C-66.21450151 93.78549849 -66.21450151 93.78549849 -68 92 C-68.07258946 89.81360547 -68.08373783 87.62499611 -68.0625 85.4375 C-68.05347656 84.23996094 -68.04445312 83.04242188 -68.03515625 81.80859375 C-68.02355469 80.88175781 -68.01195312 79.95492187 -68 79 C-63.34174334 77.51579538 -59.96346127 78.725188 -55.5625 80.375 C-44.39271703 84.4530351 -31.0966741 86.56158183 -19.73828125 81.8984375 C-17.07653002 80.52270091 -15.62173178 79.56774198 -14 77 C-12.85515364 72.73284539 -12.32870583 69.44767911 -14.22265625 65.36328125 C-19.61960912 58.18711315 -32.02318654 56.23016741 -40.29833984 53.67431641 C-50.87393573 50.31626365 -59.26783026 45.91501701 -65.09765625 36.1640625 C-68.1480265 29.43906017 -68.30316319 21.17012222 -66.12109375 14.1875 C-61.38423467 3.93212193 -54.1846789 -1.2141041 -43.9375 -5.1875 C-30.22867941 -8.97930144 -12.38838667 -7.46324758 0 0 Z " fill="#232F3E" transform="translate(322,23)"/>
<path d="M0 0 C0 4.62 0 9.24 0 14 C-6.28992461 13.17957505 -6.28992461 13.17957505 -9.0234375 12.48828125 C-14.92829253 11.02760659 -20.69508832 10.75276183 -26.75 10.6875 C-27.97444824 10.66127563 -27.97444824 10.66127563 -29.22363281 10.63452148 C-34.19425708 10.63909942 -37.76129477 11.12002083 -42 14 C-44.47680964 17.4604569 -44.42101006 20.61595992 -43.75634766 24.70605469 C-42.61285746 28.17417407 -40.63923733 28.95260441 -37.57666016 30.72094727 C-31.30633173 33.83353497 -24.65422261 36.14329726 -18.0859375 38.54296875 C-9.19902847 41.98017011 -0.13713564 46.78606252 4.125 55.8125 C6.34893162 63.86025254 5.79530862 72.18611471 2.31640625 79.75 C-1.92424912 86.99812312 -8.28399002 90.9979511 -16 94 C-31.46591591 97.61812831 -49.78451972 96.10774014 -64 89 C-64 84.05 -64 79.1 -64 74 C-62.5253125 74.3609375 -61.050625 74.721875 -59.53125 75.09375 C-38.53284232 80.51483063 -38.53284232 80.51483063 -18 76 C-15.35095253 72.94340677 -14.15157139 70.92837475 -13.5 66.9375 C-14.17192111 62.98996345 -15.00518419 61.71622829 -18 59 C-23.03453672 56.14546656 -28.4967029 54.18812636 -33.88671875 52.1171875 C-34.758125 51.77856689 -35.62953125 51.43994629 -36.52734375 51.09106445 C-38.2608261 50.4208037 -39.99897851 49.76246079 -41.7421875 49.11791992 C-48.88372026 46.36907445 -56.05932177 42.72697436 -59.9375 35.8125 C-60.31777344 35.15894531 -60.69804687 34.50539062 -61.08984375 33.83203125 C-64.31569654 27.33879108 -64.16308225 18.91692723 -62.12890625 12.06640625 C-58.0872295 3.36023698 -52.32701688 -0.8581799 -43.52734375 -4.23828125 C-29.33375201 -8.51610256 -13.28206784 -6.06355271 0 0 Z " fill="#232F3E" transform="translate(449,29)"/>
<path d="M0 0 C0 4.62 0 9.24 0 14 C-10.80423814 12.04742684 -10.80423814 12.04742684 -13.2734375 11.44921875 C-17.32549743 10.78161575 -21.33733931 10.77525118 -25.4375 10.75 C-26.27087891 10.729375 -27.10425781 10.70875 -27.96289062 10.6875 C-33.06345748 10.65524345 -36.60454099 11.11951372 -41 14 C-43.60794641 17.58592631 -44.10913108 19.20879967 -43.5 23.625 C-41.43158902 28.27892472 -38.66362963 30.21574944 -34.09667969 32.36865234 C-32.52515137 32.9712085 -32.52515137 32.9712085 -30.921875 33.5859375 C-29.76042969 34.04226562 -28.59898437 34.49859375 -27.40234375 34.96875 C-24.98367479 35.90000222 -22.56441106 36.82971125 -20.14453125 37.7578125 C-10.58089194 41.51986288 -0.7116347 45.46836171 4.0703125 55.171875 C6.52993777 62.65409641 6.25216396 72.46140058 2.9375 79.625 C-1.86156718 87.63688807 -8.96029517 91.89892477 -17.79223633 94.53491211 C-22.44214975 95.5144637 -27.26679435 95.22790802 -32 95.25 C-33.61068359 95.2809375 -33.61068359 95.2809375 -35.25390625 95.3125 C-45.47442013 95.36169622 -54.76957663 93.40542933 -64 89 C-64 84.05 -64 79.1 -64 74 C-62.28103516 74.41572266 -62.28103516 74.41572266 -60.52734375 74.83984375 C-58.9974356 75.20589539 -57.46748543 75.57177147 -55.9375 75.9375 C-55.18533203 76.11990234 -54.43316406 76.30230469 -53.65820312 76.49023438 C-42.10560792 79.24085228 -27.84534306 82.0483644 -17 76 C-13.92761284 72.63957655 -13.61787556 69.4360949 -13.40625 65.0625 C-14.39306952 61.6346006 -16.24899006 60.23781393 -19 58 C-22.16257921 56.40067561 -25.4276901 55.16370757 -28.75 53.9375 C-30.47461721 53.28167794 -32.19858077 52.62413434 -33.921875 51.96484375 C-34.76451904 51.64394775 -35.60716309 51.32305176 -36.4753418 50.99243164 C-46.34805825 47.11151177 -56.20002788 42.91305055 -61.04296875 32.828125 C-63.78926734 25.34994104 -63.87266809 18.72045345 -61.09765625 11.234375 C-57.48302984 3.87648779 -51.50343802 -0.94670644 -44 -4 C-29.88309731 -8.50138299 -13.15374732 -6.57687366 0 0 Z " fill="#232F3E" transform="translate(1031,29)"/>
<path d="M0 0 C1.4883163 0.00574353 2.97660671 0.01875734 4.46484375 0.03515625 C7.08421875 0.05578125 9.70359375 0.07640625 12.40234375 0.09765625 C12.40234375 8.67765625 12.40234375 17.25765625 12.40234375 26.09765625 C21.64234375 26.09765625 30.88234375 26.09765625 40.40234375 26.09765625 C40.40234375 31.37765625 40.40234375 36.65765625 40.40234375 42.09765625 C31.16234375 42.09765625 21.92234375 42.09765625 12.40234375 42.09765625 C12.49091474 49.58423604 12.58129909 57.07038712 12.68963623 64.55664062 C12.73955318 68.04292933 12.78604457 71.52918626 12.82421875 75.015625 C12.86819038 79.01712072 12.92782346 83.01825041 12.98828125 87.01953125 C12.99983246 88.26756531 13.01138367 89.51559937 13.02328491 90.80145264 C13.0431546 91.96235413 13.06302429 93.12325562 13.08349609 94.31933594 C13.09681976 95.34081726 13.11014343 96.36229858 13.12387085 97.41473389 C13.40850157 100.15698321 13.90148653 101.80072838 15.40234375 104.09765625 C22.70325557 108.09487395 32.4756809 106.31714284 40.40234375 105.09765625 C40.40234375 110.04765625 40.40234375 114.99765625 40.40234375 120.09765625 C28.37035198 123.70725378 15.58513344 125.48221894 3.6796875 120.43359375 C-1.48273158 117.40521069 -4.97054458 112.86650673 -6.59765625 107.09765625 C-7.38777294 103.01156573 -7.72010633 99.15939399 -7.71118164 95.00048828 C-7.71110611 93.8197171 -7.71103058 92.63894592 -7.71095276 91.4223938 C-7.70321083 89.5330159 -7.70321083 89.5330159 -7.6953125 87.60546875 C-7.69389755 86.30439178 -7.6924826 85.00331482 -7.69102478 83.66281128 C-7.68722469 80.22035772 -7.67741608 76.777947 -7.6663208 73.33551025 C-7.6560525 69.81612731 -7.65151559 66.29673738 -7.64648438 62.77734375 C-7.63579134 55.88409531 -7.61821511 48.99088226 -7.59765625 42.09765625 C-13.20765625 42.09765625 -18.81765625 42.09765625 -24.59765625 42.09765625 C-24.6953125 32.0390625 -24.6953125 32.0390625 -24.59765625 29.09765625 C-22.51624071 27.01624071 -18.41158672 27.36676864 -15.53515625 27.03515625 C-14.77654297 26.94427734 -14.01792969 26.85339844 -13.23632812 26.75976562 C-11.35722615 26.53521885 -9.4774953 26.31594647 -7.59765625 26.09765625 C-7.51201416 25.34556885 -7.42637207 24.59348145 -7.33813477 23.81860352 C-6.9499548 20.4319233 -6.55514641 17.04604864 -6.16015625 13.66015625 C-6.02544922 12.47615234 -5.89074219 11.29214844 -5.75195312 10.07226562 C-5.61982422 8.94755859 -5.48769531 7.82285156 -5.3515625 6.6640625 C-5.23111572 5.62193604 -5.11066895 4.57980957 -4.98657227 3.50610352 C-4.36617086 -0.33586753 -4.11236277 0.11162765 0 0 Z " fill="#232F3E" transform="translate(482.59765625,-0.09765625)"/>
<path d="M0 0 C5.28 0 10.56 0 16 0 C16 8.58 16 17.16 16 26 C25.24 26 34.48 26 44 26 C44 31.28 44 36.56 44 42 C34.76 42 25.52 42 16 42 C16.09705402 49.5625514 16.19986315 57.12457024 16.31738281 64.68676758 C16.35560724 67.25800843 16.3904714 69.82930156 16.421875 72.40063477 C16.46766698 76.10191501 16.52563923 79.80283736 16.5859375 83.50390625 C16.59748871 84.64896133 16.60903992 85.79401642 16.62094116 86.97377014 C16.72536438 92.65271555 16.91408059 97.68161437 19 103 C22.62528401 106.12371231 25.62811616 106.36220081 30.3125 106.25 C31.446875 106.22421875 32.58125 106.1984375 33.75 106.171875 C37.55179134 105.97081873 41.23997311 105.58980814 45 105 C45 109.95 45 114.9 45 120 C33.97541036 123.30737689 20.96811561 125.55286066 9.89453125 121.04296875 C4.194757 117.90515489 0.35678324 114.15382292 -2 108 C-2.92557136 104.22331478 -3.12156487 100.71583117 -3.11352539 96.83276367 C-3.11344986 95.61187546 -3.11337433 94.39098724 -3.11329651 93.13310242 C-3.10813522 91.82460831 -3.10297394 90.5161142 -3.09765625 89.16796875 C-3.09578961 87.80748039 -3.09436687 86.44699135 -3.09336853 85.08650208 C-3.08956275 81.51744713 -3.07974914 77.94843331 -3.06866455 74.37939453 C-3.05840863 70.73275305 -3.05386197 67.08610489 -3.04882812 63.43945312 C-3.03812503 56.29295038 -3.02054404 49.14648222 -3 42 C-8.61 42 -14.22 42 -20 42 C-20.09765625 31.94140625 -20.09765625 31.94140625 -20 29 C-17.93479652 26.93479652 -13.79503187 27.2671402 -10.9375 26.9375 C-7.0084375 26.4734375 -7.0084375 26.4734375 -3 26 C-2.01 17.42 -1.02 8.84 0 0 Z " fill="#232F3E" transform="translate(711,0)"/>
<path d="M0 0 C0 5.94 0 11.88 0 18 C-2.59875 17.938125 -5.1975 17.87625 -7.875 17.8125 C-14.64928384 17.75645562 -20.75006469 18.12202291 -27 21 C-28.77491821 21.52980469 -28.77491821 21.52980469 -30.58569336 22.0703125 C-32.57326048 23.090176 -32.57326048 23.090176 -34 25 C-35.11180034 30.27303035 -34.95473455 35.56007502 -34.90234375 40.921875 C-34.91172876 42.50801643 -34.92418651 44.09414242 -34.93959045 45.68023682 C-34.97183591 49.84969639 -34.96236773 54.01805687 -34.94421387 58.18756104 C-34.93306108 62.44417379 -34.96135422 66.70050427 -34.98632812 70.95703125 C-35.02949348 79.30500303 -35.02494688 87.65195357 -35 96 C-41.6 96 -48.2 96 -55 96 C-55 64.32 -55 32.64 -55 0 C-49.39 0 -43.78 0 -38 0 C-37.15271797 4.23641013 -36.91615922 7.72412002 -37 12 C-36.11699219 11.31292969 -35.23398437 10.62585937 -34.32421875 9.91796875 C-25.34014188 3.10063983 -11.71474455 -5.85737227 0 0 Z " fill="#232F3E" transform="translate(685,26)"/>
<path d="M0 0 C2.23828125 2.31640625 2.23828125 2.31640625 2.8671875 5.2421875 C2.47424748 25.28212858 -4.48610792 43.18754459 -17.94921875 58.00390625 C-20.76171875 60.31640625 -20.76171875 60.31640625 -23.63671875 60.69140625 C-24.68859375 60.50578125 -24.68859375 60.50578125 -25.76171875 60.31640625 C-26.24790638 54.61058159 -24.51484771 50.38367218 -22.44921875 45.19140625 C-16.56718096 30.67379849 -16.56718096 30.67379849 -15.76171875 15.31640625 C-19.70440032 11.61267508 -24.9842174 11.31724159 -30.19702148 11.31567383 C-32.95056855 11.40610858 -35.69839945 11.53926229 -38.44921875 11.69140625 C-39.90545654 11.76476196 -39.90545654 11.76476196 -41.39111328 11.83959961 C-48.19409612 12.1949284 -54.98193339 12.64414905 -61.76171875 13.31640625 C-62.09171875 11.66640625 -62.42171875 10.01640625 -62.76171875 8.31640625 C-48.87932451 -3.4861347 -16.63997761 -10.14403161 0 0 Z " fill="#232F3E" transform="translate(341.76171875,147.68359375)"/>
</svg>
