<?xml version="1.0" encoding="UTF-8"?>
<svg version="1.1" xmlns="http://www.w3.org/2000/svg" width="200" height="200">
<path d="M0 0 C66 0 132 0 200 0 C200 19.8 200 39.6 200 60 C134 60 68 60 0 60 C0 40.2 0 20.4 0 0 Z " fill="#020202" transform="translate(0,70)"/>
<path d="M0 0 C3.3 0 6.6 0 10 0 C10.33 2.31 10.66 4.62 11 7 C11.66 6.34 12.32 5.68 13 5 C16.125 4.875 16.125 4.875 19 5 C19 3.35 19 1.7 19 0 C21.475 0.495 21.475 0.495 24 1 C24 2.65 24 4.3 24 6 C24.66 5.67 25.32 5.34 26 5 C32.47058824 4.64705882 32.47058824 4.64705882 36 7 C36 6.34 36 5.68 36 5 C39.3 5 42.6 5 46 5 C46.495 6.485 46.495 6.485 47 8 C47.66 8 48.32 8 49 8 C49.495 9.485 49.495 9.485 50 11 C53.465 10.505 53.465 10.505 57 10 C57 9.34 57 8.68 57 8 C54.69 8.33 52.38 8.66 50 9 C50.33 7.68 50.66 6.36 51 5 C52.258125 4.95875 53.51625 4.9175 54.8125 4.875 C55.52019531 4.85179688 56.22789062 4.82859375 56.95703125 4.8046875 C59 5 59 5 62 7 C62.66 6.34 63.32 5.68 64 5 C68.23963281 4.68595313 71.36534398 4.67382015 75 7 C75.66 6.34 76.32 5.68 77 5 C83.09583333 4.44583333 83.09583333 4.44583333 85.9375 6.1875 C87.71726234 9.22356517 87.18524062 11.88855627 86.625 15.25 C86 17 86 17 84 18 C81.3276379 18.13415472 78.67749512 18.04318541 76 18 C74.23537317 14.91190305 74 13.76687864 74 10 C72.68 10 71.36 10 70 10 C70 9.34 70 8.68 70 8 C68.68 8.33 67.36 8.66 66 9 C66 10.65 66 12.3 66 14 C67.32 14 68.64 14 70 14 C70.99 14 71.98 14 73 14 C72.67 15.32 72.34 16.64 72 18 C65.9453125 18.1953125 65.9453125 18.1953125 64 18 C63.34 17.34 62.68 16.68 62 16 C61.67 16.66 61.34 17.32 61 18 C59.20866022 18.05391993 57.41686101 18.09275571 55.625 18.125 C54.62726563 18.14820312 53.62953125 18.17140625 52.6015625 18.1953125 C50 18 50 18 48 16 C47.34 16.66 46.68 17.32 46 18 C42.875 18.125 42.875 18.125 40 18 C40 19.98 40 21.96 40 24 C38.68 24 37.36 24 36 24 C36 21.69 36 19.38 36 17 C35.01 17.495 35.01 17.495 34 18 C30.5052764 18.2391169 27.00200511 18.18518692 23.5 18.1875 C22.52417969 18.19974609 21.54835938 18.21199219 20.54296875 18.22460938 C19.14498047 18.22750977 19.14498047 18.22750977 17.71875 18.23046875 C16.86216797 18.23457764 16.00558594 18.23868652 15.12304688 18.24291992 C13 18 13 18 11 16 C10.67 16.66 10.34 17.32 10 18 C6.7 18 3.4 18 0 18 C0 12.06 0 6.12 0 0 Z " fill="#F1F1F1" transform="translate(88,89)"/>
<path d="M0 0 C6.59292412 0.70804291 9.72233164 5.35170333 14 10 C14.56976563 10.59039062 15.13953125 11.18078125 15.7265625 11.7890625 C19.01493773 15.37137071 19.01493773 15.37137071 18.953125 17.97265625 C17.54684336 20.96388646 15.54055232 21.66339766 12.625 23.125 C9.61935357 24.65557985 6.81014716 26.12656856 4 28 C-0.76672506 27.70625224 -4.2566102 26.08883865 -8.375 23.75 C-9.43460938 23.16734375 -10.49421875 22.5846875 -11.5859375 21.984375 C-14 20 -14 20 -14.3515625 17.265625 C-14.17753906 16.14414063 -14.17753906 16.14414063 -14 15 C-9.48612327 15.42317594 -6.46511753 17.41300109 -2.76953125 19.84375 C-1.00312605 21.04630158 -1.00312605 21.04630158 1 22 C1.12213894 19.65851769 1.12213894 19.65851769 0 17 C-2.50803179 15.03811466 -5.19641043 13.50078257 -8 12 C-7.67 10.68 -7.34 9.36 -7 8 C-4.08482708 9.07401108 -2.22189824 9.77810176 0 12 C0 10.02 0 8.04 0 6 C-0.99 5.67 -1.98 5.34 -3 5 C-2.67 4.01 -2.34 3.02 -2 2 C-1.34 2 -0.68 2 0 2 C0 1.34 0 0.68 0 0 Z " fill="#F0F0F0" transform="translate(31,85)"/>
<path d="M0 0 C1.258125 -0.04125 2.51625 -0.0825 3.8125 -0.125 C4.52019531 -0.14820312 5.22789062 -0.17140625 5.95703125 -0.1953125 C8 0 8 0 11 2 C11.66 1.34 12.32 0.68 13 0 C17.23963281 -0.31404687 20.36534398 -0.32617985 24 2 C24.66 1.34 25.32 0.68 26 0 C32.09583333 -0.55416667 32.09583333 -0.55416667 34.9375 1.1875 C36.71726234 4.22356517 36.18524062 6.88855627 35.625 10.25 C35 12 35 12 33 13 C30.3276379 13.13415472 27.67749512 13.04318541 25 13 C23.23537317 9.91190305 23 8.76687864 23 5 C21.68 5 20.36 5 19 5 C19 4.34 19 3.68 19 3 C17.68 3.33 16.36 3.66 15 4 C15 5.65 15 7.3 15 9 C16.32 9 17.64 9 19 9 C19.99 9 20.98 9 22 9 C21.67 10.32 21.34 11.64 21 13 C14.9453125 13.1953125 14.9453125 13.1953125 13 13 C12.34 12.34 11.68 11.68 11 11 C10.67 11.66 10.34 12.32 10 13 C6.37 13 2.74 13 -1 13 C-1 11.68 -1 10.36 -1 9 C-0.34 9 0.32 9 1 9 C1 9.66 1 10.32 1 11 C2.98491642 10.73323796 2.98491642 10.73323796 5 10 C5.33 9.01 5.66 8.02 6 7 C5.01 6.67 4.02 6.34 3 6 C3.99 5.67 4.98 5.34 6 5 C6 4.34 6 3.68 6 3 C3.69 3.33 1.38 3.66 -1 4 C-0.67 2.68 -0.34 1.36 0 0 Z " fill="#E5E5E5" transform="translate(139,94)"/>
<path d="M0 0 C0.99 0 1.98 0 3 0 C3 1.32 3 2.64 3 4 C3.928125 3.95875 4.85625 3.9175 5.8125 3.875 C9 4 9 4 12 6 C12.33 5.34 12.66 4.68 13 4 C14.32 4 15.64 4 17 4 C17.33 7.3 17.66 10.6 18 14 C19.32 14.33 20.64 14.66 22 15 C22 11.37 22 7.74 22 4 C23.32 4 24.64 4 26 4 C26 8.29 26 12.58 26 17 C17.16071429 18.60714286 17.16071429 18.60714286 13.4375 16.0625 C12.633125 15.381875 11.82875 14.70125 11 14 C10.67 14.99 10.34 15.98 10 17 C6.7 17 3.4 17 0 17 C0 11.39 0 5.78 0 0 Z " fill="#C8C8C8" transform="translate(61,90)"/>
<path d="M0 0 C3.3 0 6.6 0 10 0 C10 2.97 10 5.94 10 9 C10.99 9 11.98 9 13 9 C13 10.65 13 12.3 13 14 C14.65614657 14.38218767 16.32457024 14.71395102 18 15 C18.33 14.67 18.66 14.34 19 14 C19 12.00387907 18.99741664 10.00763383 18.96875 8.01171875 C19.00191572 5.87667548 19.32452774 4.02641679 20 2 C20.66 2 21.32 2 22 2 C22 7.28 22 12.56 22 18 C15.1640625 18.1953125 15.1640625 18.1953125 13 18 C12.34 17.34 11.68 16.68 11 16 C10.67 16.66 10.34 17.32 10 18 C6.7 18 3.4 18 0 18 C0 12.06 0 6.12 0 0 Z " fill="#696969" transform="translate(88,89)"/>
<path d="M0 0 C66 0 132 0 200 0 C200 0.33 200 0.66 200 1 C134 1 68 1 0 1 C0 0.67 0 0.34 0 0 Z " fill="#000000" transform="translate(0,131)"/>
<path d="M0 0 C3.625 0.25 3.625 0.25 5.5625 1.4375 C7.34226234 4.47356517 6.81024062 7.13855627 6.25 10.5 C5.625 12.25 5.625 12.25 3.625 13.25 C0.9526379 13.38415472 -1.69750488 13.29318541 -4.375 13.25 C-6.13962683 10.16190305 -6.375 9.01687864 -6.375 5.25 C-7.695 4.92 -9.015 4.59 -10.375 4.25 C-9.715 3.92 -9.055 3.59 -8.375 3.25 C-8.045 2.59 -7.715 1.93 -7.375 1.25 C-6.385 1.25 -5.395 1.25 -4.375 1.25 C-3.375 0.25 -3.375 0.25 0 0 Z " fill="#E2E2E2" transform="translate(168.375,93.75)"/>
<path d="M0 0 C1.65 0.33 3.3 0.66 5 1 C5.66 4.3 6.32 7.6 7 11 C8.98 11.66 10.96 12.32 13 13 C13 13.99 13 14.98 13 16 C11.68 16 10.36 16 9 16 C9 15.34 9 14.68 9 14 C5.95865509 15.66924071 5.95865509 15.66924071 5 18 C4.34 18 3.68 18 3 18 C3 12.72 3 7.44 3 2 C2.34 2 1.68 2 1 2 C1 5.96 1 9.92 1 14 C-0.98 14.99 -0.98 14.99 -3 16 C-3.99 15.34 -4.98 14.68 -6 14 C-6.1875 11.375 -6.1875 11.375 -6 9 C-6.66 9 -7.32 9 -8 9 C-7.34 7.68 -6.68 6.36 -6 5 C-4.02 5 -2.04 5 0 5 C0 3.35 0 1.7 0 0 Z " fill="#C9C9C9" transform="translate(107,89)"/>
<path d="M0 0 C0.99 0 1.98 0 3 0 C3.33 3.3 3.66 6.6 4 10 C5.32 10.33 6.64 10.66 8 11 C8 7.37 8 3.74 8 0 C9.32 0 10.64 0 12 0 C12 4.29 12 8.58 12 13 C10.576875 13.20625 9.15375 13.4125 7.6875 13.625 C6.88699219 13.74101563 6.08648437 13.85703125 5.26171875 13.9765625 C3 14 3 14 0 12 C-0.29296875 9.1796875 -0.29296875 9.1796875 -0.1875 5.875 C-0.16042969 4.77929688 -0.13335937 3.68359375 -0.10546875 2.5546875 C-0.07066406 1.71164063 -0.03585938 0.86859375 0 0 Z " fill="#DBDBDB" transform="translate(75,94)"/>
<path d="M0 0 C0.99 0 1.98 0 3 0 C3 1.65 3 3.3 3 5 C4.65 5 6.3 5 8 5 C7.34 5.391875 6.68 5.78375 6 6.1875 C3.70833333 7.85416667 3.70833333 7.85416667 3.75 10.6875 C3.8325 11.450625 3.915 12.21375 4 13 C5.32 13 6.64 13 8 13 C8.66 13 9.32 13 10 13 C10.33 11.68 10.66 10.36 11 9 C11.04241723 11.33294775 11.04092937 13.66702567 11 16 C10 17 10 17 7.71484375 17.09765625 C5.14322917 17.06510417 2.57161458 17.03255208 0 17 C0 11.39 0 5.78 0 0 Z " fill="#EEEEEE" transform="translate(61,90)"/>
<path d="M0 0 C1.134375 0.020625 2.26875 0.04125 3.4375 0.0625 C4.0975 1.3825 4.7575 2.7025 5.4375 4.0625 C3.05185923 3.48665568 0.77067216 2.84022405 -1.5625 2.0625 C-1.5625 3.0525 -1.5625 4.0425 -1.5625 5.0625 C-0.593125 5.206875 0.37625 5.35125 1.375 5.5 C4.4375 6.0625 4.4375 6.0625 5.4375 7.0625 C5.5625 9.5625 5.5625 9.5625 5.4375 12.0625 C3.54621658 13.95378342 0.86682274 13.2991852 -1.65234375 13.390625 C-2.28269531 13.28234375 -2.91304688 13.1740625 -3.5625 13.0625 C-4.2225 12.0725 -4.8825 11.0825 -5.5625 10.0625 C-4.2425 9.7325 -2.9225 9.4025 -1.5625 9.0625 C-1.5625 9.7225 -1.5625 10.3825 -1.5625 11.0625 C-0.2425 11.0625 1.0775 11.0625 2.4375 11.0625 C2.4375 10.0725 2.4375 9.0825 2.4375 8.0625 C1.468125 7.918125 0.49875 7.77375 -0.5 7.625 C-3.5625 7.0625 -3.5625 7.0625 -4.5625 6.0625 C-4.6875 3.5625 -4.6875 3.5625 -4.5625 1.0625 C-3.5625 0.0625 -3.5625 0.0625 0 0 Z " fill="#EBEBEB" transform="translate(117.5625,93.9375)"/>
<path d="M0 0 C0.66 0 1.32 0 2 0 C2 5.28 2 10.56 2 16 C-4.8359375 16.1953125 -4.8359375 16.1953125 -7 16 C-9 14 -9 14 -9.125 10.375 C-9.08375 9.26125 -9.0425 8.1475 -9 7 C-8.34 7 -7.68 7 -7 7 C-7 8.65 -7 10.3 -7 12 C-5.34385343 12.38218767 -3.67542976 12.71395102 -2 13 C-1.67 12.67 -1.34 12.34 -1 12 C-1 10.00387907 -1.00258336 8.00763383 -1.03125 6.01171875 C-0.99808428 3.87667548 -0.67547226 2.02641679 0 0 Z " fill="#EDEDED" transform="translate(108,91)"/>
<path d="M0 0 C1.32 0 2.64 0 4 0 C4 0.66 4 1.32 4 2 C5.32 2 6.64 2 8 2 C8.33 3.98 8.66 5.96 9 8 C8.01 8.495 8.01 8.495 7 9 C7 8.01 7 7.02 7 6 C5.02 6.66 3.04 7.32 1 8 C-1 6 -1 6 -1.1875 3.4375 C-1 1 -1 1 0 0 Z " fill="#2D2D2D" transform="translate(154,97)"/>
<path d="M0 0 C0.66 0.33 1.32 0.66 2 1 C2 4.3 2 7.6 2 11 C-1.3 11 -4.6 11 -8 11 C-8 9.68 -8 8.36 -8 7 C-7.34 7 -6.68 7 -6 7 C-6 7.66 -6 8.32 -6 9 C-4.01508358 8.73323796 -4.01508358 8.73323796 -2 8 C-1.67 7.01 -1.34 6.02 -1 5 C-1.99 4.67 -2.98 4.34 -4 4 C-2.68 3.67 -1.36 3.34 0 3 C0 2.01 0 1.02 0 0 Z " fill="#FCFCFC" transform="translate(146,96)"/>
<path d="M0 0 C1.32 0 2.64 0 4 0 C4 4.29 4 8.58 4 13 C2.68 13 1.36 13 0 13 C0 8.71 0 4.42 0 0 Z " fill="#CECECE" transform="translate(88,94)"/>
<path d="M0 0 C0.33 0.66 0.66 1.32 1 2 C3.31 2 5.62 2 8 2 C8 1.34 8 0.68 8 0 C8.66 0 9.32 0 10 0 C10 0.99 10 1.98 10 3 C7.03 3 4.06 3 1 3 C1 3.99 1 4.98 1 6 C3.97 6 6.94 6 10 6 C10 6.66 10 7.32 10 8 C6.74696956 9.62651522 3.60774398 9.11453156 0 9 C-1 8 -1 8 -1.125 4.5 C-1 1 -1 1 0 0 Z " fill="#ECECEC" transform="translate(164,98)"/>
<path d="M0 0 C0.99 0 1.98 0 3 0 C3 5.61 3 11.22 3 17 C2.01 17 1.02 17 0 17 C0 11.39 0 5.78 0 0 Z " fill="#E8E8E8" transform="translate(94,90)"/>
<path d="M0 0 C0.33 0 0.66 0 1 0 C1 6.27 1 12.54 1 19 C0.67 19 0.34 19 0 19 C-0.66 15.04 -1.32 11.08 -2 7 C-3.98 6.34 -5.96 5.68 -8 5 C-8 4.01 -8 3.02 -8 2 C-5.61435923 2.57584432 -3.33317216 3.22227595 -1 4 C-0.67 2.68 -0.34 1.36 0 0 Z " fill="#9C9C9C" transform="translate(124,94)"/>
<path d="M0 0 C7.31205212 -0.47947883 7.31205212 -0.47947883 10.0625 1.4375 C11.49929765 5.36474692 10.71837729 8.94939073 10 13 C9.67 13 9.34 13 9 13 C8.67 9.7 8.34 6.4 8 3 C7.34 3.66 6.68 4.32 6 5 C6 4.34 6 3.68 6 3 C3.69 3.33 1.38 3.66 -1 4 C-0.67 2.68 -0.34 1.36 0 0 Z " fill="#CCCCCC" transform="translate(139,94)"/>
<path d="M0 0 C0.33 0 0.66 0 1 0 C1.66 3.3 2.32 6.6 3 10 C4.98 10.66 6.96 11.32 9 12 C9 12.99 9 13.98 9 15 C7.68 15 6.36 15 5 15 C5 14.34 5 13.68 5 13 C2.03268602 14.83656989 2.03268602 14.83656989 0 17 C0 11.39 0 5.78 0 0 Z " fill="#5A5A5A" transform="translate(111,90)"/>
<path d="M0 0 C1.67542976 0.28604898 3.34385343 0.61781233 5 1 C5 3.31 5 5.62 5 8 C0.125 7.125 0.125 7.125 -1 6 C-1.125 3.5 -1.125 3.5 -1 1 C-0.67 0.67 -0.34 0.34 0 0 Z " fill="#323232" transform="translate(128,97)"/>
<path d="M0 0 C1.32 0.66 2.64 1.32 4 2 C4 3.65 4 5.3 4 7 C2.02 7.99 2.02 7.99 0 9 C-2 7 -2 7 -2.25 4.5 C-2 2 -2 2 0 0 Z " fill="#292929" transform="translate(104,96)"/>
<path d="M0 0 C0.99 1.485 0.99 1.485 2 3 C3.175625 2.690625 3.175625 2.690625 4.375 2.375 C5.674375 2.189375 5.674375 2.189375 7 2 C7.66 2.66 8.32 3.32 9 4 C8.625 6.125 8.625 6.125 8 8 C6.68 8 5.36 8 4 8 C4 7.34 4 6.68 4 6 C3.34 6 2.68 6 2 6 C1.67 6.99 1.34 7.98 1 9 C-0.4783226 6.04335481 -0.06032783 3.25770263 0 0 Z " fill="#9D9D9D" transform="translate(136,97)"/>
<path d="M0 0 C1.67542976 0.28604898 3.34385343 0.61781233 5 1 C5 2.65 5 4.3 5 6 C3.02 6.99 3.02 6.99 1 8 C-1 6 -1 6 -1.1875 3.4375 C-1 1 -1 1 0 0 Z " fill="#232323" transform="translate(65,97)"/>
<path d="M0 0 C0.66 0 1.32 0 2 0 C2 5.28 2 10.56 2 16 C1.01 15.34 0.02 14.68 -1 14 C-1.328125 11.7578125 -1.328125 11.7578125 -1.25 9.125 C-1.23453125 8.26132813 -1.2190625 7.39765625 -1.203125 6.5078125 C-1.01800762 4.2223248 -0.63384533 2.19801203 0 0 Z " fill="#F7F7F7" transform="translate(108,91)"/>
<path d="M0 0 C0.33 0 0.66 0 1 0 C1.125 4.75 1.125 4.75 0 7 C-6.42857143 8.28571429 -6.42857143 8.28571429 -9 7 C-9 6.01 -9 5.02 -9 4 C-6.03 4 -3.06 4 0 4 C0 2.68 0 1.36 0 0 Z " fill="#6A6A6A" transform="translate(174,97)"/>
<path d="M0 0 C7.42857143 1 7.42857143 1 11 2 C11 2.66 11 3.32 11 4 C8.69 4 6.38 4 4 4 C3.34 5.32 2.68 6.64 2 8 C2 6.68 2 5.36 2 4 C0.68 3.67 -0.64 3.34 -2 3 C-1.34 2.67 -0.68 2.34 0 2 C0 1.34 0 0.68 0 0 Z " fill="#989898" transform="translate(160,95)"/>
<path d="M0 0 C0.99 0.33 1.98 0.66 3 1 C3.1953125 7.0546875 3.1953125 7.0546875 3 9 C1 11 1 11 -1.625 11.125 C-2.40875 11.08375 -3.1925 11.0425 -4 11 C-4 10.34 -4 9.68 -4 9 C-2.68 9 -1.36 9 0 9 C0 6.03 0 3.06 0 0 Z " fill="#F8F8F8" transform="translate(133,96)"/>
<path d="M0 0 C2.97 0 5.94 0 9 0 C9 3 9 6 9 9 C8.67 9 8.34 9 8 9 C7.67 7.35 7.34 5.7 7 4 C5.68 3.67 4.36 3.34 3 3 C3 2.34 3 1.68 3 1 C2.01 0.67 1.02 0.34 0 0 Z " fill="#D1D1D1" transform="translate(125,94)"/>
<path d="M0 0 C0.144375 0.61875 0.28875 1.2375 0.4375 1.875 C0.93152225 4.03258322 0.93152225 4.03258322 2 6 C-0.97 6 -3.94 6 -7 6 C-7 4.68 -7 3.36 -7 2 C-6.34 2 -5.68 2 -5 2 C-5 2.66 -5 3.32 -5 4 C-3.01508358 3.73323796 -3.01508358 3.73323796 -1 3 C-0.67 2.01 -0.34 1.02 0 0 Z " fill="#E6E6E6" transform="translate(145,101)"/>
<path d="M0 0 C-0.33 1.32 -0.66 2.64 -1 4 C-3.64 4 -6.28 4 -9 4 C-9 3.34 -9 2.68 -9 2 C-3.375 0 -3.375 0 0 0 Z " fill="#EBEBEB" transform="translate(161,103)"/>
<path d="M0 0 C2.64 0.66 5.28 1.32 8 2 C8 2.99 8 3.98 8 5 C6.68 5 5.36 5 4 5 C4 4.34 4 3.68 4 3 C2.68 3 1.36 3 0 3 C0 2.01 0 1.02 0 0 Z " fill="#3C3C3C" transform="translate(112,100)"/>
<path d="M0 0 C2.66666667 0.66666667 5.33333333 1.33333333 8 2 C8 2.99 8 3.98 8 5 C5.36 4.34 2.72 3.68 0 3 C0 2.01 0 1.02 0 0 Z " fill="#494949" transform="translate(116,96)"/>
<path d="M0 0 C0.33 0.66 0.66 1.32 1 2 C3.31 2 5.62 2 8 2 C8 1.34 8 0.68 8 0 C8.66 0 9.32 0 10 0 C10 0.99 10 1.98 10 3 C6.37 3.33 2.74 3.66 -1 4 C-0.67 2.68 -0.34 1.36 0 0 Z " fill="#FCFCFC" transform="translate(164,98)"/>
<path d="M0 0 C1.134375 0.020625 2.26875 0.04125 3.4375 0.0625 C4.0975 1.3825 4.7575 2.7025 5.4375 4.0625 C4.10416667 3.72916667 2.77083333 3.39583333 1.4375 3.0625 C0.385625 2.815 0.385625 2.815 -0.6875 2.5625 C-2.5625 2.0625 -2.5625 2.0625 -4.5625 1.0625 C-3.5625 0.0625 -3.5625 0.0625 0 0 Z " fill="#D9D9D9" transform="translate(117.5625,93.9375)"/>
<path d="M0 0 C1.65 0 3.3 0 5 0 C5.66 1.32 6.32 2.64 7 4 C4.61435923 3.42415568 2.33317216 2.77772405 0 2 C0 1.34 0 0.68 0 0 Z " fill="#F1F1F1" transform="translate(154,94)"/>
<path d="M0 0 C0.66 0 1.32 0 2 0 C2 0.66 2 1.32 2 2 C2.99 2.33 3.98 2.66 5 3 C2.625 4.0625 2.625 4.0625 0 5 C-0.66 4.67 -1.32 4.34 -2 4 C-1.34 2.68 -0.68 1.36 0 0 Z " fill="#CFCFCF" transform="translate(152,94)"/>
</svg>
