<?xml version="1.0" encoding="UTF-8"?>
<svg version="1.1" xmlns="http://www.w3.org/2000/svg" width="433" height="116">
<path d="M0 0 C0.99 0 1.98 0 3 0 C4.32421875 1.65234375 4.32421875 1.65234375 5.6875 3.9375 C7.83293883 7.35960737 10.0471692 10.18466826 12.875 13.0625 C23.67690371 24.88032172 29.47055129 42.30937269 29.20703125 58.14453125 C28.10245005 73.37941538 22.27922547 87.5054163 11 98 C10.01 98.66 9.02 99.32 8 100 C6.97327999 103.33227362 6.97327999 103.33227362 6.3125 107.125 C6.06113281 108.40632813 5.80976563 109.68765625 5.55078125 111.0078125 C5.36902344 111.99523437 5.18726562 112.98265625 5 114 C3.35 114 1.7 114 0 114 C-0.07734375 112.71416016 -0.07734375 112.71416016 -0.15625 111.40234375 C-0.64425441 104.77538028 -0.64425441 104.77538028 -3.59765625 99.03515625 C-4.95390045 97.97550621 -6.32622566 96.9362316 -7.7109375 95.9140625 C-17.3540626 87.85069851 -23.40722115 74.200686 -25 62 C-26.38300173 42.239033 -20.72634301 25.02837775 -8 10 C-6.15422202 8.06502086 -4.29013667 6.20144378 -2.3125 4.40234375 C-0.74108403 2.91889435 -0.74108403 2.91889435 0 0 Z " fill="#10A94F" transform="translate(26,1)"/>
<path d="M0 0 C11.66357783 5.53395703 18.42358417 20.6692355 23 32 C27.82686803 45.85672318 25.67631057 61.27199339 19.9375 74.4375 C16.86039092 80.59171817 11.43359392 89.47904154 4.72265625 91.78125 C3.86994141 91.88953125 3.86994141 91.88953125 3 92 C-2.21317781 82.72342145 -0.13124752 69.46192328 -0.09765625 59.08203125 C-0.09578737 57.37139426 -0.09436569 55.66075674 -0.09336853 53.95011902 C-0.08958037 49.48353556 -0.0797824 45.01698547 -0.06866455 40.55041504 C-0.05837015 35.97827607 -0.05385383 31.40613163 -0.04882812 26.83398438 C-0.03815621 17.88930839 -0.02112515 8.94465699 0 0 Z " fill="#12924F" transform="translate(28,7)"/>
<path d="M0 0 C1.16444641 -0.01210762 1.16444641 -0.01210762 2.35241699 -0.02445984 C4.00347651 -0.03832482 5.65456498 -0.04903612 7.30566406 -0.05688477 C9.80591412 -0.07396035 12.30479375 -0.11780433 14.8046875 -0.16210938 C24.35974197 -0.25664142 31.82973297 -0.04209129 39.6484375 6.02734375 C45.68672325 13.08703107 47.69981239 19.57978205 47.28125 28.86328125 C46.4605881 36.21468421 44.60110787 41.39714965 39.15625 46.48828125 C30.48305484 53.30426117 21.19364617 54.42664844 10.46875 54.36328125 C9.67807129 54.36134766 8.88739258 54.35941406 8.07275391 54.35742188 C2.76483198 54.31804722 -2.39929787 54.01708897 -7.65625 53.23828125 C-7.32625 51.58828125 -6.99625 49.93828125 -6.65625 48.23828125 C-4.18125 47.74328125 -4.18125 47.74328125 -1.65625 47.23828125 C-1.65625 34.03828125 -1.65625 20.83828125 -1.65625 7.23828125 C-3.96625 6.90828125 -6.27625 6.57828125 -8.65625 6.23828125 C-8.698971 4.5721622 -8.69688832 2.9044524 -8.65625 1.23828125 C-6.66324765 -0.7547211 -2.7299484 0.02674311 0 0 Z M10.34375 6.23828125 C8.88972431 12.48225192 9.15950771 18.73468159 9.15625 25.11328125 C9.14400391 26.36753906 9.13175781 27.62179688 9.11914062 28.9140625 C8.99739297 37.79677116 8.99739297 37.79677116 11.34375 46.23828125 C16.32454383 47.89854586 20.64648629 47.8373155 25.53125 46.11328125 C30.46728973 42.8225881 33.49173591 38.83529727 35.34375 33.23828125 C36.21800979 25.86806788 35.88908936 19.30342448 31.34375 13.23828125 C27.68620253 9.11695255 23.7393136 7.2615778 18.34375 6.23828125 C15.65109855 6.10104594 13.04343836 6.14355534 10.34375 6.23828125 Z " fill="#1F2F3B" transform="translate(317.65625,37.76171875)"/>
<path d="M0 0 C4.44739413 -0.07449251 8.8944519 -0.12876257 13.34228516 -0.16479492 C14.85341727 -0.17982543 16.36450618 -0.20025564 17.87548828 -0.22631836 C20.05512187 -0.26295689 22.23417575 -0.27978338 24.4140625 -0.29296875 C25.7232666 -0.3086792 27.0324707 -0.32438965 28.38134766 -0.34057617 C33.70868673 0.16081622 36.88694816 1.71120314 40.375 5.75 C42.28625223 9.57250446 42.53751218 11.77669003 42 16 C40.625 18.75 40.625 18.75 39 21 C38.34 21.99 37.68 22.98 37 24 C37.763125 24.2475 38.52625 24.495 39.3125 24.75 C42.28607889 26.13305995 43.32123929 27.23004483 45 30 C46.53583799 34.60751397 46.51008225 38.43787312 45 43.0625 C41.1333442 48.7416507 36.24457271 52.10542427 29.50854492 53.64257812 C24.04036357 54.42169418 18.51001451 54.20063906 13 54.125 C11.74832031 54.11597656 10.49664062 54.10695312 9.20703125 54.09765625 C6.1378199 54.07422716 3.06901244 54.04142147 0 54 C-0.57421875 52.109375 -0.57421875 52.109375 -1 50 C0.1875 48.25 0.1875 48.25 2 47 C3.32 47 4.64 47 6 47 C6 34.13 6 21.26 6 8 C3.69 7.01 1.38 6.02 -1 5 C-0.67 3.35 -0.34 1.7 0 0 Z M18 6 C16.64139107 7.13312756 16.64139107 7.13312756 16.8671875 10.125 C16.86976563 11.40375 16.87234375 12.6825 16.875 14 C16.87242187 15.27875 16.86984375 16.5575 16.8671875 17.875 C16.64139107 20.86687244 16.64139107 20.86687244 18 22 C21.66984195 22.28229553 24.40703065 22.21914085 27.875 20.9375 C30.28658531 19.05519792 30.28658531 19.05519792 31.125 15.625 C31.31792832 11.92383621 31.31792832 11.92383621 29.0625 9.125 C25.11926952 6.38888089 22.75844575 6.15861486 18 6 Z M17 28 C16.91882049 30.41734542 16.85943074 32.83194949 16.8125 35.25 C16.78736328 35.93191406 16.76222656 36.61382812 16.73632812 37.31640625 C16.69093561 40.43335876 16.82736465 42.66588421 18.26953125 45.45703125 C20.67374906 47.6007469 22.86926619 47.48750886 25.99609375 47.33203125 C28.840616 46.86071665 30.75145585 45.77158024 33 44 C34.60964787 40.78070427 34.60686242 37.48112288 34 34 C31.46546343 30.78045355 29.88702695 29.29567565 26 28 C24.43881572 27.93259135 22.8749748 27.91485544 21.3125 27.9375 C20.50425781 27.94652344 19.69601562 27.95554687 18.86328125 27.96484375 C18.24839844 27.97644531 17.63351562 27.98804687 17 28 Z " fill="#3E4C56" transform="translate(367,38)"/>
<path d="M0 0 C0.33 0.99 0.66 1.98 1 3 C1.825 2.505 2.65 2.01 3.5 1.5 C7.87611344 -0.37547719 10.27381721 -0.45737253 15 0 C17.25 1.5625 17.25 1.5625 19 3 C21.39102744 2.76861025 23.07973175 1.96234889 25.25 0.9375 C29.95945664 -0.66799658 34.17931142 -0.72827543 38.8125 1.125 C42.17254443 4.00503808 43.80472534 6.99299937 44.23901367 11.45654297 C44.29472884 14.26852039 44.26178732 17.06351059 44.1875 19.875 C44.16719727 21.33679688 44.16719727 21.33679688 44.14648438 22.828125 C44.11131962 25.21932863 44.0621067 27.60936975 44 30 C45.98 30.66 47.96 31.32 50 32 C49.67 33.65 49.34 35.3 49 37 C42.73 36.67 36.46 36.34 30 36 C30 34.35 30 32.7 30 31 C31.32 30.34 32.64 29.68 34 29 C34.08139142 26.60347472 34.14067009 24.20974564 34.1875 21.8125 C34.21263672 21.13896484 34.23777344 20.46542969 34.26367188 19.77148438 C34.32923478 15.29135252 33.66743649 12.60559001 31 9 C28.36 9.33 25.72 9.66 23 10 C22.67 16.6 22.34 23.2 22 30 C23.65 30.33 25.3 30.66 27 31 C27 32.98 27 34.96 27 37 C20.73 37 14.46 37 8 37 C7.505 34.525 7.505 34.525 7 32 C8.65 31.34 10.3 30.68 12 30 C12.05404449 27.24973583 12.09369306 24.50053797 12.125 21.75 C12.14175781 20.97269531 12.15851563 20.19539063 12.17578125 19.39453125 C12.25968301 13.91693064 12.25968301 13.91693064 10 9 C6.34618837 8.91695883 3.58779175 9.10305206 0 10 C0.33 16.6 0.66 23.2 1 30 C2.32 30.33 3.64 30.66 5 31 C5 32.98 5 34.96 5 37 C-1.27 37 -7.54 37 -14 37 C-14.33 35.35 -14.66 33.7 -15 32 C-14.18789062 31.7009375 -13.37578125 31.401875 -12.5390625 31.09375 C-9.8700981 29.31583447 -9.8700981 29.31583447 -9.50683594 27.01953125 C-9.3243945 24.49662677 -9.31863932 22.02871573 -9.375 19.5 C-9.35566406 18.63246094 -9.33632812 17.76492187 -9.31640625 16.87109375 C-9.33501927 14.46256921 -9.41337186 12.33721945 -10 10 C-12.43241663 8.11236901 -12.43241663 8.11236901 -15 7 C-15 5.68 -15 4.36 -15 3 C-13.25183142 2.49363393 -11.50137737 1.99515381 -9.75 1.5 C-8.77546875 1.2215625 -7.8009375 0.943125 -6.796875 0.65625 C-4 0 -4 0 0 0 Z " fill="#263541" transform="translate(84,55)"/>
<path d="M0 0 C0.86625 -0.00257812 1.7325 -0.00515625 2.625 -0.0078125 C5 0.125 5 0.125 8 1.125 C9.89470816 1.1935495 11.7916834 1.20980372 13.6875 1.1875 C14.68136719 1.17847656 15.67523438 1.16945312 16.69921875 1.16015625 C17.45847656 1.14855469 18.21773438 1.13695312 19 1.125 C19.125 6.875 19.125 6.875 18 9.125 C16.35 9.125 14.7 9.125 13 9.125 C13.061875 10.341875 13.12375 11.55875 13.1875 12.8125 C13.1665828 16.76585137 12.59622645 19.00952826 10 22.125 C5.85636295 25.42107493 2.06719188 26.76214152 -3 28.125 C-1.46279297 28.28935547 -1.46279297 28.28935547 0.10546875 28.45703125 C1.46621867 28.61656745 2.82689194 28.7767584 4.1875 28.9375 C4.86103516 29.00775391 5.53457031 29.07800781 6.22851562 29.15039062 C10.49007244 29.67009268 13.60258806 30.46048497 17 33.125 C19.45419931 36.71134483 19.26267036 39.64307774 18.65234375 43.8125 C17.23403666 48.84027123 14.17845836 51.85766966 9.73046875 54.4453125 C3.22549362 57.37511232 -3.44740873 58.68567092 -10.3359375 56.32421875 C-13.99954131 54.6114509 -15.70391484 53.56912773 -18 50.125 C-18.57772436 45.00801282 -18.57772436 45.00801282 -18 42.125 C-15.5 39.125 -15.5 39.125 -13 37.125 C-13.33 36.568125 -13.66 36.01125 -14 35.4375 C-15.1309601 32.82215478 -15.15662974 30.9443354 -15 28.125 C-13.68 27.795 -12.36 27.465 -11 27.125 C-11 26.465 -11 25.805 -11 25.125 C-11.61875 24.8775 -12.2375 24.63 -12.875 24.375 C-15.44127012 22.86542934 -15.89981278 21.85365816 -17 19.125 C-17.575489 14.9470993 -17.44504428 11.23761071 -15.875 7.3125 C-11.47091888 2.17440535 -6.64917882 -0.01978922 0 0 Z M-6.875 8.25 C-8.26330768 11.7978974 -8.15364001 13.51026131 -7 17.125 C-5.39450853 19.64811011 -5.39450853 19.64811011 -3 21.125 C-0.3566226 21.21305146 -0.3566226 21.21305146 2 20.125 C4.34168764 16.61246854 4.49623677 15.26030644 4 11.125 C2.45664971 8.17452447 2.45664971 8.17452447 0 6.125 C-3.53120185 5.26373126 -4.45766515 5.51035384 -6.875 8.25 Z M-7.5625 39.8125 C-9.2144736 42.03414547 -9.2144736 42.03414547 -9.0625 44.6875 C-7.60614574 48.02854802 -6.37344366 48.76126745 -3 50.125 C1.49017765 50.86882741 4.15839641 50.68606906 8 48.125 C8.66 47.465 9.32 46.805 10 46.125 C9.67 44.145 9.34 42.165 9 40.125 C3.46566655 37.91126662 -2.27939071 36.33337924 -7.5625 39.8125 Z " fill="#1F2F3B" transform="translate(242,54.875)"/>
<path d="M0 0 C2.9254644 0.2236068 2.9254644 0.2236068 5 -1 C9.79937735 -1.51816286 13.73409126 -1.71207367 18 0.6875 C21.32145821 4.52793606 22.2568848 8.06388858 22.1953125 13.08203125 C22.18886719 14.01337891 22.18242187 14.94472656 22.17578125 15.90429688 C22.15902344 16.86400391 22.14226562 17.82371094 22.125 18.8125 C22.11597656 19.79154297 22.10695312 20.77058594 22.09765625 21.77929688 C22.07417182 24.18645061 22.0413284 26.59309743 22 29 C23.98 29.33 25.96 29.66 28 30 C28.042721 31.66611905 28.04063832 33.33382885 28 35 C27 36 27 36 25.14233398 36.11352539 C23.95619507 36.10567017 23.95619507 36.10567017 22.74609375 36.09765625 C21.89208984 36.09443359 21.03808594 36.09121094 20.15820312 36.08789062 C19.26037109 36.07951172 18.36253906 36.07113281 17.4375 36.0625 C16.53580078 36.05798828 15.63410156 36.05347656 14.70507812 36.04882812 C12.46998686 36.03700225 10.23502563 36.0205222 8 36 C7.505 33.525 7.505 33.525 7 31 C8.32 30.34 9.64 29.68 11 29 C11.08086376 26.06195004 11.1404283 23.12611925 11.1875 20.1875 C11.21263672 19.35412109 11.23777344 18.52074219 11.26367188 17.66210938 C11.27333984 16.85966797 11.28300781 16.05722656 11.29296875 15.23046875 C11.3086792 14.49207764 11.32438965 13.75368652 11.34057617 12.99291992 C11.10534006 10.95072468 11.10534006 10.95072468 9.98168945 9.1730957 C7.22455023 7.26790251 7.22455023 7.26790251 0 9 C0.33 15.6 0.66 22.2 1 29 C2.32 29.33 3.64 29.66 5 30 C5 31.98 5 33.96 5 36 C-1.6 36 -8.2 36 -15 36 C-15 34.02 -15 32.04 -15 30 C-13.68 29.34 -12.36 28.68 -11 28 C-11 21.73 -11 15.46 -11 9 C-13.475 8.01 -13.475 8.01 -16 7 C-16 5.35 -16 3.7 -16 2 C-14.27507022 1.46530198 -12.544802 0.94780825 -10.8125 0.4375 C-9.36810547 0.00244141 -9.36810547 0.00244141 -7.89453125 -0.44140625 C-4.83606301 -1.03163696 -2.98503819 -0.75754751 0 0 Z " fill="#20313D" transform="translate(194,56)"/>
<path d="M0 0 C3.96325736 2.9258403 5.99468284 5.32172406 6.99609375 10.2578125 C7.85400204 16.60810275 7.66936072 22.12595748 4.5 27.8125 C0.82649597 32.117552 -3.7987487 34.53255875 -9.40234375 35.11328125 C-19.8913389 35.1537793 -19.8913389 35.1537793 -24.5 31.8125 C-28.99171575 27.32078425 -30.24642143 22.60186431 -30.8125 16.375 C-30.35007707 11.10337862 -29.54503059 6.81845357 -25.66015625 3.0078125 C-18.31239598 -2.71167315 -8.48458866 -5.01219219 0 0 Z M-17.3125 5.1875 C-20.40800308 8.9021037 -20.76585118 12.05063626 -20.5 16.8125 C-19.63404299 21.13468894 -18.15881295 24.06218525 -15.25 27.375 C-11.55285704 29.30759746 -9.46091497 28.93351367 -5.5 27.8125 C-3.08485125 24.18977687 -2.43343179 21.09505493 -2.5 16.8125 C-3.48782788 12.07245771 -4.6739706 7.97230537 -8.5 4.8125 C-12.19111926 3.60887416 -13.79598951 3.46831709 -17.3125 5.1875 Z " fill="#21323D" transform="translate(167.5,57.1875)"/>
<path d="M0 0 C3.7639454 2.91897807 6.04121105 5.82177764 7.8125 10.25 C8.58696983 16.83299358 8.42679144 22.53438996 5.0625 28.375 C1.49992979 32.31677937 -2.62341932 35.11485498 -7.92578125 35.7109375 C-19.54755972 35.84750364 -19.54755972 35.84750364 -24.9375 31.375 C-28.98099891 26.05460669 -30.03388993 21.02590527 -29.9375 14.375 C-29.02865357 9.33503341 -27.67130939 5.91733198 -23.9375 2.375 C-16.83472339 -2.15302009 -7.77855755 -3.96423276 0 0 Z M-16.625 6.4375 C-19.45194377 10.02848263 -19.9375 11.81522608 -19.9375 16.375 C-19.0495351 20.97839698 -17.75363069 24.42284753 -14.6875 28 C-11.90814266 29.61908301 -11.90814266 29.61908301 -8.3125 29.5625 C-4.70140919 28.67170327 -4.70140919 28.67170327 -2.9375 25.375 C-1.47767617 20.95925961 -1.73084145 16.82910876 -2.9375 12.375 C-4.98795481 8.61583284 -6.37647024 6.74901984 -9.9375 4.375 C-13.97324504 3.96912081 -13.97324504 3.96912081 -16.625 6.4375 Z " fill="#21313D" transform="translate(293.9375,56.625)"/>
<path d="M0 0 C5.28 0 10.56 0 16 0 C15.98428955 1.32241699 15.9685791 2.64483398 15.95239258 4.00732422 C15.89820218 8.90114277 15.86368966 13.79493467 15.83520508 18.68896484 C15.82009355 20.80945288 15.7996036 22.92990954 15.77368164 25.05029297 C15.73740214 28.09350311 15.72029758 31.13630103 15.70703125 34.1796875 C15.69154739 35.13181122 15.67606354 36.08393494 15.66011047 37.06491089 C15.65988388 37.94567291 15.65965729 38.82643494 15.65942383 39.73388672 C15.65276199 40.51110077 15.64610016 41.28831482 15.63923645 42.08908081 C15.75828842 42.71968414 15.87734039 43.35028748 16 44 C19.16240582 46.10827055 20.50657469 46.33817465 24.1875 46.625 C25.08855469 46.69976562 25.98960937 46.77453125 26.91796875 46.8515625 C27.60503906 46.90054688 28.29210937 46.94953125 29 47 C28.67 47.66 28.34 48.32 28 49 C28.66 49.66 29.32 50.32 30 51 C20.1 51 10.2 51 0 51 C0.33 50.01 0.66 49.02 1 48 C2.65 47.34 4.3 46.68 6 46 C6 32.8 6 19.6 6 6 C3.69 5.01 1.38 4.02 -1 3 C-0.67 2.01 -0.34 1.02 0 0 Z " fill="#1E2E3A" transform="translate(311,39)"/>
<path d="M0 0 C0.99 0 1.98 0 3 0 C4.32421875 1.65234375 4.32421875 1.65234375 5.6875 3.9375 C7.83293883 7.35960737 10.0471692 10.18466826 12.875 13.0625 C23.67690371 24.88032172 29.47055129 42.30937269 29.20703125 58.14453125 C28.10245005 73.37941538 22.27922547 87.5054163 11 98 C10.01 98.66 9.02 99.32 8 100 C6.97327999 103.33227362 6.97327999 103.33227362 6.3125 107.125 C6.06113281 108.40632813 5.80976563 109.68765625 5.55078125 111.0078125 C5.36902344 111.99523437 5.18726562 112.98265625 5 114 C3.35 114 1.7 114 0 114 C-0.07734375 112.71416016 -0.07734375 112.71416016 -0.15625 111.40234375 C-0.64425441 104.77538028 -0.64425441 104.77538028 -3.59765625 99.03515625 C-4.95390045 97.97550621 -6.32622566 96.9362316 -7.7109375 95.9140625 C-17.3540626 87.85069851 -23.40722115 74.200686 -25 62 C-26.38300173 42.239033 -20.72634301 25.02837775 -8 10 C-6.15422202 8.06502086 -4.29013667 6.20144378 -2.3125 4.40234375 C-0.74108403 2.91889435 -0.74108403 2.91889435 0 0 Z M1 2 C0.57203125 2.74121094 0.1440625 3.48242188 -0.296875 4.24609375 C-2.03458144 7.05591724 -3.81367668 8.85191992 -6.25 11.0625 C-17.22977279 21.89967834 -23.09675032 36.54272608 -23.43383789 51.86132812 C-23.45684385 68.43789051 -18.64791317 81.91169871 -7.015625 94.01171875 C-6.35046875 94.66785156 -5.6853125 95.32398437 -5 96 C-4.45859375 96.58394531 -3.9171875 97.16789062 -3.359375 97.76953125 C-2.05846574 99.22369355 -2.05846574 99.22369355 0 99 C0.66 96.03 1.32 93.06 2 90 C2.99 92.64 3.98 95.28 5 98 C11.85041444 96.28739639 15.51767276 91.07527007 19.1875 85.25 C26.71304793 72.09035202 30.0471601 55.87735303 26.09375 40.95703125 C24.90444564 37.52253373 23.56026454 34.28150875 22 31 C21.55398437 30.02675781 21.10796875 29.05351562 20.6484375 28.05078125 C17.6108909 21.96720328 13.78616674 17.28790761 9.12109375 12.37109375 C6.24510278 9.15612778 4.19427763 5.7028435 2 2 C1.67 2 1.34 2 1 2 Z " fill="#EFF6F2" transform="translate(26,1)"/>
<path d="M0 0 C1.08667969 0.01804688 2.17335938 0.03609375 3.29296875 0.0546875 C4.54013672 0.08949219 4.54013672 0.08949219 5.8125 0.125 C6.99079199 2.48158397 6.85664372 3.65073236 6.69140625 6.2578125 C6.64306641 7.06347656 6.59472656 7.86914062 6.54492188 8.69921875 C6.46081055 9.96185547 6.46081055 9.96185547 6.375 11.25 C6.32279297 12.09949219 6.27058594 12.94898438 6.21679688 13.82421875 C6.08698622 15.92479124 5.9503826 18.02494191 5.8125 20.125 C9.4425 20.125 13.0725 20.125 16.8125 20.125 C16.8125 20.455 16.8125 20.785 16.8125 21.125 C11.8625 21.62 11.8625 21.62 6.8125 22.125 C6.73168957 25.39632607 6.67209291 28.66566421 6.625 31.9375 C6.59986328 32.86626953 6.57472656 33.79503906 6.54882812 34.75195312 C6.53916016 35.64462891 6.52949219 36.53730469 6.51953125 37.45703125 C6.5038208 38.27921143 6.48811035 39.1013916 6.47192383 39.94848633 C6.89334087 42.64162822 7.65404825 43.50744905 9.8125 45.125 C12.32539675 45.48713568 12.32539675 45.48713568 15 45.3125 C15.90105469 45.28542969 16.80210937 45.25835937 17.73046875 45.23046875 C18.41753906 45.19566406 19.10460937 45.16085938 19.8125 45.125 C19.8125 45.785 19.8125 46.445 19.8125 47.125 C20.4725 47.455 21.1325 47.785 21.8125 48.125 C18.45514863 49.24411712 15.93044614 49.23865586 12.39453125 49.22265625 C11.14091797 49.21943359 9.88730469 49.21621094 8.59570312 49.21289062 C7.28537109 49.20451172 5.97503906 49.19613281 4.625 49.1875 C3.28971519 49.18248317 1.95442859 49.17792059 0.61914062 49.17382812 C-2.64978473 49.16202695 -5.91861991 49.14556297 -9.1875 49.125 C-9.1875 48.135 -9.1875 47.145 -9.1875 46.125 C-7.2075 45.465 -5.2275 44.805 -3.1875 44.125 C-3.1875 30.595 -3.1875 17.065 -3.1875 3.125 C-6.1575 2.63 -6.1575 2.63 -9.1875 2.125 C-5.66070901 -0.22619399 -4.15870515 -0.08943452 0 0 Z " fill="#1C2E39" transform="translate(377.1875,40.875)"/>
<path d="M0 0 C0.33 0.99 0.66 1.98 1 3 C1.825 2.505 2.65 2.01 3.5 1.5 C7.87611344 -0.37547719 10.27381721 -0.45737253 15 0 C17.25 1.5625 17.25 1.5625 19 3 C21.39102744 2.76861025 23.07973175 1.96234889 25.25 0.9375 C29.95945664 -0.66799658 34.17931142 -0.72827543 38.8125 1.125 C42.17254443 4.00503808 43.80472534 6.99299937 44.23901367 11.45654297 C44.29472884 14.26852039 44.26178732 17.06351059 44.1875 19.875 C44.16719727 21.33679688 44.16719727 21.33679688 44.14648438 22.828125 C44.11131962 25.21932863 44.0621067 27.60936975 44 30 C45.98 30.66 47.96 31.32 50 32 C49.67 33.65 49.34 35.3 49 37 C42.73 36.67 36.46 36.34 30 36 C30 34.35 30 32.7 30 31 C31.32 30.34 32.64 29.68 34 29 C34.08139142 26.60347472 34.14067009 24.20974564 34.1875 21.8125 C34.21263672 21.13896484 34.23777344 20.46542969 34.26367188 19.77148438 C34.32923478 15.29135252 33.66743649 12.60559001 31 9 C28.36 9.33 25.72 9.66 23 10 C22.67 16.6 22.34 23.2 22 30 C23.65 30.33 25.3 30.66 27 31 C27 32.98 27 34.96 27 37 C20.73 37 14.46 37 8 37 C7.505 34.525 7.505 34.525 7 32 C8.65 31.34 10.3 30.68 12 30 C12.05404449 27.24973583 12.09369306 24.50053797 12.125 21.75 C12.14175781 20.97269531 12.15851563 20.19539063 12.17578125 19.39453125 C12.25968301 13.91693064 12.25968301 13.91693064 10 9 C6.34618837 8.91695883 3.58779175 9.10305206 0 10 C0.33 16.6 0.66 23.2 1 30 C2.32 30.33 3.64 30.66 5 31 C5 32.98 5 34.96 5 37 C-1.27 37 -7.54 37 -14 37 C-14.33 35.35 -14.66 33.7 -15 32 C-14.18789062 31.7009375 -13.37578125 31.401875 -12.5390625 31.09375 C-9.8700981 29.31583447 -9.8700981 29.31583447 -9.50683594 27.01953125 C-9.3243945 24.49662677 -9.31863932 22.02871573 -9.375 19.5 C-9.35566406 18.63246094 -9.33632812 17.76492187 -9.31640625 16.87109375 C-9.33501927 14.46256921 -9.41337186 12.33721945 -10 10 C-12.43241663 8.11236901 -12.43241663 8.11236901 -15 7 C-15 5.68 -15 4.36 -15 3 C-13.25183142 2.49363393 -11.50137737 1.99515381 -9.75 1.5 C-8.77546875 1.2215625 -7.8009375 0.943125 -6.796875 0.65625 C-4 0 -4 0 0 0 Z M-9.75 3.5 C-10.94882813 3.91765625 -10.94882813 3.91765625 -12.171875 4.34375 C-12.77515625 4.5603125 -13.3784375 4.776875 -14 5 C-12.0745356 7.2236068 -12.0745356 7.2236068 -9 8 C-9 15.59 -9 23.18 -9 31 C-10.32 31.33 -11.64 31.66 -13 32 C-13 32.99 -13 33.98 -13 35 C-7.39 35 -1.78 35 4 35 C4 34.01 4 33.02 4 32 C2.68 31.67 1.36 31.34 0 31 C0 23.74 0 16.48 0 9 C4.00813284 6.99593358 5.66205267 6.53851624 10 7 C11.6652832 8.21411133 11.6652832 8.21411133 13 10 C13.34057617 12.26831055 13.34057617 12.26831055 13.29296875 14.88671875 C13.28330078 15.82451172 13.27363281 16.76230469 13.26367188 17.72851562 C13.23853516 18.70498047 13.21339844 19.68144531 13.1875 20.6875 C13.16719727 22.16959961 13.16719727 22.16959961 13.14648438 23.68164062 C13.11112203 26.12164231 13.06177033 28.56054719 13 31 C11.68 31.33 10.36 31.66 9 32 C9 32.99 9 33.98 9 35 C14.61 35 20.22 35 26 35 C26 34.01 26 33.02 26 32 C24.68 31.67 23.36 31.34 22 31 C21.97112488 27.35418313 21.95324415 23.70839537 21.9375 20.0625 C21.92912109 19.02158203 21.92074219 17.98066406 21.91210938 16.90820312 C21.90888672 15.91884766 21.90566406 14.92949219 21.90234375 13.91015625 C21.89710693 12.99371338 21.89187012 12.07727051 21.88647461 11.13305664 C22 9 22 9 23 8 C24.9609375 7.796875 24.9609375 7.796875 27.375 7.75 C28.16648438 7.72421875 28.95796875 7.6984375 29.7734375 7.671875 C32.5769531 8.08502467 33.27532748 8.78500634 35 11 C35.34057617 13.17651367 35.34057617 13.17651367 35.29296875 15.66796875 C35.2784668 17.00698242 35.2784668 17.00698242 35.26367188 18.37304688 C35.23853516 19.30181641 35.21339844 20.23058594 35.1875 21.1875 C35.16719727 22.59805664 35.16719727 22.59805664 35.14648438 24.03710938 C35.11113096 26.35865038 35.06178674 28.67903653 35 31 C33.68 31.33 32.36 31.66 31 32 C31 32.99 31 33.98 31 35 C36.61 35 42.22 35 48 35 C48 34.01 48 33.02 48 32 C46.68 31.67 45.36 31.34 44 31 C43.98541748 30.42556152 43.97083496 29.85112305 43.95581055 29.25927734 C43.88086275 26.63054304 43.78436006 24.00301448 43.6875 21.375 C43.65366211 20.01955078 43.65366211 20.01955078 43.61914062 18.63671875 C43.37124157 12.4617786 42.41493207 8.19285137 38.60546875 3.15625 C35.78888933 1.12776458 33.01269733 1.48354896 29.65234375 1.5625 C25.40608125 2.26291443 22.34314956 4.38524615 19 7 C18.566875 6.0409375 18.566875 6.0409375 18.125 5.0625 C17.17176549 2.84793921 17.17176549 2.84793921 15 2 C8.43804138 1.18476685 4.42484731 2.30648694 -1 6 C-1 4.68 -1 3.36 -1 2 C-4.58063513 2 -6.47487986 2.34407525 -9.75 3.5 Z " fill="#F3F4F4" transform="translate(84,55)"/>
<path d="M0 0 C2.9254644 0.2236068 2.9254644 0.2236068 5 -1 C9.79937735 -1.51816286 13.73409126 -1.71207367 18 0.6875 C21.32145821 4.52793606 22.2568848 8.06388858 22.1953125 13.08203125 C22.18886719 14.01337891 22.18242187 14.94472656 22.17578125 15.90429688 C22.15902344 16.86400391 22.14226562 17.82371094 22.125 18.8125 C22.11597656 19.79154297 22.10695312 20.77058594 22.09765625 21.77929688 C22.07417182 24.18645061 22.0413284 26.59309743 22 29 C23.98 29.33 25.96 29.66 28 30 C28.042721 31.66611905 28.04063832 33.33382885 28 35 C27 36 27 36 25.14233398 36.11352539 C23.95619507 36.10567017 23.95619507 36.10567017 22.74609375 36.09765625 C21.89208984 36.09443359 21.03808594 36.09121094 20.15820312 36.08789062 C19.26037109 36.07951172 18.36253906 36.07113281 17.4375 36.0625 C16.53580078 36.05798828 15.63410156 36.05347656 14.70507812 36.04882812 C12.46998686 36.03700225 10.23502563 36.0205222 8 36 C7.505 33.525 7.505 33.525 7 31 C8.32 30.34 9.64 29.68 11 29 C11.08086376 26.06195004 11.1404283 23.12611925 11.1875 20.1875 C11.21263672 19.35412109 11.23777344 18.52074219 11.26367188 17.66210938 C11.27333984 16.85966797 11.28300781 16.05722656 11.29296875 15.23046875 C11.3086792 14.49207764 11.32438965 13.75368652 11.34057617 12.99291992 C11.10534006 10.95072468 11.10534006 10.95072468 9.98168945 9.1730957 C7.22455023 7.26790251 7.22455023 7.26790251 0 9 C0.33 15.6 0.66 22.2 1 29 C2.32 29.33 3.64 29.66 5 30 C5 31.98 5 33.96 5 36 C-1.6 36 -8.2 36 -15 36 C-15 34.02 -15 32.04 -15 30 C-13.68 29.34 -12.36 28.68 -11 28 C-11 21.73 -11 15.46 -11 9 C-13.475 8.01 -13.475 8.01 -16 7 C-16 5.35 -16 3.7 -16 2 C-14.27507022 1.46530198 -12.544802 0.94780825 -10.8125 0.4375 C-9.36810547 0.00244141 -9.36810547 0.00244141 -7.89453125 -0.44140625 C-4.83606301 -1.03163696 -2.98503819 -0.75754751 0 0 Z M-8.5625 1.5 C-9.57441406 1.7784375 -10.58632812 2.056875 -11.62890625 2.34375 C-12.41136719 2.5603125 -13.19382813 2.776875 -14 3 C-14 3.99 -14 4.98 -14 6 C-12.68 6.66 -11.36 7.32 -10 8 C-10 15.26 -10 22.52 -10 30 C-11.32 30.33 -12.64 30.66 -14 31 C-14 31.99 -14 32.98 -14 34 C-8.06 34 -2.12 34 4 34 C4 33.01 4 32.02 4 31 C2.35 30.67 0.7 30.34 -1 30 C-1.0868329 26.541824 -1.14033282 23.08392656 -1.1875 19.625 C-1.21263672 18.64015625 -1.23777344 17.6553125 -1.26367188 16.640625 C-1.27817383 15.22910156 -1.27817383 15.22910156 -1.29296875 13.7890625 C-1.3086792 12.91975098 -1.32438965 12.05043945 -1.34057617 11.15478516 C-1.22818604 10.44370605 -1.1157959 9.73262695 -1 9 C1.94083564 7.03944291 2.68127952 6.68785455 6 6.625 C6.680625 6.59664062 7.36125 6.56828125 8.0625 6.5390625 C10 7 10 7 11.73828125 8.4140625 C13.70130012 12.43733956 13.31447659 16.34163323 13.1875 20.75 C13.16719727 22.08224609 13.16719727 22.08224609 13.14648438 23.44140625 C13.11121309 25.62822578 13.06192752 27.81379966 13 30 C11.68 30.33 10.36 30.66 9 31 C9 31.99 9 32.98 9 34 C14.61 34 20.22 34 26 34 C26 33.01 26 32.02 26 31 C24.68 30.67 23.36 30.34 22 30 C21.98598145 29.09290283 21.98598145 29.09290283 21.97167969 28.16748047 C21.91768278 25.4025212 21.83409606 22.63920094 21.75 19.875 C21.73582031 18.92367187 21.72164062 17.97234375 21.70703125 16.9921875 C21.50058339 11.04648917 20.91295844 7.55418813 17 3 C13.94825282 0.44313074 12.57062448 -0.01037499 8.5625 0.0625 C4.5254632 1.1248781 2.29738561 2.50685479 -1 5 C-1.33 3.35 -1.66 1.7 -2 0 C-4.19848934 0 -6.46622194 0.9217164 -8.5625 1.5 Z " fill="#E5E6E7" transform="translate(194,56)"/>
<path d="M0 0 C0.86625 -0.00257812 1.7325 -0.00515625 2.625 -0.0078125 C5 0.125 5 0.125 8 1.125 C9.89470816 1.1935495 11.7916834 1.20980372 13.6875 1.1875 C14.68136719 1.17847656 15.67523438 1.16945312 16.69921875 1.16015625 C17.45847656 1.14855469 18.21773438 1.13695312 19 1.125 C19.125 6.875 19.125 6.875 18 9.125 C16.35 9.125 14.7 9.125 13 9.125 C13.061875 10.341875 13.12375 11.55875 13.1875 12.8125 C13.1665828 16.76585137 12.59622645 19.00952826 10 22.125 C5.85636295 25.42107493 2.06719188 26.76214152 -3 28.125 C-1.46279297 28.28935547 -1.46279297 28.28935547 0.10546875 28.45703125 C1.46621867 28.61656745 2.82689194 28.7767584 4.1875 28.9375 C4.86103516 29.00775391 5.53457031 29.07800781 6.22851562 29.15039062 C10.49007244 29.67009268 13.60258806 30.46048497 17 33.125 C19.45419931 36.71134483 19.26267036 39.64307774 18.65234375 43.8125 C17.23403666 48.84027123 14.17845836 51.85766966 9.73046875 54.4453125 C3.22549362 57.37511232 -3.44740873 58.68567092 -10.3359375 56.32421875 C-13.99954131 54.6114509 -15.70391484 53.56912773 -18 50.125 C-18.57772436 45.00801282 -18.57772436 45.00801282 -18 42.125 C-15.5 39.125 -15.5 39.125 -13 37.125 C-13.33 36.568125 -13.66 36.01125 -14 35.4375 C-15.1309601 32.82215478 -15.15662974 30.9443354 -15 28.125 C-13.68 27.795 -12.36 27.465 -11 27.125 C-11 26.465 -11 25.805 -11 25.125 C-11.61875 24.8775 -12.2375 24.63 -12.875 24.375 C-15.44127012 22.86542934 -15.89981278 21.85365816 -17 19.125 C-17.575489 14.9470993 -17.44504428 11.23761071 -15.875 7.3125 C-11.47091888 2.17440535 -6.64917882 -0.01978922 0 0 Z M-13 6.125 C-15.82566969 10.36350453 -15.66112852 14.14662262 -15 19.125 C-13.34294424 22.09429149 -13.34294424 22.09429149 -11 24.125 C-10.13375 25.0221875 -10.13375 25.0221875 -9.25 25.9375 C-8.8375 26.329375 -8.425 26.72125 -8 27.125 C-9.65 27.785 -11.3 28.445 -13 29.125 C-12.67 30.775 -12.34 32.425 -12 34.125 C-11.01 34.455 -10.02 34.785 -9 35.125 C-14 40.125 -14 40.125 -15.875 41.5 C-17.31413648 43.25821495 -17.31413648 43.25821495 -17.0625 46.5 C-16.03147913 50.01760061 -15.13053042 52.05787305 -12.12890625 54.2421875 C-5.80856739 56.86309866 1.84612838 55.94874946 8.0625 53.4375 C12.33588623 51.23415774 14.84995378 48.42509244 17 44.125 C17.64356512 38.68832237 17.64356512 38.68832237 15.48828125 33.94140625 C12.13198418 31.49136208 8.8973133 31.25770204 4.875 30.9375 C-2.83515284 30.20742358 -2.83515284 30.20742358 -5 29.125 C-4.67 28.135 -4.34 27.145 -4 26.125 C-2.03033054 25.59975481 -0.05728057 25.08259483 1.93359375 24.64453125 C5.87013144 23.65481573 8.28541359 22.01207278 10.8125 18.875 C12.28002792 15.4765143 12.21552033 12.78884562 12 9.125 C12.804375 8.898125 13.60875 8.67125 14.4375 8.4375 C15.283125 8.004375 16.12875 7.57125 17 7.125 C17.89386164 4.57724694 17.89386164 4.57724694 18 2.125 C17.34 2.455 16.68 2.785 16 3.125 C12.32670036 3.25857453 9.50147041 3.2921568 6 2.125 C-4.38246797 1.20958378 -4.38246797 1.20958378 -13 6.125 Z " fill="#E9EAEB" transform="translate(242,54.875)"/>
<path d="M0 0 C4.44739413 -0.07449251 8.8944519 -0.12876257 13.34228516 -0.16479492 C14.85341727 -0.17982543 16.36450618 -0.20025564 17.87548828 -0.22631836 C20.05512187 -0.26295689 22.23417575 -0.27978338 24.4140625 -0.29296875 C25.7232666 -0.3086792 27.0324707 -0.32438965 28.38134766 -0.34057617 C33.70868673 0.16081622 36.88694816 1.71120314 40.375 5.75 C42.28625223 9.57250446 42.53751218 11.77669003 42 16 C40.625 18.75 40.625 18.75 39 21 C38.34 21.99 37.68 22.98 37 24 C37.763125 24.2475 38.52625 24.495 39.3125 24.75 C42.28607889 26.13305995 43.32123929 27.23004483 45 30 C46.53583799 34.60751397 46.51008225 38.43787312 45 43.0625 C41.1333442 48.7416507 36.24457271 52.10542427 29.50854492 53.64257812 C24.04036357 54.42169418 18.51001451 54.20063906 13 54.125 C11.74832031 54.11597656 10.49664062 54.10695312 9.20703125 54.09765625 C6.1378199 54.07422716 3.06901244 54.04142147 0 54 C-0.57421875 52.109375 -0.57421875 52.109375 -1 50 C0.1875 48.25 0.1875 48.25 2 47 C3.32 47 4.64 47 6 47 C6 34.13 6 21.26 6 8 C3.69 7.01 1.38 6.02 -1 5 C-0.67 3.35 -0.34 1.7 0 0 Z M2 1 C1.67 2.32 1.34 3.64 1 5 C3.97 5.495 3.97 5.495 7 6 C7 19.53 7 33.06 7 47 C5.02 47.66 3.04 48.32 1 49 C1 49.99 1 50.98 1 52 C5.49987562 52.08767743 9.999529 52.14062009 14.5 52.1875 C15.7684375 52.21263672 17.036875 52.23777344 18.34375 52.26367188 C26.75142874 52.32935687 33.28565872 52.22986199 39.875 46.5 C43.59653734 42.12172078 44.40487106 39.7912747 44.2421875 34.21484375 C43.8951553 31.0411783 43.12133154 29.39505174 41 27 C38.72610099 25.46385489 36.45563268 24.25098268 34 23 C34.804375 22.38125 35.60875 21.7625 36.4375 21.125 C39.01099616 18.99088123 39.82902021 18.24326733 40.2734375 15.01171875 C40.46148296 10.70837067 40.47060936 8.65054824 37.875 5.0625 C32.95483721 1.532818 28.48754945 0.74773762 22.5078125 0.8046875 C21.30898438 0.81113281 20.11015625 0.81757812 18.875 0.82421875 C17.01875 0.84935547 17.01875 0.84935547 15.125 0.875 C13.86429687 0.88402344 12.60359375 0.89304688 11.3046875 0.90234375 C8.2029296 0.92584192 5.10156348 0.95869666 2 1 Z " fill="#EAEBEB" transform="translate(367,38)"/>
<path d="M0 0 C1.16444641 -0.01210762 1.16444641 -0.01210762 2.35241699 -0.02445984 C4.00347651 -0.03832482 5.65456498 -0.04903612 7.30566406 -0.05688477 C9.80591412 -0.07396035 12.30479375 -0.11780433 14.8046875 -0.16210938 C24.35974197 -0.25664142 31.82973297 -0.04209129 39.6484375 6.02734375 C45.68672325 13.08703107 47.69981239 19.57978205 47.28125 28.86328125 C46.4605881 36.21468421 44.60110787 41.39714965 39.15625 46.48828125 C30.48305484 53.30426117 21.19364617 54.42664844 10.46875 54.36328125 C9.67807129 54.36134766 8.88739258 54.35941406 8.07275391 54.35742188 C2.76483198 54.31804722 -2.39929787 54.01708897 -7.65625 53.23828125 C-7.32625 51.58828125 -6.99625 49.93828125 -6.65625 48.23828125 C-4.18125 47.74328125 -4.18125 47.74328125 -1.65625 47.23828125 C-1.65625 34.03828125 -1.65625 20.83828125 -1.65625 7.23828125 C-3.96625 6.90828125 -6.27625 6.57828125 -8.65625 6.23828125 C-8.698971 4.5721622 -8.69688832 2.9044524 -8.65625 1.23828125 C-6.66324765 -0.7547211 -2.7299484 0.02674311 0 0 Z M-6.65625 1.23828125 C-6.98625 2.22828125 -7.31625 3.21828125 -7.65625 4.23828125 C-4.19125 5.72328125 -4.19125 5.72328125 -0.65625 7.23828125 C-0.65625 20.43828125 -0.65625 33.63828125 -0.65625 47.23828125 C-2.63625 48.22828125 -4.61625 49.21828125 -6.65625 50.23828125 C-6.65625 50.89828125 -6.65625 51.55828125 -6.65625 52.23828125 C-2.58536083 52.33846404 1.48503401 52.41035596 5.55688477 52.45800781 C6.936895 52.47790795 8.31682337 52.50503865 9.6965332 52.54003906 C19.79928509 52.78958034 28.57345184 52.25925051 37.0625 46.34375 C43.73675106 39.1572209 45.95994073 33.40332006 45.6875 23.52734375 C45.0009369 16.95818316 43.03343551 11.44473323 38.21875 6.80078125 C29.22456257 0.32991156 18.79815152 0.85761119 8.21875 1.05078125 C6.77084734 1.06586357 5.32292938 1.07954567 3.875 1.09179688 C0.36426006 1.12450276 -3.14589399 1.17608614 -6.65625 1.23828125 Z " fill="#F1F2F2" transform="translate(317.65625,37.76171875)"/>
<path d="M0 0 C1.1446875 0.00644531 2.289375 0.01289062 3.46875 0.01953125 C6.5 0.1875 6.5 0.1875 9.5 1.1875 C14.154797 1.4928818 14.154797 1.4928818 18.5 0.1875 C18.3125 2.5625 18.3125 2.5625 17.5 5.1875 C14.9375 6.5 14.9375 6.5 12.5 7.1875 C12.62375 8.734375 12.62375 8.734375 12.75 10.3125 C12.45469905 14.88966471 11.56270649 16.80240335 8.5 20.1875 C4.05394987 21.66951671 0.03341534 21.21393366 -4.5 20.1875 C-7.00637614 18.40665379 -7.47351442 17.29330067 -8.23046875 14.26953125 C-8.45669922 12.65111328 -8.45669922 12.65111328 -8.6875 11 C-8.84605469 9.91332031 -9.00460938 8.82664062 -9.16796875 7.70703125 C-9.33232422 6.45986328 -9.33232422 6.45986328 -9.5 5.1875 C-10.49 6.1775 -11.48 7.1675 -12.5 8.1875 C-13.16 7.8575 -13.82 7.5275 -14.5 7.1875 C-9.59560985 2.15055876 -7.14056857 -0.08845299 0 0 Z M-6.375 6.3125 C-7.76330768 9.8603974 -7.65364001 11.57276131 -6.5 15.1875 C-4.89450853 17.71061011 -4.89450853 17.71061011 -2.5 19.1875 C0.1433774 19.27555146 0.1433774 19.27555146 2.5 18.1875 C4.84168764 14.67496854 4.99623677 13.32280644 4.5 9.1875 C2.95664971 6.23702447 2.95664971 6.23702447 0.5 4.1875 C-3.03120185 3.32623126 -3.95766515 3.57285384 -6.375 6.3125 Z " fill="#21323E" transform="translate(241.5,56.8125)"/>
<path d="M0 0 C11.94355301 -0.56475645 11.94355301 -0.56475645 16 3 C20.76519438 8.42702693 21.41229023 11.74215522 21.34375 18.87890625 C20.83103891 23.53408994 19.20641646 26.62482478 16 30 C12.29606053 32.65717397 10.69086504 33.05571492 6.125 32.6875 C5.09375 32.460625 4.0625 32.23375 3 32 C3 31.67 3 31.34 3 31 C4.093125 30.7525 5.18625 30.505 6.3125 30.25 C10.25244976 28.91442381 11.04985665 28.5055447 13 25 C13.47475101 21.89702046 13.47475101 21.89702046 13.375 18.5625 C13.38273437 17.45003906 13.39046875 16.33757812 13.3984375 15.19140625 C12.96463 11.71669325 11.91936517 9.87904775 10 7 C10 6.34 10 5.68 10 5 C9.04287109 4.70996094 9.04287109 4.70996094 8.06640625 4.4140625 C6.82697266 4.02347656 6.82697266 4.02347656 5.5625 3.625 C4.73878906 3.36976562 3.91507812 3.11453125 3.06640625 2.8515625 C1 2 1 2 0 0 Z " fill="#1D2E3A" transform="translate(279,57)"/>
<path d="M0 0 C0.33 0 0.66 0 1 0 C1.03738281 0.73863281 1.07476562 1.47726563 1.11328125 2.23828125 C2.23925601 19.61361724 8.14649855 34.9067796 21 47 C22.32 47.99 23.64 48.98 25 50 C25.66 45.71 26.32 41.42 27 37 C27.33 37 27.66 37 28 37 C28.99 42.445 28.99 42.445 30 48 C33.93434196 47.01641451 34.67149983 46.691807 37.25 43.9375 C37.77078125 43.38964844 38.2915625 42.84179688 38.828125 42.27734375 C39.40820312 41.64505859 39.40820312 41.64505859 40 41 C40.99 41.495 40.99 41.495 42 42 C41.06725891 43.12894876 40.12859878 44.25300876 39.1875 45.375 C38.66542969 46.00148437 38.14335938 46.62796875 37.60546875 47.2734375 C36 49 36 49 33 51 C31.97327999 54.33227362 31.97327999 54.33227362 31.3125 58.125 C31.06113281 59.40632813 30.80976563 60.68765625 30.55078125 62.0078125 C30.36902344 62.99523437 30.18726562 63.98265625 30 65 C28.35 65 26.7 65 25 65 C24.92265625 63.71416016 24.92265625 63.71416016 24.84375 62.40234375 C24.35574559 55.77538028 24.35574559 55.77538028 21.40234375 50.03515625 C20.04609955 48.97550621 18.67377434 47.9362316 17.2890625 46.9140625 C7.68494557 38.88331626 1.51220521 25.17559041 0 13 C-0.06522873 10.70916711 -0.0858841 8.41664206 -0.0625 6.125 C-0.05347656 4.97257812 -0.04445312 3.82015625 -0.03515625 2.6328125 C-0.02355469 1.76398437 -0.01195313 0.89515625 0 0 Z " fill="#F4F9F5" transform="translate(1,50)"/>
<path d="M0 0 C11.94355301 -0.56475645 11.94355301 -0.56475645 16 3 C20.64419365 8.28922055 21.30128507 11.32156377 21.2109375 18.2421875 C20.80810737 23.50881849 18.85003717 26.14996283 15.1875 29.8125 C11.88467596 32.07914395 9.9783949 32.91159122 6 33 C5.01 32.34 4.02 31.68 3 31 C4.093125 30.773125 5.18625 30.54625 6.3125 30.3125 C9.96894984 29.30814936 9.96894984 29.30814936 11.9375 27.0625 C13.95365126 21.25124048 13.77933586 15.38130402 11.875 9.5625 C8.80757858 5.37035739 4.64994811 3.14612989 0 1 C0 0.67 0 0.34 0 0 Z " fill="#1B2C38" transform="translate(152,57)"/>
<path d="M0 0 C4.0743356 0.84881992 5.54405875 2.30225596 8 5.625 C8.55153827 9.00317188 8.3613395 10.8385552 6.9375 13.9375 C4.04916906 16.45314308 1.77654862 16.55988709 -2 16.625 C-4.94755732 15.27937601 -6.54277272 14.53945456 -8 11.625 C-8.54035146 7.57236402 -8.34199395 6.08769769 -5.875 2.75 C-3 0.625 -3 0.625 0 0 Z M3 8.625 C4 10.625 4 10.625 4 10.625 Z " fill="#CFD1D3" transform="translate(424,75.375)"/>
<path d="M0 0 C3.96325736 2.9258403 5.99468284 5.32172406 6.99609375 10.2578125 C7.85400204 16.60810275 7.66936072 22.12595748 4.5 27.8125 C0.82649597 32.117552 -3.7987487 34.53255875 -9.40234375 35.11328125 C-19.8913389 35.1537793 -19.8913389 35.1537793 -24.5 31.8125 C-28.99171575 27.32078425 -30.24642143 22.60186431 -30.8125 16.375 C-30.35007707 11.10337862 -29.54503059 6.81845357 -25.66015625 3.0078125 C-18.31239598 -2.71167315 -8.48458866 -5.01219219 0 0 Z M-23.5 3.8125 C-24.44875 4.6375 -25.3975 5.4625 -26.375 6.3125 C-29.34772321 10.10296261 -29.12967992 14.18528238 -28.921875 18.83203125 C-28.15952172 24.217916 -26.40018701 28.07997655 -22.375 31.75 C-16.01801228 34.09932155 -9.63229278 34.73253091 -3.32421875 31.96875 C0.92423821 29.27593788 3.91935211 25.55444367 5.5 20.8125 C6.01255795 15.46005061 6.19236411 11.14947897 3.6875 6.3125 C2.965625 5.4875 2.24375 4.6625 1.5 3.8125 C0.7265625 2.9153125 0.7265625 2.9153125 -0.0625 2 C-6.18479144 -3.0575451 -18.16786288 -1.25303027 -23.5 3.8125 Z " fill="#E9EAEB" transform="translate(167.5,57.1875)"/>
<path d="M0 0 C4.73843323 2.31992639 4.73843323 2.31992639 5.9375 5.4375 C6.01198042 8.49119707 5.87542507 9.57757595 4 12 C1.73158485 13.52098804 -0.56674457 14.738312 -3 16 C-3 16.66 -3 17.32 -3 18 C-15.87312261 18.85948148 -15.87312261 18.85948148 -19.75 15.9375 C-22.36598105 12.52219141 -22.83306975 10.25672126 -23 6 C-21.35 5.34 -19.7 4.68 -18 4 C-17.67 4.33 -17.34 4.66 -17 5 C-16.4225 4.175 -15.845 3.35 -15.25 2.5 C-11.23885271 -1.55725243 -5.26878326 -0.84076329 0 0 Z M-13.5625 2.6875 C-15.2144736 4.90914547 -15.2144736 4.90914547 -15.0625 7.5625 C-13.60614574 10.90354802 -12.37344366 11.63626745 -9 13 C-4.50982235 13.74382741 -1.84160359 13.56106906 2 11 C2.66 10.34 3.32 9.68 4 9 C3.67 7.02 3.34 5.04 3 3 C-2.53433345 0.78626662 -8.27939071 -0.79162076 -13.5625 2.6875 Z " fill="#7B858B" transform="translate(248,92)"/>
<path d="M0 0 C3.7639454 2.91897807 6.04121105 5.82177764 7.8125 10.25 C8.58696983 16.83299358 8.42679144 22.53438996 5.0625 28.375 C1.49992979 32.31677937 -2.62341932 35.11485498 -7.92578125 35.7109375 C-19.54755972 35.84750364 -19.54755972 35.84750364 -24.9375 31.375 C-28.98099891 26.05460669 -30.03388993 21.02590527 -29.9375 14.375 C-29.02865357 9.33503341 -27.67130939 5.91733198 -23.9375 2.375 C-16.83472339 -2.15302009 -7.77855755 -3.96423276 0 0 Z M-23.3671875 4.83984375 C-27.56823597 9.69359749 -28.23838644 12.53098131 -28.1484375 18.7734375 C-27.72301317 24.02033754 -25.89338217 27.79031104 -22 31.25 C-17.18770023 34.58914678 -12.77246011 35.10569373 -6.9375 34.375 C-1.35885514 32.76202165 2.40184219 29.88107211 5.21484375 24.7890625 C6.88704448 20.02675813 6.82800858 15.32296912 6.0625 10.375 C4.44742402 6.82178747 4.44742402 6.82178747 2.0625 4.375 C1.2890625 3.4778125 1.2890625 3.4778125 0.5 2.5625 C-5.68814529 -2.54944611 -18.11752945 -0.53890425 -23.3671875 4.83984375 Z " fill="#F0F1F1" transform="translate(293.9375,56.625)"/>
<path d="M0 0 C6.99116476 0.07640617 10.44456393 1.01768582 15.5546875 5.92578125 C20.51956306 11.28262067 22.38490007 16.51712855 22.1875 23.80859375 C21.4159855 29.99035364 19.62548438 36.30289805 14.75 40.4375 C10.60660461 43.13971439 8.4565655 43.4956699 3.5 43.5625 C1.78683594 43.60117188 1.78683594 43.60117188 0.0390625 43.640625 C-3.5891915 43.26436162 -4.69520535 43.007947 -7.125 40.3125 C-7.49245461 37.25947716 -7.61475628 34.57256455 -7.55078125 31.5234375 C-7.54749313 30.66440826 -7.54420502 29.80537903 -7.54081726 28.9203186 C-7.53039854 27.10630712 -7.51045209 25.29232899 -7.48168945 23.47851562 C-7.43755892 20.69122166 -7.42024831 17.90478776 -7.40820312 15.1171875 C-7.39478177 13.35675831 -7.37985955 11.59633979 -7.36328125 9.8359375 C-7.35589432 8.99743256 -7.34850739 8.15892761 -7.34089661 7.29501343 C-7.22459631 0.30850914 -6.91136934 0.14956266 0 0 Z M-5.125 1.3125 C-6.57902569 7.55647067 -6.30924229 13.80890034 -6.3125 20.1875 C-6.32474609 21.44175781 -6.33699219 22.69601563 -6.34960938 23.98828125 C-6.47135703 32.87098991 -6.47135703 32.87098991 -4.125 41.3125 C0.85579383 42.97276461 5.17773629 42.91153425 10.0625 41.1875 C14.99853973 37.89680685 18.02298591 33.90951602 19.875 28.3125 C20.74925979 20.94228663 20.42033936 14.37764323 15.875 8.3125 C12.21745253 4.1911713 8.2705636 2.33579655 2.875 1.3125 C0.18234855 1.17526469 -2.42531164 1.21777409 -5.125 1.3125 Z " fill="#EBECED" transform="translate(333.125,42.6875)"/>
<path d="M0 0 C2.9254644 0.2236068 2.9254644 0.2236068 5 -1 C9.79937735 -1.51816286 13.73409126 -1.71207367 18 0.6875 C21.32145821 4.52793606 22.2568848 8.06388858 22.1953125 13.08203125 C22.18886719 14.01337891 22.18242187 14.94472656 22.17578125 15.90429688 C22.15902344 16.86400391 22.14226562 17.82371094 22.125 18.8125 C22.11597656 19.79154297 22.10695312 20.77058594 22.09765625 21.77929688 C22.07417182 24.18645061 22.0413284 26.59309743 22 29 C23.65 29.33 25.3 29.66 27 30 C26.67 31.32 26.34 32.64 26 34 C26 33.01 26 32.02 26 31 C24.35 30.67 22.7 30.34 21 30 C20.98598145 29.09290283 20.98598145 29.09290283 20.97167969 28.16748047 C20.91768278 25.4025212 20.83409606 22.63920094 20.75 19.875 C20.73582031 18.92367187 20.72164062 17.97234375 20.70703125 16.9921875 C20.50080335 11.05282394 19.90462441 7.55416495 16 3 C13.3654211 0.91050639 12.09486325 0.99642025 8.6875 1.125 C4.43242165 2.13467961 1.6769034 3.67379581 -2 6 C-2.33 4.35 -2.66 2.7 -3 1 C-8.445 2.485 -8.445 2.485 -14 4 C-12.77216797 4.64195313 -12.77216797 4.64195313 -11.51953125 5.296875 C-8.12483283 8.93893904 -8.48111302 11.3422964 -8.56054688 16.171875 C-8.60244141 17.18765625 -8.64433594 18.2034375 -8.6875 19.25 C-8.71005859 20.28125 -8.73261719 21.3125 -8.75585938 22.375 C-8.81472837 24.91814065 -8.89689935 27.45833113 -9 30 C-10.65 30.33 -12.3 30.66 -14 31 C-14 32.32 -14 33.64 -14 35 C-8.39 35 -2.78 35 3 35 C3 35.33 3 35.66 3 36 C-2.94 36 -8.88 36 -15 36 C-15 34.02 -15 32.04 -15 30 C-13.68 29.34 -12.36 28.68 -11 28 C-11 21.73 -11 15.46 -11 9 C-13.475 8.01 -13.475 8.01 -16 7 C-16 5.35 -16 3.7 -16 2 C-14.27507022 1.46530198 -12.544802 0.94780825 -10.8125 0.4375 C-9.36810547 0.00244141 -9.36810547 0.00244141 -7.89453125 -0.44140625 C-4.83606301 -1.03163696 -2.98503819 -0.75754751 0 0 Z " fill="#F2F3F3" transform="translate(194,56)"/>
<path d="M0 0 C5.87874626 5.5772721 5.87874626 5.5772721 6.11352539 10.26831055 C6.10828857 11.13238525 6.10305176 11.99645996 6.09765625 12.88671875 C6.09443359 13.82451172 6.09121094 14.76230469 6.08789062 15.72851562 C6.07951172 16.70498047 6.07113281 17.68144531 6.0625 18.6875 C6.05798828 19.67556641 6.05347656 20.66363281 6.04882812 21.68164062 C6.03704303 24.12115474 6.02059011 26.56054689 6 29 C7.98 29.66 9.96 30.32 12 31 C11.67 32.65 11.34 34.3 11 36 C4.73 35.67 -1.54 35.34 -8 35 C-8 33.35 -8 31.7 -8 30 C-6.68 29.34 -5.36 28.68 -4 28 C-3.91860858 25.60347472 -3.85932991 23.20974564 -3.8125 20.8125 C-3.78736328 20.13896484 -3.76222656 19.46542969 -3.73632812 18.77148438 C-3.67076522 14.29135252 -4.33256351 11.60559001 -7 8 C-9.64 8.33 -12.28 8.66 -15 9 C-15.33 15.6 -15.66 22.2 -16 29 C-14.35 29.33 -12.7 29.66 -11 30 C-11 31.98 -11 33.96 -11 36 C-12.98 36 -14.96 36 -17 36 C-17 35.67 -17 35.34 -17 35 C-15.35 35 -13.7 35 -12 35 C-12 33.68 -12 32.36 -12 31 C-13.65 30.67 -15.3 30.34 -17 30 C-17.05787784 26.37506666 -17.0935542 22.75025143 -17.125 19.125 C-17.14175781 18.09246094 -17.15851563 17.05992188 -17.17578125 15.99609375 C-17.18222656 15.00996094 -17.18867187 14.02382812 -17.1953125 13.0078125 C-17.20578613 12.09660645 -17.21625977 11.18540039 -17.22705078 10.24658203 C-17 8 -17 8 -15 6 C-12.9765625 5.6640625 -12.9765625 5.6640625 -10.625 5.625 C-9.46871094 5.58246094 -9.46871094 5.58246094 -8.2890625 5.5390625 C-6 6 -6 6 -3.7265625 7.3828125 C-1.02647175 11.47571024 -1.5758497 15.46756489 -1.75 20.25 C-1.76804687 21.18585938 -1.78609375 22.12171875 -1.8046875 23.0859375 C-1.85174327 25.39167015 -1.91746287 27.69530945 -2 30 C-3.65 30.33 -5.3 30.66 -7 31 C-7 31.99 -7 32.98 -7 34 C-1.39 34 4.22 34 10 34 C10 33.01 10 32.02 10 31 C8.35 30.67 6.7 30.34 5 30 C4.98541748 29.42556152 4.97083496 28.85112305 4.95581055 28.25927734 C4.88086275 25.63054304 4.78436006 23.00301448 4.6875 20.375 C4.66494141 19.47136719 4.64238281 18.56773438 4.61914062 17.63671875 C4.40633551 12.33593673 3.79063096 8.6510516 1 4 C0.3125 1.625 0.3125 1.625 0 0 Z " fill="#F9F9F9" transform="translate(122,56)"/>
<path d="M0 0 C3.30965107 2.59016171 5.44891635 5.11548787 7 9 C7.3359375 12.05859375 7.3359375 12.05859375 7.375 15.4375 C7.40335937 16.54996094 7.43171875 17.66242188 7.4609375 18.80859375 C6.89960283 22.69512278 5.83068657 24.31183064 3 27 C-0.12023081 28.06655162 -2.8371348 27.8810057 -6 27 C-9.51624603 24.24974118 -11.59560221 21.21319336 -13 17 C-13.40134564 12.01405224 -13.65982444 7.49960101 -11.625 2.875 C-8.49126486 -0.74084824 -4.51926576 -0.78067931 0 0 Z M-8.6875 3.0625 C-11.51444377 6.65348263 -12 8.44022608 -12 13 C-11.1120351 17.60339698 -9.81613069 21.04784753 -6.75 24.625 C-3.97064266 26.24408301 -3.97064266 26.24408301 -0.375 26.1875 C3.23609081 25.29670327 3.23609081 25.29670327 5 22 C6.45982383 17.58425961 6.20665855 13.45410876 5 9 C2.94954519 5.24083284 1.56102976 3.37401984 -2 1 C-6.03574504 0.59412081 -6.03574504 0.59412081 -8.6875 3.0625 Z " fill="#EFF0F0" transform="translate(286,60)"/>
<path d="M0 0 C0 0.66 0 1.32 0 2 C-6.625 2.125 -6.625 2.125 -10 1 C-12.1216468 0.85445167 -14.24856706 0.77919588 -16.375 0.75 C-17.49648437 0.72421875 -18.61796875 0.6984375 -19.7734375 0.671875 C-23.35435126 1.03603572 -25.14851793 1.8437556 -28 4 C-30.81356942 8.22035413 -30.80924557 12.04138747 -30 17 C-27.70800597 19.96050874 -27.70800597 19.96050874 -25 22 C-24.67 22.99 -24.34 23.98 -24 25 C-24.61875 25.268125 -25.2375 25.53625 -25.875 25.8125 C-28.2995233 26.95556848 -28.2995233 26.95556848 -30 30 C-30.33 28.68 -30.66 27.36 -31 26 C-29.68 25.67 -28.36 25.34 -27 25 C-27 24.34 -27 23.68 -27 23 C-27.61875 22.7525 -28.2375 22.505 -28.875 22.25 C-31.44127012 20.74042934 -31.89981278 19.72865816 -33 17 C-33.575489 12.8220993 -33.44504428 9.11261071 -31.875 5.1875 C-23.26305011 -4.85977487 -11.56671837 -2.46287539 0 0 Z " fill="#E3E4E5" transform="translate(258,57)"/>
<path d="M0 0 C4.31055047 2.84658993 6.44375727 5.1242487 8 10 C8.5531248 14.99967352 8.68205324 19.51727558 6.5625 24.125 C4.18950666 26.97259201 4.18950666 26.97259201 2.109375 27.2734375 C-2.261812 27.46160118 -4.32479622 27.50281133 -7.9375 24.8125 C-12.31880883 18.83798797 -12.72735693 13.23014497 -12 6 C-9.33440778 -0.05816413 -6.45126849 -0.64512685 0 0 Z M-7.8125 2.375 C-10.90800308 6.0896037 -11.26585118 9.23813626 -11 14 C-10.13404299 18.32218894 -8.65881295 21.24968525 -5.75 24.5625 C-2.05285704 26.49509746 0.03908503 26.12101367 4 25 C6.41514875 21.37727687 7.06656821 18.28255493 7 14 C6.01217212 9.25995771 4.8260294 5.15980537 1 2 C-2.69111926 0.79637416 -4.29598951 0.65581709 -7.8125 2.375 Z " fill="#F5F6F6" transform="translate(158,60)"/>
<path d="M0 0 C0.66 0 1.32 0 2 0 C0.72410447 4.89210771 -0.93660572 7.28193649 -4.6875 10.625 C-17.91170526 23.42999414 -22.46450687 39.95080227 -22.95703125 57.84375 C-22.97121094 58.8853125 -22.98539063 59.926875 -23 61 C-23.33 61 -23.66 61 -24 61 C-24.43193884 49.63760895 -24.46386167 39.68399679 -20 29 C-19.63777344 28.12085937 -19.27554687 27.24171875 -18.90234375 26.3359375 C-15.26046571 18.36084185 -9.8197061 11.65425113 -3.5625 5.5625 C-0.81831948 3.20031442 -0.81831948 3.20031442 0 0 Z " fill="#E7F4EB" transform="translate(26,1)"/>
<path d="M0 0 C4.52065428 -0.049377 9.04115217 -0.08570823 13.56201172 -0.10986328 C15.10045098 -0.11993118 16.63887107 -0.13358646 18.17724609 -0.15087891 C20.38644133 -0.17509317 22.59538395 -0.18647491 24.8046875 -0.1953125 C25.49432587 -0.20563507 26.18396423 -0.21595764 26.89450073 -0.22659302 C28.59800906 -0.22699478 30.30085943 -0.12191026 32 0 C32.66 0.66 33.32 1.32 34 2 C23.44 2 12.88 2 2 2 C1.67 2.99 1.34 3.98 1 5 C2.4540625 4.9690625 2.4540625 4.9690625 3.9375 4.9375 C7 5 7 5 8 6 C8.08871273 9.02977804 8.1151935 12.03667022 8.09765625 15.06640625 C8.0962413 15.97502914 8.09482635 16.88365204 8.09336853 17.81980896 C8.08775193 20.73407221 8.07519665 23.64825981 8.0625 26.5625 C8.05748714 28.53320202 8.05292386 30.50390524 8.04882812 32.47460938 C8.03777711 37.31643559 8.02050138 42.15820495 8 47 C6.02 47.495 6.02 47.495 4 48 C4.99 47.505 4.99 47.505 6 47 C6 34.13 6 21.26 6 8 C3.69 7.01 1.38 6.02 -1 5 C-0.67 3.35 -0.34 1.7 0 0 Z " fill="#FBFBFC" transform="translate(367,38)"/>
<path d="M0 0 C1.89510699 -0.08160748 3.79124504 -0.13946459 5.6875 -0.1875 C6.74324219 -0.22230469 7.79898437 -0.25710937 8.88671875 -0.29296875 C13.19420224 0.11237788 15.74335909 1.78669153 18.8125 4.75 C20.52868326 8.00171564 20.38162088 10.37460162 20 14 C18.20882468 18.14798495 16.16507424 20.2414131 12 22 C8.22696741 22.6163121 5.08085178 22.70226972 1.76953125 20.55078125 C-0.88149218 16.72932806 -0.43404771 13.28040521 -0.25 8.75 C-0.23195313 7.90953125 -0.21390625 7.0690625 -0.1953125 6.203125 C-0.14830798 4.13492605 -0.07656724 2.06731559 0 0 Z M1 1 C0.91882049 3.41734542 0.85943074 5.83194949 0.8125 8.25 C0.78736328 8.93191406 0.76222656 9.61382812 0.73632812 10.31640625 C0.69093561 13.43335876 0.82736465 15.66588421 2.26953125 18.45703125 C4.67374906 20.6007469 6.86926619 20.48750886 9.99609375 20.33203125 C12.840616 19.86071665 14.75145585 18.77158024 17 17 C18.60964787 13.78070427 18.60686242 10.48112288 18 7 C15.46546343 3.78045355 13.88702695 2.29567565 10 1 C8.43881572 0.93259135 6.8749748 0.91485544 5.3125 0.9375 C4.50425781 0.94652344 3.69601562 0.95554687 2.86328125 0.96484375 C2.24839844 0.97644531 1.63351562 0.98804687 1 1 Z " fill="#F1F2F2" transform="translate(383,65)"/>
<path d="M0 0 C0.33 0 0.66 0 1 0 C1.12117188 0.77085938 1.24234375 1.54171875 1.3671875 2.3359375 C1.53476562 3.33882813 1.70234375 4.34171875 1.875 5.375 C2.03742187 6.37273437 2.19984375 7.37046875 2.3671875 8.3984375 C2.7958802 11.1425115 2.7958802 11.1425115 5 13 C4.690625 14.010625 4.38125 15.02125 4.0625 16.0625 C3.02352081 19.6731369 2.45688819 23.26874647 2 27 C1.01 27 0.02 27 -1 27 C-3.04383758 17.19252039 -2.96306989 9.59015094 0 0 Z " fill="#AEC3BA" transform="translate(28,87)"/>
<path d="M0 0 C7.22568494 -0.47038817 12.16249768 -0.52704262 18 4 C22.63207291 9.85103947 23.60849791 14.61311842 23 22 C22 25.5 22 25.5 21 28 C20.34 28 19.68 28 19 28 C19.15855469 27.46117188 19.31710937 26.92234375 19.48046875 26.3671875 C20.80971193 20.31063586 20.97707681 14.06271771 18.3125 8.4375 C12.80932295 2.63685392 7.71269906 2.39171326 0 2 C0 1.34 0 0.68 0 0 Z " fill="#E4E5E6" transform="translate(279,55)"/>
<path d="M0 0 C0.99 0 1.98 0 3 0 C3.125 5.75 3.125 5.75 2 8 C0.35 8 -1.3 8 -3 8 C-2.938125 9.216875 -2.87625 10.43375 -2.8125 11.6875 C-2.8334172 15.64085137 -3.40377355 17.88452826 -6 21 C-10.17680818 24.32246105 -13.90715207 25.7777165 -19 27 C-16.36 27.33 -13.72 27.66 -11 28 C-11 28.33 -11 28.66 -11 29 C-14.3 29 -17.6 29 -21 29 C-21 27.68 -21 26.36 -21 25 C-20.39671875 24.80664062 -19.7934375 24.61328125 -19.171875 24.4140625 C-17.97304687 24.02347656 -17.97304687 24.02347656 -16.75 23.625 C-15.96109375 23.36976562 -15.1721875 23.11453125 -14.359375 22.8515625 C-10.95106831 21.62141207 -8.57817949 20.7020751 -6.25 17.875 C-4.57271663 14.01724826 -4.7872101 11.18486798 -5 7 C-3.02 6.34 -1.04 5.68 1 5 C0.67 3.35 0.34 1.7 0 0 Z " fill="#EFF0F1" transform="translate(258,56)"/>
<path d="M0 0 C0.33 0 0.66 0 1 0 C1 6.27 1 12.54 1 19 C-0.65 19.33 -2.3 19.66 -4 20 C-4 20.99 -4 21.98 -4 23 C1.94 23 7.88 23 14 23 C14.33 21.68 14.66 20.36 15 19 C15.042721 20.66611905 15.04063832 22.33382885 15 24 C14 25 14 25 12.14233398 25.11352539 C11.35157471 25.10828857 10.56081543 25.10305176 9.74609375 25.09765625 C8.89208984 25.09443359 8.03808594 25.09121094 7.15820312 25.08789062 C6.26037109 25.07951172 5.36253906 25.07113281 4.4375 25.0625 C3.53580078 25.05798828 2.63410156 25.05347656 1.70507812 25.04882812 C-0.53001314 25.03700225 -2.76497437 25.0205222 -5 25 C-5.33 23.35 -5.66 21.7 -6 20 C-5.19175781 19.68417969 -4.38351563 19.36835937 -3.55078125 19.04296875 C-0.89600017 17.32621571 -0.89600017 17.32621571 -0.49365234 15.15869141 C-0.28178268 12.86730291 -0.20448888 10.61354981 -0.1875 8.3125 C-0.16236328 7.51521484 -0.13722656 6.71792969 -0.11132812 5.89648438 C-0.05249685 3.9315198 -0.02337596 1.96570609 0 0 Z " fill="#D7D9DA" transform="translate(207,67)"/>
<path d="M0 0 C2.13880206 2.11944638 2.91816432 3.49213739 3.3984375 6.47265625 C3.39070312 7.32730469 3.38296875 8.18195313 3.375 9.0625 C3.38273438 9.91972656 3.39046875 10.77695313 3.3984375 11.66015625 C2.9212153 14.46266699 2.29387134 15.35623505 0 17 C-6.07079646 17.65044248 -6.07079646 17.65044248 -8.875 15.6875 C-11.49159281 11.76261079 -11.4919356 7.54094404 -11 3 C-8.9942478 -1.0115044 -3.99015479 -1.0216727 0 0 Z M-8.875 3.125 C-10.26330768 6.6728974 -10.15364001 8.38526131 -9 12 C-7.39450853 14.52311011 -7.39450853 14.52311011 -5 16 C-2.3566226 16.08805146 -2.3566226 16.08805146 0 15 C2.34168764 11.48746854 2.49623677 10.13530644 2 6 C0.45664971 3.04952447 0.45664971 3.04952447 -2 1 C-5.53120185 0.13873126 -6.45766515 0.38535384 -8.875 3.125 Z " fill="#F2F2F3" transform="translate(244,60)"/>
<path d="M0 0 C7.86885246 -0.39344262 7.86885246 -0.39344262 12 3 C14.39102744 2.76861025 16.07973175 1.96234889 18.25 0.9375 C22.01457788 -0.34587882 25.02480062 -0.19550161 29 0 C29.66 0.33 30.32 0.66 31 1 C30.67 1.66 30.34 2.32 30 3 C29.34773438 2.95359375 28.69546875 2.9071875 28.0234375 2.859375 C21.83995269 2.60400985 18.82535906 3.13971275 14 7 C13.34 7 12.68 7 12 7 C11.46375 6.360625 10.9275 5.72125 10.375 5.0625 C6.99583942 2.12796581 4.41453428 2.29430229 0 2 C0 1.34 0 0.68 0 0 Z " fill="#DFE0E1" transform="translate(91,55)"/>
<path d="M0 0 C4.43744539 -0.05793591 8.87479389 -0.09357467 13.3125 -0.125 C14.57513672 -0.14175781 15.83777344 -0.15851562 17.13867188 -0.17578125 C18.95141602 -0.18544922 18.95141602 -0.18544922 20.80078125 -0.1953125 C21.91622314 -0.20578613 23.03166504 -0.21625977 24.1809082 -0.22705078 C27 0 27 0 30 2 C14.655 2.495 14.655 2.495 -1 3 C-0.67 2.01 -0.34 1.02 0 0 Z " fill="#404E57" transform="translate(369,39)"/>
<path d="M0 0 C1.32 0.33 2.64 0.66 4 1 C4 8.26 4 15.52 4 23 C2.35 23.33 0.7 23.66 -1 24 C-1 25.32 -1 26.64 -1 28 C4.61 28 10.22 28 16 28 C16 28.33 16 28.66 16 29 C10.06 29 4.12 29 -2 29 C-2 27.02 -2 25.04 -2 23 C-0.68 22.34 0.64 21.68 2 21 C2.05791844 17.87507749 2.09356746 14.75029234 2.125 11.625 C2.14175781 10.73554687 2.15851563 9.84609375 2.17578125 8.9296875 C2.18544922 7.65351562 2.18544922 7.65351562 2.1953125 6.3515625 C2.21102295 5.17327881 2.21102295 5.17327881 2.22705078 3.97119141 C2.17990127 1.765535 2.17990127 1.765535 0 0 Z " fill="#FCFCFD" transform="translate(181,63)"/>
<path d="M0 0 C2.94755204 0.06854772 5.16238463 0.29755536 7.4765625 2.23828125 C11.57403818 7.258288 12.20437491 12.65508788 12 19 C11.55634711 21.51838259 10.90833025 23.5955964 10 26 C9.34 26 8.68 26 8 26 C8.15855469 25.28714844 8.31710938 24.57429688 8.48046875 23.83984375 C9.57903386 17.83490514 10.040143 12.11880981 7.3125 6.5625 C5.04094388 4.04537025 2.74648095 1.98356957 0 0 Z " fill="#EFF0F0" transform="translate(163,57)"/>
<path d="M0 0 C1.98 1.65 3.96 3.3 6 5 C5 8 5 8 1.875 10.25 C0.92625 11.1575 -0.0225 12.065 -1 13 C-1.08155765 17.64878601 -0.14851375 20.57770244 3 24 C1.125 23.6875 1.125 23.6875 -1 23 C-3.13372486 19.79941271 -3.46560278 17.81741168 -3.40234375 14.0078125 C-2.73310805 10.66813141 -0.56653554 9.05322843 2 7 C1.67 6.401875 1.34 5.80375 1 5.1875 C0 3 0 3 0 0 Z " fill="#F3F4F4" transform="translate(227,85)"/>
<path d="M0 0 C0.33 0 0.66 0 1 0 C1.55485582 11.73417302 1.55485582 11.73417302 -2 16 C-3.56941198 17.56941198 -5.14134994 17.2449847 -7.3125 17.3125 C-10.82699145 17.29571103 -11.69309167 17.23953821 -14.5625 15 C-15.2740625 14.01 -15.2740625 14.01 -16 13 C-13 13 -13 13 -10 15 C-7.69 15 -5.38 15 -3 15 C-2.01 10.05 -1.02 5.1 0 0 Z " fill="#ECEDED" transform="translate(165,70)"/>
<path d="M0 0 C1.65 0.33 3.3 0.66 5 1 C5 1.66 5 2.32 5 3 C4.01 3 3.02 3 2 3 C2.495 3.45375 2.99 3.9075 3.5 4.375 C5 6 5 6 5 8 C5.66 8.33 6.32 8.66 7 9 C4.1875 9.25 4.1875 9.25 1 9 C-1 7.3125 -1 7.3125 -2 5 C-1.1875 2.25 -1.1875 2.25 0 0 Z " fill="#E8E9EA" transform="translate(420,80)"/>
<path d="M0 0 C1.9375 0.375 1.9375 0.375 4 1 C5.20029908 3.40059817 5.11459743 4.89360649 5.09765625 7.5703125 C5.09282227 8.91416016 5.09282227 8.91416016 5.08789062 10.28515625 C5.07951172 11.22230469 5.07113281 12.15945312 5.0625 13.125 C5.05798828 14.06988281 5.05347656 15.01476562 5.04882812 15.98828125 C5.03702357 18.32558387 5.02055759 20.66276061 5 23 C3.68 23.33 2.36 23.66 1 24 C1.66 23.01 2.32 22.02 3 21 C3.35774124 17.5439107 3.35774124 17.5439107 3.3125 13.6875 C3.32925781 12.39199219 3.34601563 11.09648438 3.36328125 9.76171875 C2.98295287 5.82347973 1.98910745 3.38515647 0 0 Z " fill="#F1F1F2" transform="translate(115,63)"/>
<path d="M0 0 C0 0.33 0 0.66 0 1 C-6.67889908 2.9266055 -6.67889908 2.9266055 -9.1875 3.5 C-11.28778884 4.07939003 -13.08359667 4.97335536 -15 6 C-11.23498514 -1.33187104 -7.78417664 -2.89998738 0 0 Z " fill="#23333F" transform="translate(242,59)"/>
<path d="M0 0 C2.39652528 -0.08139142 4.79025436 -0.14067009 7.1875 -0.1875 C7.86103516 -0.21263672 8.53457031 -0.23777344 9.22851562 -0.26367188 C13.68379218 -0.32887104 16.50714185 0.17808635 20 3 C20.33 3.99 20.66 4.98 21 6 C20.46375 5.71125 19.9275 5.4225 19.375 5.125 C13.00547455 2.10785636 6.95558989 1.47030679 0 1 C0 0.67 0 0.34 0 0 Z " fill="#DADCDD" transform="translate(239,85)"/>
<path d="M0 0 C0.66 0 1.32 0 2 0 C0.48941618 4.22963468 -2.12314321 5.91246173 -6 8 C-9.375 8.25 -9.375 8.25 -12 8 C-11.46375 7.7525 -10.9275 7.505 -10.375 7.25 C-6.57737023 5.25124749 -3.04053995 3.04053995 0 0 Z " fill="#E1E3E4" transform="translate(170,83)"/>
<path d="M0 0 C0.99 0.33 1.98 0.66 3 1 C2.54625 1.5775 2.0925 2.155 1.625 2.75 C0.15886484 4.7800333 -0.94857784 6.73539843 -2 9 C-2.33 7.68 -2.66 6.36 -3 5 C-3.99 5.66 -4.98 6.32 -6 7 C-4.61990379 3.66476748 -3.15049348 1.81392049 0 0 Z " fill="#142433" transform="translate(232,92)"/>
<path d="M0 0 C0.680625 0.804375 1.36125 1.60875 2.0625 2.4375 C5.48477302 5.42288711 7.5428126 5.73781251 12 6 C12 6.33 12 6.66 12 7 C4.67368421 7.48842105 4.67368421 7.48842105 1.5 5.1875 C0 3 0 3 0 0 Z " fill="#CDCFD1" transform="translate(383,80)"/>
<path d="M0 0 C1.98 0 3.96 0 6 0 C4.02 0.99 4.02 0.99 2 2 C4.64 2.33 7.28 2.66 10 3 C10 3.33 10 3.66 10 4 C6.7 4 3.4 4 0 4 C0 2.68 0 1.36 0 0 Z " fill="#F8F8F9" transform="translate(237,81)"/>
<path d="M0 0 C3.27263601 1.4726862 4.72014048 2.42695432 6.3125 5.6875 C6.6528125 6.8321875 6.6528125 6.8321875 7 8 C6.34 8 5.68 8 5 8 C3.65080468 6.34614767 2.31866272 4.678298 1 3 C0.01 2.34 -0.98 1.68 -2 1 C-1.34 0.67 -0.68 0.34 0 0 Z " fill="#E5E7E7" transform="translate(208,55)"/>
<path d="M0 0 C0.33 1.32 0.66 2.64 1 4 C2.98 4 4.96 4 7 4 C7.33 5.32 7.66 6.64 8 8 C7.01 7.34 6.02 6.68 5 6 C3.01200182 5.29835358 1.01301483 4.62627128 -1 4 C-0.67 2.68 -0.34 1.36 0 0 Z " fill="#F4F4F5" transform="translate(367,39)"/>
<path d="M0 0 C0 0.66 0 1.32 0 2 C0.66 2.33 1.32 2.66 2 3 C0.35 3.33 -1.3 3.66 -3 4 C-3 3.34 -3 2.68 -3 2 C-5.31 2 -7.62 2 -10 2 C-10 1.67 -10 1.34 -10 1 C-2.25 0 -2.25 0 0 0 Z " fill="#132734" transform="translate(397,86)"/>
<path d="M0 0 C3.63 0 7.26 0 11 0 C7 3 7 3 3.8125 2.8125 C2.884375 2.544375 1.95625 2.27625 1 2 C0.67 1.34 0.34 0.68 0 0 Z " fill="#0E2230" transform="translate(279,57)"/>
<path d="M0 0 C-0.66 0.66 -1.32 1.32 -2 2 C-4.1640625 1.9765625 -4.1640625 1.9765625 -6.625 1.625 C-7.44226563 1.51414062 -8.25953125 1.40328125 -9.1015625 1.2890625 C-9.72804687 1.19367188 -10.35453125 1.09828125 -11 1 C-11 0.67 -11 0.34 -11 0 C-3.57142857 -1.28571429 -3.57142857 -1.28571429 0 0 Z " fill="#0F2331" transform="translate(250,107)"/>
<path d="M0 0 C0.66 0.99 1.32 1.98 2 3 C-0.8125 3.625 -0.8125 3.625 -4 4 C-4.99 3.34 -5.98 2.68 -7 2 C-4.69 1.34 -2.38 0.68 0 0 Z " fill="#112532" transform="translate(289,86)"/>
<path d="M0 0 C0 0.33 0 0.66 0 1 C-6.75 2.125 -6.75 2.125 -9 1 C-9 0.34 -9 -0.32 -9 -1 C-5.79937313 -2.60031344 -3.27728194 -1.03173691 0 0 Z " fill="#515E66" transform="translate(242,59)"/>
</svg>
