<?xml version="1.0" encoding="UTF-8"?>
<svg version="1.1" xmlns="http://www.w3.org/2000/svg" width="834" height="313">
<path d="M0 0 C1.49719639 1.29189521 2.97818673 2.60296073 4.4375 3.9375 C5.06914062 4.48921875 5.70078125 5.0409375 6.3515625 5.609375 C20.72253973 18.90411165 27.5691491 39.83378023 28.4375 58.9375 C28.4375 63.8875 28.4375 68.8375 28.4375 73.9375 C-14.4625 73.9375 -57.3625 73.9375 -101.5625 73.9375 C-97.14729148 87.26658475 -97.14729148 87.26658475 -89.5625 97.9375 C-88.91667969 98.62199219 -88.27085937 99.30648437 -87.60546875 100.01171875 C-81.95407774 105.52055215 -76.00661346 108.45612885 -68.5625 110.9375 C-67.82386719 111.18371094 -67.08523438 111.42992187 -66.32421875 111.68359375 C-51.79806336 115.65024635 -35.37441836 112.98240846 -22.2578125 106.0234375 C-19.53202244 104.13509359 -19.53202244 104.13509359 -18.06152344 101.73950195 C-15.05077686 97.49324473 -13.06936093 95.23189653 -7.82861328 94.20800781 C-3.39669202 93.94117201 1.0082171 94.15047631 5.4375 94.375 C6.99076906 94.42020781 8.5441649 94.4612614 10.09765625 94.49804688 C13.88076573 94.5966083 17.65772177 94.75149981 21.4375 94.9375 C19.56379077 105.15917733 12.53609275 112.70811241 5.4375 119.9375 C4.76074219 120.63875 4.08398438 121.34 3.38671875 122.0625 C-6.61394234 131.70532199 -19.18977349 136.87939588 -32.5625 139.9375 C-33.32054932 140.1118457 -34.07859863 140.28619141 -34.85961914 140.46582031 C-59.96407857 144.84679905 -83.84773634 139.31461599 -104.5625 125 C-119.96958503 113.11650841 -129.61570525 95.08622898 -132.5625 75.9375 C-134.35723844 51.67881685 -131.2282092 29.17756599 -115.3125 10 C-87.09899327 -22.20141969 -33.53807191 -26.13026783 0 0 Z M-91.36328125 27.14453125 C-96.0939935 33.15245178 -99.0675438 39.46271902 -100.5625 46.9375 C-68.5525 46.9375 -36.5425 46.9375 -3.5625 46.9375 C-7.66422561 33.26508128 -13.9639492 23.43049613 -26.57421875 16.29296875 C-48.37681409 6.4034255 -74.60698319 9.30892253 -91.36328125 27.14453125 Z " fill="#000000" transform="translate(385.5625,95.0625)"/>
<path d="M0 0 C8.43324981 4.97458715 13.95889036 12.10480302 17.17956543 21.31362915 C19.08296892 29.86598836 18.47859586 38.79644719 18.390625 47.51171875 C18.383154 49.69317605 18.37746513 51.87464012 18.37347412 54.05610657 C18.35828553 59.76572575 18.31906253 65.47493048 18.2746582 71.18438721 C18.23355874 77.02325842 18.21543188 82.86219735 18.1953125 88.70117188 C18.15256126 100.1343249 18.08226728 111.56706296 18 123 C25.26 123 32.52 123 40 123 C40 131.91 40 140.82 40 150 C32.74 150 25.48 150 18 150 C18 161.55 18 173.1 18 185 C8.1 185 -1.8 185 -12 185 C-12 173.45 -12 161.9 -12 150 C-19.82138672 150.03480469 -19.82138672 150.03480469 -27.80078125 150.0703125 C-31.12305192 150.08054309 -34.4453029 150.09017185 -37.76757812 150.09765625 C-43.0297453 150.10956741 -48.29184224 150.12359051 -53.55395508 150.15087891 C-57.80093844 150.17276278 -62.04784638 150.18460109 -66.29488182 150.18975449 C-67.90742364 150.19342254 -69.51996177 150.20058454 -71.13247108 150.21146011 C-86.40844441 150.31030147 -100.61415189 149.55629402 -112.46484375 138.7421875 C-118.26222865 132.16296698 -120.14502035 125.4605357 -120.3125 116.875 C-120.34988281 115.63492188 -120.38726563 114.39484375 -120.42578125 113.1171875 C-119.95008385 104.12761299 -115.04237661 97.09623373 -109.5 90.375 C-108.24350915 88.80701646 -106.98832497 87.23798503 -105.734375 85.66796875 C-105.10724609 84.88856934 -104.48011719 84.10916992 -103.83398438 83.30615234 C-101.0636165 79.82254013 -98.40379869 76.26023897 -95.75 72.6875 C-91.00237673 66.32290443 -86.1850921 60.01661404 -81.33349609 53.73095703 C-78.83935471 50.49341356 -76.35730973 47.24661866 -73.875 44 C-73.33931396 43.2994751 -72.80362793 42.5989502 -72.25170898 41.87719727 C-69.11675999 37.77546751 -65.98645717 33.67023051 -62.859375 29.5625 C-62.15570801 28.63824219 -61.45204102 27.71398437 -60.72705078 26.76171875 C-59.36559101 24.97300412 -58.0045607 23.18396251 -56.64404297 21.39453125 C-55.38099423 19.7349103 -54.11519033 18.077382 -52.84643555 16.42211914 C-51.60628043 14.79530717 -50.37869272 13.15884426 -49.16333008 11.51342773 C-45.94795333 7.22144071 -43.11415343 3.84670852 -38.4375 1.0625 C-37.54933594 0.51722656 -36.66117188 -0.02804688 -35.74609375 -0.58984375 C-24.69664397 -6.26388553 -10.93404783 -5.74349657 0 0 Z M-32.4375 38.125 C-33.04658203 38.91197266 -33.65566406 39.69894531 -34.28320312 40.50976562 C-39.20451341 46.89785903 -43.98938475 53.38127311 -48.74780273 59.89111328 C-53.29358036 66.09191625 -57.98878113 72.16233823 -62.73461914 78.21069336 C-67.65615685 84.50520113 -72.41226687 90.91290613 -77.11914062 97.36914062 C-77.65603516 98.10455078 -78.19292969 98.83996094 -78.74609375 99.59765625 C-79.5347583 100.67877686 -79.5347583 100.67877686 -80.33935547 101.78173828 C-82.67783638 104.90544271 -85.13261108 107.9337208 -87.60180664 110.95483398 C-89.03764967 113.05507094 -89.70800628 114.48111055 -90 117 C-88.23136411 120.69759178 -88.23136411 120.69759178 -85 123 C-82.69212126 123.09214631 -80.3814915 123.11749397 -78.07177734 123.11352539 C-77.35947464 123.11367142 -76.64717194 123.11381744 -75.9132843 123.1139679 C-73.55413794 123.11327011 -71.19507011 123.10548397 -68.8359375 123.09765625 C-67.20211836 123.0957916 -65.56829866 123.09436792 -63.93447876 123.09336853 C-59.6305182 123.08954709 -55.32659129 123.07971998 -51.02264404 123.06866455 C-46.63228816 123.05844242 -42.24192685 123.05386919 -37.8515625 123.04882812 C-29.23435954 123.03809739 -20.61718396 123.02102543 -12 123 C-11.93056968 110.66538665 -11.87722417 98.3308196 -11.84456348 85.99605083 C-11.82889007 80.2688629 -11.80762113 74.5418084 -11.77368164 68.81469727 C-11.7411481 63.29042558 -11.72315962 57.76628245 -11.71536827 52.24192238 C-11.70981396 50.1315286 -11.69896813 48.02114207 -11.68280983 45.91080284 C-11.6611155 42.9608055 -11.65802973 40.01134323 -11.65942383 37.0612793 C-11.648638 36.18374496 -11.63785217 35.30621063 -11.6267395 34.40208435 C-11.50592518 30.05410052 -11.50592518 30.05410052 -13.34286022 26.28329182 C-15.04038001 24.76206735 -15.04038001 24.76206735 -17.875 24.5 C-24.39981071 25.54396971 -28.60379877 33.14162061 -32.4375 38.125 Z " fill="#000000" transform="translate(721,62)"/>
<path d="M0 0 C16.00442859 13.76176981 24.49439474 33.0190814 26.234375 53.8515625 C27.60554836 75.98189728 21.59780331 97.79175343 6.8671875 114.6484375 C2.6995128 118.89703793 -1.74463442 122.60057458 -6.546875 126.109375 C-7.30226563 126.66367188 -8.05765625 127.21796875 -8.8359375 127.7890625 C-27.4832503 140.15652425 -52.91554502 141.81076985 -74.44921875 138.49609375 C-87.4759473 135.85543509 -100.73370767 129.04602641 -110.546875 120.109375 C-111.30355469 119.43261719 -112.06023437 118.75585938 -112.83984375 118.05859375 C-126.99230776 104.71213271 -135.14307875 85.75780736 -135.75 66.359375 C-136.12638565 41.44453862 -130.14060924 21.34959889 -112.859375 2.921875 C-82.54151759 -26.32812526 -32.2545073 -24.91515833 0 0 Z M-93.546875 25.109375 C-103.77392387 38.54285518 -106.57980719 52.59393698 -105.546875 69.109375 C-103.85540321 81.5660613 -97.82395406 92.6425934 -88.546875 101.109375 C-76.37265177 110.18433674 -62.49930993 113.16875804 -47.546875 112.109375 C-34.14838862 109.85821231 -21.92363211 104.11933213 -13.546875 93.109375 C-4.53809236 77.88702489 -1.57785687 62.58490259 -5.546875 45.109375 C-9.65123214 31.87002842 -17.98336815 21.02011659 -30.234375 14.359375 C-51.20493464 4.643657 -77.5955976 7.50213872 -93.546875 25.109375 Z " fill="#000000" transform="translate(563.546875,96.890625)"/>
<path d="M0 0 C1.9790332 0.01244751 1.9790332 0.01244751 3.99804688 0.02514648 C23.3453328 0.36040717 40.91106042 5.75798473 55.1875 19.4375 C69.28600652 34.14239389 74.39011035 54.60738275 74.30102539 74.515625 C74.30117142 75.38486099 74.30131744 76.25409698 74.3014679 77.14967346 C74.30077651 79.99564187 74.29302069 82.84154316 74.28515625 85.6875 C74.28328932 87.67146774 74.28186671 89.65543593 74.28086853 91.6394043 C74.27706504 96.84089448 74.26725342 102.04235638 74.25616455 107.24383545 C74.24590366 112.55968849 74.24136091 117.87554614 74.23632812 123.19140625 C74.22562907 133.6067852 74.20804998 144.02213582 74.1875 154.4375 C64.2875 154.4375 54.3875 154.4375 44.1875 154.4375 C44.17291748 151.80426758 44.15833496 149.17103516 44.14331055 146.45800781 C44.0927891 137.72081248 44.02616377 128.9837921 43.95178509 120.24676895 C43.90721318 114.95375363 43.86792849 109.66081295 43.84106445 104.36767578 C43.81489941 99.2517025 43.77440508 94.1360185 43.72431374 89.02022552 C43.70773382 87.07641979 43.69616465 85.13256412 43.68988609 83.18869781 C43.6345851 67.62959216 43.04081188 52.35787772 32.11328125 40.11328125 C22.00581279 30.57027874 10.34716289 27.95306616 -3.25 28.1875 C-14.70064926 28.99105433 -25.21183131 32.81699281 -33.1796875 41.28515625 C-42.03840273 52.96255359 -43.85896968 66.23453938 -44.12890625 80.40625 C-44.14968735 81.32716431 -44.17046844 82.24807861 -44.19187927 83.19689941 C-44.25675118 86.11036425 -44.31596682 89.02391161 -44.375 91.9375 C-44.41824467 93.92448737 -44.46186076 95.91146669 -44.50585938 97.8984375 C-44.61236772 102.7447092 -44.71380684 107.5910631 -44.8125 112.4375 C-45.56595703 112.22456299 -46.31941406 112.01162598 -47.09570312 111.79223633 C-48.57973633 111.37880981 -48.57973633 111.37880981 -50.09375 110.95703125 C-51.56424805 110.54481323 -51.56424805 110.54481323 -53.06445312 110.12426758 C-58.47622801 108.77180465 -63.13697036 109.45557845 -68.53125 110.45703125 C-69.52060547 110.63983643 -70.50996094 110.8226416 -71.52929688 111.01098633 C-72.28275391 111.15173584 -73.03621094 111.29248535 -73.8125 111.4375 C-73.91536103 104.64645591 -73.98456584 97.85561823 -74.03222656 91.06396484 C-74.05213089 88.76180517 -74.07926429 86.4596946 -74.11425781 84.15771484 C-74.46781447 60.2718429 -72.33595949 37.47014273 -55.08935547 19.39672852 C-40.28047769 4.80346475 -20.22364348 -0.1643883 0 0 Z " fill="#000000" transform="translate(163.8125,78.5625)"/>
<path d="M0 0 C6.73235664 4.10544563 10.95766103 9.8729831 13.4375 17.3125 C13.33268311 18.16521484 13.22786621 19.01792969 13.11987305 19.89648438 C12.71288559 23.31662164 12.69432736 25.93831938 13.4375 29.3125 C16.33294394 32.84273195 19.6696406 35.26285887 23.5144043 37.70068359 C25.2509523 38.81311004 26.9122688 39.99996839 28.58398438 41.20703125 C34.57373271 45.33917192 34.57373271 45.33917192 41.5559082 45.90039062 C44.46493953 44.880532 44.46493953 44.880532 47.04931641 43.5 C52.47985963 40.79971762 57.93971768 41.91069929 63.5 43.75 C69.99988439 46.5994033 74.92899865 51.64263769 77.62890625 58.2109375 C79.79825892 66.53202939 79.36135499 74.64156017 75.0625 82.15234375 C71.30321143 87.14966725 66.35319174 90.3842288 60.4375 92.3125 C52.97522036 93.03983612 47.13274825 92.58889808 40.4375 89.3125 C36.7658999 89.70468271 34.27695487 91.60553362 31.3046875 93.69140625 C30.33402344 94.36494141 29.36335938 95.03847656 28.36328125 95.73242188 C27.35652344 96.43947266 26.34976563 97.14652344 25.3125 97.875 C23.31281203 99.27630612 21.3103474 100.67366106 19.3046875 102.06640625 C18.41894043 102.68845947 17.53319336 103.3105127 16.62060547 103.95141602 C14.4375 105.3125 14.4375 105.3125 12.4375 105.3125 C12.7675 105.9725 13.0975 106.6325 13.4375 107.3125 C14.24904799 115.70890038 12.96894787 122.41126484 7.6875 129.0625 C3.18304429 133.97033981 -2.13424291 136.8385988 -8.7890625 137.55078125 C-16.49452328 137.78922385 -22.99337966 136.45786191 -28.8984375 131.25390625 C-35.36731644 124.32963691 -37.08435133 118.7527749 -36.86328125 109.33984375 C-36.15375093 102.19846719 -33.37359274 97.74625405 -28.1875 92.875 C-21.110969 87.10596419 -14.53133236 86.46865825 -5.5625 87.3125 C-3.40625 88.0234375 -3.40625 88.0234375 -1.625 88.875 C1.92064194 90.53928091 2.78820564 90.44410611 6.4375 89.3125 C9.05227528 87.7195512 9.05227528 87.7195512 11.625 85.6875 C12.57632813 84.97335938 13.52765625 84.25921875 14.5078125 83.5234375 C15.47460938 82.79382813 16.44140625 82.06421875 17.4375 81.3125 C19.28426842 79.96893824 21.1379612 78.63481741 23 77.3125 C23.80566406 76.735 24.61132812 76.1575 25.44140625 75.5625 C27.4375 74.3125 27.4375 74.3125 29.4375 74.3125 C29.1075 73.3225 28.7775 72.3325 28.4375 71.3125 C28.60838196 69.73730108 28.7890847 68.16315375 28.9765625 66.58984375 C29.00711534 63.22597622 28.87194912 61.82119042 26.66308594 59.23486328 C24.13067761 57.2680296 21.54308806 55.55550795 18.8125 53.875 C17.90886719 53.27751953 17.00523438 52.68003906 16.07421875 52.06445312 C9.49882615 47.73536092 9.49882615 47.73536092 2.4375 44.3125 C0.41000996 45.25551862 -1.58538349 46.26798562 -3.5625 47.3125 C-11.77730877 49.10340618 -19.27104119 48.44817929 -26.56640625 44.125 C-32.49686053 39.61631769 -35.93626637 33.46193424 -37.04296875 26.12890625 C-37.37300812 18.55584059 -36.16841351 12.43526483 -31.5625 6.3125 C-23.25196906 -1.7467044 -10.92915424 -5.15171965 0 0 Z " fill="#018BFF" transform="translate(49.5625,152.6875)"/>
<path d="M0 0 C9.9 0 19.8 0 30 0 C30.06790275 20.19392915 30.12308949 40.38776487 30.15543652 60.58177948 C30.17085964 69.95967212 30.19186133 79.33748842 30.22631836 88.71533203 C30.25636096 96.89569196 30.27560804 105.07599655 30.28226548 113.25641012 C30.28615275 117.5818629 30.29519161 121.90715748 30.31719017 126.2325592 C30.33779106 130.31684761 30.343787 134.40091504 30.33932304 138.48525047 C30.34013783 139.97177017 30.34596132 141.45829849 30.35761642 142.94477272 C30.48049441 159.44792139 29.05841702 178.49978753 17 191 C6.24807598 200.38873366 -6.4755923 203.22723797 -20.4375 203.0625 C-22.933125 203.041875 -25.42875 203.02125 -28 203 C-28 194.42 -28 185.84 -28 177 C-20.8125 176.1875 -20.8125 176.1875 -18.57739258 175.95385742 C-14.33964629 175.43021963 -11.52595652 174.35278634 -8 172 C-7.34 172 -6.68 172 -6 172 C-0.99929419 162.37240777 -0.5550694 153.01471206 -0.56762695 142.36083984 C-0.55859528 140.80272654 -0.54826464 139.24462032 -0.53674316 137.68652344 C-0.50931187 133.48475115 -0.49990764 129.28311419 -0.49388909 125.08126402 C-0.48446908 120.67966127 -0.45826291 116.27815817 -0.43388367 111.87661743 C-0.39031437 103.55421804 -0.36170875 95.23183809 -0.33856028 86.90935957 C-0.31145715 77.42920201 -0.2675489 67.94914517 -0.22227156 58.46905971 C-0.12956238 38.97941324 -0.06003692 19.48977639 0 0 Z " fill="#000000" transform="translate(781,84)"/>
<path d="M0 0 C4.9730425 3.80291485 8.17112506 8.71080455 10.125 14.625 C11.20756697 23.31972209 10.2608044 30.42965983 5.125 37.625 C0.58756769 43.06070571 -4.93719865 45.54984365 -11.875 46.625 C-20.1444774 47.12116864 -26.44263368 44.80340321 -32.875 39.625 C-37.79205686 34.4770954 -39.92756217 28.84413654 -40.1875 21.75 C-39.97081136 13.70844391 -37.3337352 8.21792009 -31.8046875 2.390625 C-23.01680521 -5.65010941 -10.18910246 -5.89895406 0 0 Z " fill="#018BFF" transform="translate(810.875,26.375)"/>
</svg>
