<?xml version="1.0" encoding="UTF-8"?>
<svg version="1.1" xmlns="http://www.w3.org/2000/svg" width="1200" height="630">
<path d="M0 0 C0 0.66 0 1.32 0 2 C0.55171875 2.268125 1.1034375 2.53625 1.671875 2.8125 C4.25088039 4.12796584 6.75082068 5.53849162 9.25 7 C10.14203125 7.515625 11.0340625 8.03125 11.953125 8.5625 C12.96632813 9.2740625 12.96632813 9.2740625 14 10 C14 10.66 14 11.32 14 12 C15.65 12.66 17.3 13.32 19 14 C19 14.66 19 15.32 19 16 C19.928125 16.28875 20.85625 16.5775 21.8125 16.875 C25 18 25 18 28 20 C28 20.66 28 21.32 28 22 C28.72574219 22.268125 29.45148438 22.53625 30.19921875 22.8125 C32.96864024 23.98670381 35.30919434 25.3394324 37.8125 27 C38.60269531 27.515625 39.39289063 28.03125 40.20703125 28.5625 C41.09455078 29.2740625 41.09455078 29.2740625 42 30 C42 30.66 42 31.32 42 32 C42.639375 32.226875 43.27875 32.45375 43.9375 32.6875 C50.62782433 35.55478185 55.96245552 38.68259194 61 44 C61.928125 44.556875 62.85625 45.11375 63.8125 45.6875 C64.534375 46.120625 65.25625 46.55375 66 47 C66 47.66 66 48.32 66 49 C67.11375 49.37125 67.11375 49.37125 68.25 49.75 C71.47954425 51.21797466 72.8891561 52.12281391 75 55 C75.60197566 58.25954313 75.53055375 61.48679209 75.49447632 64.79321289 C75.49930515 65.79836221 75.50413398 66.80351152 75.50910914 67.83911991 C75.52040751 71.21722736 75.50303962 74.59458244 75.48583984 77.97265625 C75.48798502 80.39037278 75.49186169 82.8080883 75.49734497 85.22579956 C75.50604634 91.11687669 75.4961451 97.00774992 75.47764437 102.89878821 C75.45687892 109.75743685 75.45701668 116.6160369 75.45798953 123.47471106 C75.4589909 135.71137823 75.44066437 147.94794087 75.41162109 160.18457031 C75.383446 172.06154281 75.36927955 183.93842331 75.37060547 195.81542969 C75.37068538 196.54691809 75.37076529 197.2784065 75.37084763 198.03206122 C75.37092834 198.76227811 75.37100905 199.492495 75.3710922 200.24483967 C75.37247171 213.76147998 75.36069279 227.27808116 75.34278577 240.79470879 C75.33675128 245.57685506 75.33462643 250.35899414 75.33372116 255.1411438 C75.33221488 261.57612803 75.31953202 268.0110345 75.29938889 274.4459877 C75.29353567 276.81153901 75.2910888 279.17710149 75.29224396 281.54265976 C75.29322197 284.7641395 75.28194748 287.98534543 75.26742554 291.20678711 C75.27052274 292.14958055 75.27361995 293.09237398 75.276811 294.06373692 C75.26713767 295.35735598 75.26713767 295.35735598 75.25726891 296.67710876 C75.25586006 297.4207112 75.25445121 298.16431364 75.25299966 298.93044949 C74.85743236 302.16621075 73.68349029 304.32962223 71.37109375 306.59765625 C70.73300781 307.08105469 70.09492187 307.56445312 69.4375 308.0625 C68.81746094 308.54847656 68.19742187 309.03445313 67.55859375 309.53515625 C58.85174835 314.5199914 49.58772598 314.67771703 39.8125 315.125 C37.6519567 315.23376435 35.49165901 315.34611779 33.33146667 315.4616394 C31.37992309 315.56449436 29.42788193 315.65777869 27.47583008 315.75048828 C24.10850915 315.93188391 24.10850915 315.93188391 21.25541687 316.48654175 C17.65047707 317.05512825 14.07724075 317.29220846 10.4375 317.46484375 C9.70499023 317.50239777 8.97248047 317.53995178 8.21777344 317.5786438 C6.63663299 317.65926987 5.05541155 317.73832012 3.47412109 317.81594849 C0.96824877 317.93905991 -1.53737038 318.06650902 -4.04296875 318.19506836 C-10.26407972 318.51337364 -16.48555806 318.82424621 -22.70703125 319.13537598 C-27.97102871 319.39890913 -33.23486903 319.66526066 -38.49853516 319.93533325 C-40.9611316 320.06052405 -43.42390866 320.1815865 -45.88671875 320.30249023 C-47.4036562 320.37984245 -48.92058384 320.4573876 -50.4375 320.53515625 C-51.1171582 320.56739288 -51.79681641 320.59962952 -52.49707031 320.63284302 C-56.40075648 320.83800555 -60.14913812 321.35601043 -64 322 C-66.43285057 322.18206049 -68.86849985 322.32848262 -71.30517578 322.44897461 C-72.01210068 322.48492233 -72.71902557 322.52087006 -73.44737244 322.5579071 C-74.97771758 322.63527229 -76.50814399 322.71104312 -78.03863907 322.78538322 C-80.49174172 322.90460014 -82.9445946 323.02814559 -85.39743042 323.15272522 C-90.63976377 323.41817868 -95.88236463 323.67809028 -101.125 323.9375 C-107.11872785 324.23447198 -113.1123462 324.53344853 -119.10573578 324.83717728 C-120.78991001 324.9222608 -122.47411946 325.00664999 -124.15836334 325.09034348 C-132.57628722 325.5098464 -140.98454576 325.96280401 -149.38574219 326.64501953 C-150.6604538 326.74690079 -151.93516541 326.84878204 -153.24850464 326.95375061 C-155.56516118 327.14590824 -157.88087372 327.35005627 -160.19509888 327.56956482 C-169.79063317 328.37534602 -177.94933671 327.524965 -186 322 C-188.9375 319.375 -188.9375 319.375 -191 317 C-191 316.34 -191 315.68 -191 315 C-191.66 315 -192.32 315 -193 315 C-194.3980016 313.25832301 -195.72020603 311.45529359 -197 309.625 C-199.78064768 305.62788786 -199.78064768 305.62788786 -203 302 C-203 301.01 -203 300.02 -203 299 C-203.66 299 -204.32 299 -205 299 C-208 295.53846154 -208 295.53846154 -208 293 C-208.66 293 -209.32 293 -210 293 C-210 292.34 -210 291.68 -210 291 C-210.66 291 -211.32 291 -212 291 C-215.875 284.375 -215.875 284.375 -217 281 C-217.66 281 -218.32 281 -219 281 C-220.2890625 279.5390625 -220.2890625 279.5390625 -221.625 277.625 C-222.07101562 276.99851562 -222.51703125 276.37203125 -222.9765625 275.7265625 C-224 274 -224 274 -224 272 C-224.66 272 -225.32 272 -226 272 C-229 268.53846154 -229 268.53846154 -229 266 C-229.66 266 -230.32 266 -231 266 C-232.03013277 264.35178756 -233.02065076 262.67888441 -234 261 C-235.40780864 259.1283469 -236.84652906 257.28578315 -238.3046875 255.453125 C-238.86414063 254.64359375 -239.42359375 253.8340625 -240 253 C-240.40773714 252.49543652 -240.81547428 251.99087303 -241.23556709 251.47101974 C-246.80662655 243.43169688 -245.71360558 234.03562776 -245.67529297 224.67675781 C-245.6853928 222.70951663 -245.69766255 220.74228557 -245.71192932 218.77507019 C-245.74430524 213.44574849 -245.74598855 208.11681369 -245.74183035 202.78741169 C-245.74243015 197.18777793 -245.77044448 191.58827808 -245.79519653 185.9887085 C-245.83297184 176.57367686 -245.85253044 167.15875516 -245.859375 157.74365234 C-245.86903571 144.53065442 -245.91322997 131.31793602 -245.96360183 118.10504007 C-245.99733453 108.89504768 -246.02236626 99.68502823 -246.04601526 90.47500515 C-246.05178093 88.2581675 -246.05781525 86.04133054 -246.06412268 83.82449436 C-246.081949 77.48636374 -246.09425282 71.14826903 -246.09817314 64.81011391 C-246.10005856 62.90320649 -246.10361456 60.99629973 -246.10912132 59.08939934 C-246.14489535 46.0300477 -245.72697206 33.03918222 -245 20 C-244.34 20 -243.68 20 -243 20 C-242.95875 19.278125 -242.9175 18.55625 -242.875 17.8125 C-241.66218333 13.91416072 -239.38333495 12.05464329 -236 10 C-229.74606205 7.26001025 -223.61584009 6.44636192 -216.85546875 6.0859375 C-215.92326004 6.02596588 -214.99105133 5.96599426 -214.03059387 5.90420532 C-211.08346919 5.71647778 -208.13569871 5.54494448 -205.1875 5.375 C-202.22171534 5.19497834 -199.25619041 5.01153159 -196.29084778 4.82437134 C-194.45364821 4.70935996 -192.61615288 4.59895598 -190.77836609 4.4937439 C-189.9468251 4.44344025 -189.11528412 4.3931366 -188.25854492 4.34130859 C-187.16675179 4.27827042 -187.16675179 4.27827042 -186.05290222 4.21395874 C-184.01144232 4.05389178 -184.01144232 4.05389178 -182.1254425 3.50772095 C-179.32665923 2.83915386 -176.60700571 2.70458588 -173.734375 2.53515625 C-172.46625977 2.45837646 -171.19814453 2.38159668 -169.89160156 2.30249023 C-168.87942566 2.24386307 -168.87942566 2.24386307 -167.84680176 2.18405151 C-165.72804394 2.06122721 -163.60961569 1.93369328 -161.49121094 1.80493164 C-156.23094539 1.48617782 -150.97020581 1.1755467 -145.70947266 0.86462402 C-141.26057231 0.60137126 -136.81187584 0.33505541 -132.36340332 0.06466675 C-130.27857029 -0.06078088 -128.1935067 -0.18171677 -126.10839844 -0.30249023 C-124.8402832 -0.37927002 -123.57216797 -0.4560498 -122.265625 -0.53515625 C-121.14961914 -0.600979 -120.03361328 -0.66680176 -118.88378906 -0.73461914 C-116.44511163 -0.95903858 -114.35921967 -1.40724973 -112 -2 C-109.9885905 -2.18649915 -107.97313348 -2.33102195 -105.95654297 -2.44897461 C-104.73361542 -2.5225267 -103.51068787 -2.5960788 -102.2507019 -2.67185974 C-101.59862637 -2.70932249 -100.94655083 -2.74678524 -100.27471542 -2.78538322 C-98.21091247 -2.90414345 -96.14745353 -3.0278037 -94.08401489 -3.15272522 C-88.94658844 -3.46282811 -83.80873251 -3.76552482 -78.67077637 -4.06671143 C-73.65259872 -4.36098468 -68.63473539 -4.66001769 -63.6171875 -4.96484375 C-62.92276739 -5.00669485 -62.22834728 -5.04854595 -61.51288414 -5.09166527 C-52.16931408 -5.6601942 -42.89376303 -6.4287061 -33.61791992 -7.70214844 C-22.55172591 -8.61319214 -9.10585738 -6.7559587 0 0 Z M-68.75 14.4375 C-70.17664474 14.5385907 -70.17664474 14.5385907 -71.6321106 14.64172363 C-74.37489922 14.83853528 -77.11721766 15.04068556 -79.859375 15.24609375 C-80.67822678 15.30657394 -81.49707855 15.36705414 -82.34074402 15.42936707 C-85.65644349 15.6862193 -88.91500324 15.98698236 -92.20410156 16.49072266 C-98.07236793 17.27803959 -103.96651757 17.55441606 -109.875 17.90234375 C-111.24481196 17.98547048 -112.61460329 18.06893789 -113.984375 18.15272522 C-119.04293079 18.46142552 -124.10183792 18.76419315 -129.1607666 19.06671143 C-134.1073848 19.36273152 -139.05382698 19.66147082 -144 19.96484375 C-144.69200689 20.00725567 -145.38401379 20.04966759 -146.09699059 20.09336472 C-156.77470942 20.75250066 -167.42702946 21.59300445 -178.08056641 22.56469727 C-185.98128769 23.28045898 -193.89907918 23.75086097 -201.81835938 24.2109375 C-202.96498047 24.28570312 -204.11160156 24.36046875 -205.29296875 24.4375 C-206.2986792 24.49808594 -207.30438965 24.55867188 -208.34057617 24.62109375 C-210.97312836 24.99617141 -212.72229818 25.66268346 -215 27 C-215 28.65 -215 30.3 -215 32 C-214.34 32 -213.68 32 -213 32 C-213 32.66 -213 33.32 -213 34 C-211.45156729 35.41674287 -211.45156729 35.41674287 -209.4375 36.8125 C-208.70917969 37.34230469 -207.98085938 37.87210938 -207.23046875 38.41796875 C-205.84026322 39.40401645 -204.44747021 40.38643867 -203.05078125 41.36328125 C-202.15939453 41.98783203 -202.15939453 41.98783203 -201.25 42.625 C-200.71890625 42.98851562 -200.1878125 43.35203125 -199.640625 43.7265625 C-198 45 -198 45 -196.125 46.890625 C-187.77022424 55.18396859 -180.4584851 59.00227822 -168.875 59.1875 C-165.92126748 59.16791291 -163.18370476 59.03250757 -160.27368164 58.51756287 C-156.73195655 57.95762284 -153.27277428 57.72807531 -149.69140625 57.55102539 C-148.98459717 57.51507767 -148.27778809 57.47912994 -147.54956055 57.4420929 C-146.02083796 57.36475372 -144.49203547 57.288981 -142.96316528 57.21461678 C-140.52010005 57.09559052 -138.0773014 56.9720122 -135.63452148 56.84727478 C-129.55379755 56.53759429 -123.47274903 56.23452849 -117.39160156 55.93328857 C-111.44831201 55.63884036 -105.50523839 55.34053953 -99.5625 55.03515625 C-98.73007467 54.99243277 -97.89764935 54.94970928 -97.03999901 54.90569115 C-88.01297572 54.43738751 -79.01408108 53.91003642 -70.01953125 52.9921875 C-60.13732851 51.98579488 -50.24330523 51.50555729 -40.32421875 51.03515625 C-39.49019657 50.99514307 -38.65617439 50.95512989 -37.79687881 50.91390419 C-29.98791703 50.5394377 -22.17864475 50.17237401 -14.3684082 49.82543945 C-10.05012629 49.63308099 -5.73258709 49.42819707 -1.41526222 49.21548271 C0.20986411 49.1378349 1.83522054 49.06484228 3.46077919 48.99684334 C11.72706243 48.64985966 19.25483692 48.22215931 27 45 C27 44.01 27 43.02 27 42 C24.90925714 40.27679407 22.86229559 38.76008843 20.625 37.25 C19.99174805 36.81187988 19.35849609 36.37375977 18.70605469 35.92236328 C17.41955779 35.0327367 16.13049211 34.14681326 14.83886719 33.26464844 C11.48441851 30.9576856 8.19670797 28.55525043 4.890625 26.1796875 C3.0886161 24.82354382 3.0886161 24.82354382 1 25 C1 24.34 1 23.68 1 23 C0.34 23 -0.32 23 -1 23 C-1 22.34 -1 21.68 -1 21 C-3.24756784 19.84917315 -5.49781748 18.70423142 -7.75 17.5625 C-8.38421875 17.23701172 -9.0184375 16.91152344 -9.671875 16.57617188 C-26.30951194 8.17069905 -50.66722008 13.15077233 -68.75 14.4375 Z M32.48899841 69.6348877 C22.7953976 70.81178675 13.0908643 71.36431345 3.33984375 71.78125 C2.64035236 71.81133148 1.94086098 71.84141296 1.22017288 71.87240601 C-4.61162671 72.12110542 -10.44399648 72.35525188 -16.27642822 72.58856201 C-21.34213909 72.79173859 -26.40757388 73.00043521 -31.47265625 73.21875 C-32.52603526 73.26401573 -32.52603526 73.26401573 -33.60069466 73.31019592 C-41.07826307 73.63824921 -48.51175506 74.03209516 -55.9375 75 C-64.25234667 76.08060226 -72.59358915 76.43219807 -80.96484375 76.78125 C-81.68779696 76.81146744 -82.41075016 76.84168488 -83.15561104 76.87281799 C-88.41591092 77.09040263 -93.67664836 77.29626082 -98.9375 77.5 C-104.92609734 77.73212114 -110.91445807 77.96887802 -116.90234375 78.21875 C-117.62004692 78.24859482 -118.33775009 78.27843964 -119.07720184 78.30918884 C-128.86945054 78.72476336 -138.57968619 79.41129983 -148.31176758 80.57617188 C-153.78065348 81.20462133 -159.23591422 81.41164825 -164.734375 81.56640625 C-168.89213291 81.7295947 -172.24820918 82.14652565 -176 84 C-176 84.99 -176 85.98 -176 87 C-176.66 87 -177.32 87 -178 87 C-178 155.64 -178 224.28 -178 295 C-177.34 295 -176.68 295 -176 295 C-175.5978125 295.928125 -175.5978125 295.928125 -175.1875 296.875 C-174.04443152 299.2995233 -174.04443152 299.2995233 -171 301 C-168.16748864 301.20981566 -165.45822157 301.28120951 -162.625 301.25 C-161.72869873 301.24468262 -160.83239746 301.23936523 -159.90893555 301.23388672 C-150.53352286 301.11265624 -141.17376207 300.62650916 -131.8125 300.125 C-131.07549866 300.08588501 -130.33849731 300.04677002 -129.5791626 300.00646973 C-121.04259191 299.5455456 -112.52096887 298.9718103 -103.99964905 298.28353882 C-87.30643929 296.93933835 -70.60269741 296.15160047 -53.87329102 295.41143799 C-39.06210675 294.75524056 -24.29021801 294.02589721 -9.52183533 292.70739746 C1.58350542 291.73320652 12.7080704 291.31363002 23.84594727 290.89550781 C26.55520174 290.79180884 29.26387194 290.67774528 31.97265625 290.5625 C32.77993668 290.53534912 33.5872171 290.50819824 34.41896057 290.48022461 C39.19492614 290.27090591 43.54192491 289.87492652 48 288 C51.97685861 283.3225774 52.5754161 279.385294 52.50793457 273.4468689 C52.51417453 272.59926927 52.5204145 271.75166965 52.52684355 270.87838519 C52.5427662 268.04542873 52.53017231 265.21333355 52.51757812 262.38037109 C52.52299948 260.34658812 52.53012222 258.31280908 52.53881836 256.27903748 C52.55705059 250.76060716 52.54998509 245.24247604 52.53730202 239.72404051 C52.52717667 233.95099804 52.53656615 228.17798122 52.54284668 222.40493774 C52.55012325 212.71229449 52.54053383 203.01977318 52.52148438 193.32714844 C52.49970342 182.11508468 52.50677595 170.90331172 52.52879 159.69125497 C52.54692901 150.06819585 52.54951001 140.44522438 52.53903532 130.82215369 C52.53279374 125.07308217 52.53198332 119.32414746 52.54518127 113.57508469 C52.55671772 108.17250733 52.54875429 102.7703059 52.52560425 97.36776924 C52.5203059 95.38278007 52.52185009 93.39775938 52.53065491 91.41278267 C52.54154923 88.70781292 52.52792135 86.00405581 52.50793457 83.29916382 C52.51685746 82.50948161 52.52578034 81.71979939 52.53497362 80.90618742 C52.48419709 77.37540181 52.30625017 75.39769339 50.12059784 72.55942726 C44.32635725 68.29850774 39.36823763 68.7867857 32.48899841 69.6348877 Z " fill="#070707" transform="translate(685,155)"/>
<path d="M0 0 C-0.52268466 2.76276177 -1.10869587 5.3260876 -2 8 C-2.66 8 -3.32 8 -4 8 C-4 8.66 -4 9.32 -4 10 C-5.9570868 10.67031719 -7.91571113 11.33614683 -9.875 12 C-11.51082031 12.556875 -11.51082031 12.556875 -13.1796875 13.125 C-16 14 -16 14 -18 14 C-18 60.86 -18 107.72 -18 156 C-36.94505495 165.47252747 -36.94505495 165.47252747 -47 163 C-49.76269893 161.82074125 -52.3931378 160.49062599 -55 159 C-55 158.34 -55 157.68 -55 157 C-55.66 157 -56.32 157 -57 157 C-58.56656536 155.13617367 -60.01060769 153.2787991 -61.4375 151.3125 C-62.21996094 150.25675781 -63.00242187 149.20101562 -63.80859375 148.11328125 C-69 140.73796791 -69 140.73796791 -69 138 C-69.66 138 -70.32 138 -71 138 C-71 136.68 -71 135.36 -71 134 C-71.66 134 -72.32 134 -73 134 C-75.74375671 131.04518508 -76 130.22528092 -76 126 C-76.66 126 -77.32 126 -78 126 C-79.2890625 124.3203125 -79.2890625 124.3203125 -80.625 122.125 C-81.07101562 121.40570313 -81.51703125 120.68640625 -81.9765625 119.9453125 C-83 118 -83 118 -83 116 C-83.66 116 -84.32 116 -85 116 C-85.4021875 114.8553125 -85.4021875 114.8553125 -85.8125 113.6875 C-86.78471966 111.04982471 -86.78471966 111.04982471 -88.375 109.625 C-90.40195943 107.59804057 -91.64233922 105.2756675 -93.015625 102.77734375 C-93.87845607 101.21945432 -94.80916317 99.69955919 -95.75 98.1875 C-97 96 -97 96 -97 94 C-97.66 94 -98.32 94 -99 94 C-103.42857143 86.71428571 -103.42857143 86.71428571 -104 82 C-104.66 82 -105.32 82 -106 82 C-107.65625 79.98828125 -107.65625 79.98828125 -109.5 77.3125 C-110.1084375 76.44238281 -110.716875 75.57226562 -111.34375 74.67578125 C-112.9001121 72.1613755 -113.94444455 69.750983 -115 67 C-115.53625 66.29875 -116.0725 65.5975 -116.625 64.875 C-118 63 -118 63 -118 60 C-120.97 59.505 -120.97 59.505 -124 59 C-124.79063101 62.48777213 -125.12624367 65.70635185 -125.12939453 69.27978516 C-125.13412277 70.83024033 -125.13412277 70.83024033 -125.13894653 72.41201782 C-125.1369223 73.52644257 -125.13489807 74.64086731 -125.1328125 75.7890625 C-125.13376923 76.96093109 -125.13472595 78.13279968 -125.13571167 79.34017944 C-125.13639265 81.83339491 -125.1345441 84.32661215 -125.13037109 86.81982422 C-125.12512721 90.53487447 -125.13026298 94.24979781 -125.13671875 97.96484375 C-125.14080816 114.32986158 -124.72964374 130.65156725 -124 147 C-123.31229523 147.13449554 -122.62459045 147.26899109 -121.91604614 147.40756226 C-121.01449799 147.58550323 -120.11294983 147.76344421 -119.18408203 147.94677734 C-117.84314987 148.21039566 -117.84314987 148.21039566 -116.47512817 148.4793396 C-113.86796248 149.02777501 -111.38557524 149.73415072 -108.875 150.625 C-108.12992188 150.88539063 -107.38484375 151.14578125 -106.6171875 151.4140625 C-106.08351563 151.60742188 -105.54984375 151.80078125 -105 152 C-105.82837045 156.27839682 -107.73276441 158.11267552 -111 161 C-116.42789005 164.50186455 -123.38733112 164.22454237 -129.65234375 164.53515625 C-130.47070206 164.57813339 -131.28906036 164.62111053 -132.13221741 164.66539001 C-133.85588335 164.75519477 -135.5796362 164.84334507 -137.3034668 164.92993164 C-139.92584188 165.06191326 -142.54787937 165.19947432 -145.16992188 165.33789062 C-146.85154546 165.42480951 -148.53318561 165.51140863 -150.21484375 165.59765625 C-150.99109604 165.63826675 -151.76734833 165.67887726 -152.56712341 165.72071838 C-157.05148802 165.94353922 -161.5100859 166.03826104 -166 166 C-167.1875 164.3125 -167.1875 164.3125 -168 162 C-165.9695907 157.37600218 -163.42546609 155.79788017 -158.9375 153.6875 C-157.87402344 153.17574219 -156.81054688 152.66398438 -155.71484375 152.13671875 C-153 151 -153 151 -151 151 C-151 109.42 -151 67.84 -151 25 C-154.63 24.67 -158.26 24.34 -162 24 C-164.475 23.01 -164.475 23.01 -167 22 C-167 19.36 -167 16.72 -167 14 C-166.34 14 -165.68 14 -165 14 C-165 13.34 -165 12.68 -165 12 C-164.34 12 -163.68 12 -163 12 C-163 11.34 -163 10.68 -163 10 C-155.01706549 6.78574914 -147.34383509 6.29096278 -138.8125 5.875 C-137.47845158 5.80194149 -136.14446586 5.72772853 -134.81054688 5.65234375 C-132.17182369 5.50466852 -129.53264327 5.36493555 -126.89306641 5.23339844 C-124.29296962 5.07751655 -121.69537832 4.87216963 -119.10302734 4.61816406 C-117.26345459 4.43979004 -117.26345459 4.43979004 -115.38671875 4.2578125 C-114.29963623 4.13809082 -113.21255371 4.01836914 -112.0925293 3.89501953 C-108.34681629 4.02217328 -106.16163606 5.02919219 -103 7 C-101.6875 9.5 -101.6875 9.5 -101 12 C-100.505 13.485 -100.505 13.485 -100 15 C-99.34 15 -98.68 15 -98 15 C-98 16.32 -98 17.64 -98 19 C-97.34 19 -96.68 19 -96 19 C-92.47885604 21.49414364 -91.98696333 24.97622641 -91 29 C-90.34 29 -89.68 29 -89 29 C-88.5978125 30.1446875 -88.5978125 30.1446875 -88.1875 31.3125 C-87.2011342 34.00425723 -87.2011342 34.00425723 -85.375 35.5625 C-84 37 -84 37 -84 41 C-83.34 41 -82.68 41 -82 41 C-80.7109375 42.6796875 -80.7109375 42.6796875 -79.375 44.875 C-78.92898438 45.59429687 -78.48296875 46.31359375 -78.0234375 47.0546875 C-77 49 -77 49 -77 51 C-76.34 51 -75.68 51 -75 51 C-74.505 53.475 -74.505 53.475 -74 56 C-73.34 56 -72.68 56 -72 56 C-70.7109375 57.6796875 -70.7109375 57.6796875 -69.375 59.875 C-68.92898438 60.59429687 -68.48296875 61.31359375 -68.0234375 62.0546875 C-67 64 -67 64 -67 66 C-66.34 66 -65.68 66 -65 66 C-64.34 67.98 -63.68 69.96 -63 72 C-62.34 72 -61.68 72 -61 72 C-59.30859375 74.51953125 -59.30859375 74.51953125 -57.4375 77.8125 C-56.81746094 78.89144531 -56.19742188 79.97039062 -55.55859375 81.08203125 C-54 84 -54 84 -53 87 C-52.34 87 -51.68 87 -51 87 C-50.773125 87.556875 -50.54625 88.11375 -50.3125 88.6875 C-48.63848923 91.63694755 -46.45043651 93.6752269 -44 96 C-43.67 96.33 -43.34 96.66 -43 97 C-42.12650183 92.49039434 -41.87345758 88.22398932 -41.87060547 83.63354492 C-41.86885315 82.9222644 -41.86710083 82.21098389 -41.86529541 81.47814941 C-41.86092165 79.14556382 -41.86379744 76.81305501 -41.8671875 74.48046875 C-41.86651355 72.85476161 -41.86554276 71.22905457 -41.86428833 69.60334778 C-41.86281775 66.20666539 -41.86494673 62.81000939 -41.86962891 59.41333008 C-41.8753486 55.05063645 -41.87202906 50.68800404 -41.86605644 46.32531261 C-41.86245291 42.97371453 -41.86358805 39.62213112 -41.86618423 36.27053261 C-41.86685291 34.66090195 -41.86602715 33.05126998 -41.86370468 31.44164085 C-41.86117912 29.2008851 -41.86501629 26.96023059 -41.87060547 24.71948242 C-41.87140106 23.4429631 -41.87219666 22.16644379 -41.87301636 20.85124207 C-41.67413172 18.10088633 -41.67413172 18.10088633 -43 17 C-46.58756888 16.54191598 -50.17963112 16.16262183 -53.77734375 15.79296875 C-57 15 -57 15 -58.49609375 13.09765625 C-59.19089138 10.20535914 -58.30210634 8.60421267 -57 6 C-56.34 6 -55.68 6 -55 6 C-54.67 5.01 -54.34 4.02 -54 3 C-49.17731552 0.81701168 -44.29946596 0.506802 -39.09375 0.1484375 C-38.25082397 0.08467926 -37.40789795 0.02092102 -36.53942871 -0.04476929 C-34.76466867 -0.17763188 -32.98963231 -0.30684826 -31.21435547 -0.43261719 C-28.50816038 -0.62442162 -25.80292403 -0.82681923 -23.09765625 -1.03125 C-21.36723315 -1.15947176 -19.63676565 -1.28709599 -17.90625 -1.4140625 C-17.10296265 -1.47340973 -16.29967529 -1.53275696 -15.4720459 -1.59390259 C-3.64098737 -2.42732491 -3.64098737 -2.42732491 0 0 Z " fill="#070707" transform="translate(708,261)"/>
<path d="M0 0 C0.99 0 1.98 0 3 0 C3 29.37 3 58.74 3 89 C2.34 89 1.68 89 1 89 C-0.21485385 87.27578573 -1.34818704 85.49365116 -2.4375 83.6875 C-4.42108618 80.41008439 -6.25815583 77.66072452 -9 75 C-9.6875 72.8125 -9.6875 72.8125 -10 71 C-9.34 71 -8.68 71 -8 71 C-7.773125 71.556875 -7.54625 72.11375 -7.3125 72.6875 C-5.63848923 75.63694755 -3.45043651 77.6752269 -1 80 C-0.67 80.33 -0.34 80.66 0 81 C0.87214352 76.49562951 1.12653903 72.23447366 1.12939453 67.64941406 C1.13114685 66.93973984 1.13289917 66.23006561 1.13470459 65.49888611 C1.13907884 63.17110698 1.13620206 60.84340479 1.1328125 58.515625 C1.13348651 56.89231349 1.13445735 55.26900208 1.13571167 53.64569092 C1.13718238 50.25320469 1.13505312 46.86074487 1.13037109 43.46826172 C1.12465593 39.1146346 1.12796803 34.7610689 1.13394356 30.407444 C1.13755057 27.06009454 1.13641025 23.71275974 1.13381577 20.36540985 C1.13314783 18.7593968 1.13397029 17.15338242 1.13629532 15.54737091 C1.13882609 13.30921374 1.13497607 11.07115744 1.12939453 8.83300781 C1.12859894 7.55870911 1.12780334 6.2844104 1.12698364 4.97149658 C1.20577296 2.07103067 1.20577296 2.07103067 0 0 Z " fill="#818181" transform="translate(665,277)"/>
<path d="M0 0 C0.66 0 1.32 0 2 0 C2.226875 0.556875 2.45375 1.11375 2.6875 1.6875 C4.36151077 4.63694755 6.54956349 6.6752269 9 9 C9.33 9.33 9.66 9.66 10 10 C10.33 8.02 10.66 6.04 11 4 C11.33 4 11.66 4 12 4 C12 8.29 12 12.58 12 17 C9.20015593 14.20015593 6.74400356 11.58025613 4.3125 8.5 C3.71050781 7.7471875 3.10851562 6.994375 2.48828125 6.21875 C1.05064047 4.0754955 0.42961229 2.52039209 0 0 Z " fill="#EFEFEF" transform="translate(655,348)"/>
<path d="M0 0 C1.70884005 1.62339805 3.37446717 3.29319053 5 5 C5 5.66 5 6.32 5 7 C3.68 7 2.36 7 1 7 C0.67 7.99 0.34 8.98 0 10 C0 6.7 0 3.4 0 0 Z " fill="#E7E7E7" transform="translate(583,313)"/>
<path d="M0 0 C0.66 0 1.32 0 2 0 C2.268125 0.61875 2.53625 1.2375 2.8125 1.875 C3.95556848 4.2995233 3.95556848 4.2995233 7 6 C6.67 6.99 6.34 7.98 6 9 C0.42857143 3.85714286 0.42857143 3.85714286 0 0 Z " fill="#BEBEBE" transform="translate(655,348)"/>
</svg>
