<?xml version="1.0" encoding="UTF-8"?>
<svg version="1.1" xmlns="http://www.w3.org/2000/svg" width="568" height="282">
<path d="M0 0 C4.01824276 0.62321139 7.20794095 1.9074973 10.84765625 3.703125 C11.99733887 4.26531738 13.14702148 4.82750977 14.33154297 5.40673828 C14.93947693 5.70710999 15.54741089 6.00748169 16.17376709 6.31695557 C19.40552994 7.91346417 22.64616409 9.49174459 25.88671875 11.0703125 C26.88677948 11.55810684 26.88677948 11.55810684 27.90704346 12.05575562 C36.17744454 16.07792163 44.53452916 19.91286492 52.89868164 23.73535156 C53.99172607 24.23776367 55.08477051 24.74017578 56.2109375 25.2578125 C57.16274902 25.6923877 58.11456055 26.12696289 59.09521484 26.57470703 C60.05379395 27.04505371 61.01237305 27.51540039 62 28 C63.21067139 28.51739746 64.42134277 29.03479492 65.66870117 29.56787109 C68.73428379 31.36187579 69.69870912 32.98316773 70.80444336 36.33789062 C71.26202063 38.10338734 71.6888894 39.87703915 72.08984375 41.65625 C72.32409561 42.59553345 72.55834747 43.53481689 72.79969788 44.50256348 C73.5388574 47.49594272 74.23792639 50.49715186 74.9375 53.5 C75.43306452 55.52014182 75.93108552 57.53968272 76.43164062 59.55859375 C77.33588404 63.25643612 78.23695033 66.9547239 79.10131836 70.66210938 C79.27561874 71.40505249 79.44991913 72.14799561 79.62950134 72.91345215 C80 75 80 75 80 79 C80.66 79 81.32 79 82 79 C82.23589844 78.19175781 82.47179687 77.38351563 82.71484375 76.55078125 C84.29146591 72.19470361 86.36996113 68.26013056 88.5625 64.1875 C88.99997559 63.36596436 89.43745117 62.54442871 89.88818359 61.69799805 C90.79851351 59.98879716 91.71064352 58.28055387 92.62451172 56.57324219 C94.39918621 53.25320862 96.15877322 49.92530651 97.91772461 46.59692383 C99.60908811 43.39650153 101.30461721 40.19829459 103 37 C103.99 37 104.98 37 106 37 C106.37584229 37.75953979 106.37584229 37.75953979 106.75927734 38.53442383 C111.5867614 48.27587067 116.46276236 57.99004657 121.5 67.625 C121.92071777 68.43557861 122.34143555 69.24615723 122.77490234 70.08129883 C123.16887207 70.83048584 123.5628418 71.57967285 123.96875 72.3515625 C124.31357422 73.00979004 124.65839844 73.66801758 125.01367188 74.34619141 C126.01452861 76.17793415 126.01452861 76.17793415 128 78 C128.08815979 77.44004837 128.17631958 76.88009674 128.26715088 76.30317688 C134.85314619 35.59052417 134.85314619 35.59052417 142.88134766 27.70751953 C149.36406534 23.11769607 156.59237421 21.07704154 164.21484375 19.11230469 C170.70868777 17.20402596 176.54976881 14.06403111 182.5625 11 C184.70676685 9.95244111 186.85378294 8.91048525 189.00390625 7.875 C189.99922363 7.39546875 190.99454102 6.9159375 192.02001953 6.421875 C195.0567289 4.97293224 198.09889048 3.53833251 201.15234375 2.125 C202.48060181 1.51011719 202.48060181 1.51011719 203.83569336 0.8828125 C206 -0 206 -0 208 0 C206.32191226 4.81620663 203.73430263 8.93913409 201.0625 13.25 C200.57450928 14.042854 200.08651855 14.83570801 199.58374023 15.65258789 C195.86500921 21.66784869 192.05058507 27.61768268 188.19091797 33.54321289 C184.81261241 38.73085752 181.48678945 43.94927361 178.1875 49.1875 C173.84966328 56.07297752 169.49600597 62.94802416 165.125 69.8125 C164.54145752 70.72902344 163.95791504 71.64554687 163.35668945 72.58984375 C160.97453171 76.33066525 158.59174365 80.07108508 156.20898438 83.81152344 C149.64218448 94.12104043 143.08550498 104.43655897 136.56494141 114.77539062 C130.4059606 124.53554673 124.20186301 134.26705844 118 144 C126.23499024 133.82279508 133.91543556 123.21232794 141.42993164 112.49682617 C146.66564711 105.03285804 152.00963544 97.64893796 157.35888672 90.26611328 C160.07648173 86.513552 162.78794473 82.75656581 165.5 79 C166.58330362 77.49997854 167.66663696 75.99997854 168.75 74.5 C169.28625 73.7575 169.8225 73.015 170.375 72.25 C172 70 173.625 67.75 175.25 65.5 C175.75500031 64.79812561 176.26000061 64.09625122 176.78030396 63.37310791 C177.86436463 61.87714997 178.95747516 60.38766937 180.0632019 58.90765381 C182.79905443 55.21682341 185.29040268 51.58874831 187.41064453 47.50878906 C192.97863613 37.44789794 198.9507836 32.54269616 210.07294464 29.27668762 C215.44726597 27.78241797 220.85459767 26.47210261 226.29284668 25.23321533 C229.73231632 24.43500108 233.15208966 23.56042835 236.57421875 22.69140625 C241.87368113 21.35460511 247.18113688 20.0604336 252.49902344 18.79882812 C259.51654969 17.12988997 266.50083253 15.35076026 273.4765625 13.515625 C274.45184906 13.25916199 275.42713562 13.00269897 276.43197632 12.73846436 C278.62186159 12.16099815 280.81125423 11.58176754 283 11 C281.08399704 15.2760899 278.11178181 17.7472304 274.5625 20.6875 C273.93142334 21.21931885 273.30034668 21.7511377 272.65014648 22.29907227 C268.10833435 26.1152049 263.50734787 29.85820357 258.90234375 33.59765625 C254.77244783 37.01607616 250.73527988 40.53766778 246.69213867 44.05786133 C241.03600979 48.98000517 235.32240409 53.83064755 229.58837891 58.66162109 C226.91091047 60.91767427 224.23627043 63.17706606 221.5625 65.4375 C221.03011719 65.88738281 220.49773437 66.33726563 219.94921875 66.80078125 C216.50778995 69.71275946 213.08328959 72.64371267 209.66601562 75.58398438 C205.00818074 79.59165256 200.33696364 83.56841613 195.5625 87.4375 C190.51145932 91.53915271 185.59871604 95.78591011 180.69213867 100.05786133 C175.03600979 104.98000517 169.32240409 109.83064755 163.58837891 114.66162109 C160.91091047 116.91767427 158.23627043 119.17706606 155.5625 121.4375 C155.03011719 121.88738281 154.49773437 122.33726563 153.94921875 122.80078125 C149.3154722 126.72164371 144.71524359 130.68094125 140.11425781 134.64013672 C135.54278134 138.56203648 130.89893142 142.38271938 126.20703125 146.16015625 C124.35858612 147.70107245 122.68426505 149.28735694 121 151 C130.53665264 144.30019973 140.0357845 137.55301292 149.47607422 130.71801758 C153.97276461 127.46261632 158.47875242 124.22119994 163 121 C168.26371892 117.24806212 173.51061281 113.47333998 178.75 109.6875 C179.50724365 109.14037354 180.2644873 108.59324707 181.04467773 108.02954102 C184.88165963 105.25629293 188.71701171 102.480812 192.55078125 99.703125 C200.53420441 93.92265032 208.5464862 88.18828386 216.60791016 82.51708984 C224.02946453 77.28892951 231.38265054 71.967477 238.73388672 66.64111328 C242.48644805 63.92351823 246.24345497 61.21208413 250 58.5 C251.48178362 57.4297052 252.96355441 56.35939264 254.4453125 55.2890625 C257.62688198 52.99118537 260.80931182 50.69450498 263.9921875 48.3984375 C265.21808594 47.51381836 265.21808594 47.51381836 266.46875 46.61132812 C268.03363654 45.48212022 269.59872956 44.35319839 271.1640625 43.22460938 C272.22367187 42.45987305 272.22367187 42.45987305 273.3046875 41.6796875 C273.92327637 41.23351074 274.54186523 40.78733398 275.17919922 40.32763672 C277.01789863 39.05405865 277.01789863 39.05405865 278.51863098 37.51289368 C282.29583764 35.20992623 286.1792986 34.99496183 290.52270508 34.46606445 C291.96975075 34.27521271 291.96975075 34.27521271 293.44602966 34.08050537 C296.63578645 33.66292541 299.82747595 33.26287947 303.01953125 32.86328125 C305.23919058 32.5770422 307.45872762 32.28985332 309.67814636 32.00175476 C314.33179368 31.40021022 318.9863702 30.80670796 323.6418457 30.21948242 C329.60179468 29.46756849 335.55977026 28.70123296 341.51718616 27.92953205 C346.10209853 27.33630948 350.6876356 26.74804784 355.2734127 26.16155052 C357.46991035 25.8805541 359.66629359 25.59866193 361.86255836 25.31585121 C364.93751166 24.92120371 368.01316463 24.53257069 371.08911133 24.14575195 C371.99273407 24.02890549 372.89635681 23.91205902 373.82736206 23.79167175 C378.59563708 23.19907092 383.19505706 22.88055155 388 23 C384.28560145 26.08509035 380.13047696 28.07185626 375.83276367 30.20507812 C374.5998333 30.82296707 374.5998333 30.82296707 373.34199524 31.45333862 C370.61925934 32.81656029 367.89368049 34.17398942 365.16796875 35.53125 C363.25565724 36.48680873 361.34349435 37.44266496 359.43147278 38.39880371 C355.41021861 40.40864786 351.38763481 42.41579718 347.36401367 44.42089844 C342.2750193 46.95700623 337.18858832 49.49820102 332.10309887 52.04132843 C328.14235568 54.02156196 324.18056017 55.9996826 320.2184391 57.97715759 C318.34765098 58.91098812 316.47708538 59.84526462 314.60677147 60.78004456 C304.64349277 65.75748577 294.65220359 70.66416936 284.5949707 75.44921875 C274.03939671 80.47332763 263.56893119 85.65562766 253.12200928 90.90141296 C250.01480964 92.461578 246.90623875 94.01898287 243.79736328 95.57580566 C237.19708814 98.88157043 230.5984131 102.19052044 224 105.5 C216.33452059 109.34467402 208.66833195 113.18792073 201.00042725 117.02775574 C197.98527181 118.53849835 194.97136124 120.05170225 191.95751953 121.56506348 C180.37569122 127.37115958 168.73089081 133.02823618 157.03317261 138.59695435 C151.51310058 141.2266913 146.02836905 143.91936789 140.56640625 146.66796875 C139.66671616 147.11852127 138.76702606 147.56907379 137.84007263 148.03327942 C135.07990081 149.41607379 132.32116254 150.80169758 129.5625 152.1875 C127.64397672 153.14928109 125.72535717 154.11087015 123.80664062 155.07226562 C119.20332334 157.37931653 114.60128467 159.688898 110 162 C109.23300781 161.17113281 108.46601563 160.34226563 107.67578125 159.48828125 C106.79277344 158.66714844 105.90976562 157.84601563 105 157 C102.239835 157.04979584 102.239835 157.04979584 100 158 C92.97269861 147.59897206 86.19521016 137.05834887 79.5234375 126.42626953 C77.06391494 122.50916453 74.59478972 118.59813687 72.125 114.6875 C71.63386719 113.90963135 71.14273438 113.1317627 70.63671875 112.33032227 C64.4498421 102.53743175 58.22351467 92.76962853 52 83 C44.82689899 71.73971766 37.66080996 60.4754005 30.53857422 49.18286133 C26.70769239 43.11212385 22.85639737 37.05455442 19 31 C17.24941758 28.24967508 15.49911644 25.49917152 13.74902344 22.74853516 C12.57040844 20.89637887 11.39136301 19.04449643 10.21191406 17.19287109 C8.51399646 14.52585459 6.81910606 11.85693876 5.125 9.1875 C4.60679687 8.37474609 4.08859375 7.56199219 3.5546875 6.72460938 C3.08546875 5.98404297 2.61625 5.24347656 2.1328125 4.48046875 C1.71918457 3.82973389 1.30555664 3.17899902 0.87939453 2.50854492 C0 1 0 1 0 0 Z M116 146 C116 149 116 149 116 149 Z M113 150 C114 152 114 152 114 152 Z M111 153 C112 155 112 155 112 155 Z " fill="#C02026" transform="translate(180,1)"/>
<path d="M0 0 C19.14644432 4.81076914 38.23386628 9.82014477 57.26657104 15.06387329 C59.37875897 15.6458049 61.49132842 16.22635353 63.60427856 16.80551147 C66.59033239 17.62489294 69.57470293 18.4501246 72.55859375 19.27734375 C73.45504608 19.52284973 74.35149841 19.76835571 75.27511597 20.02130127 C76.10399323 20.25266785 76.93287048 20.48403442 77.78686523 20.72241211 C78.50736557 20.92176865 79.22786591 21.12112518 79.97019958 21.32652283 C83.83478937 22.60877353 86.25724386 23.89497139 88.55859375 27.28125 C89.01999756 27.94890381 89.48140137 28.61655762 89.95678711 29.30444336 C90.44542236 30.02897705 90.93405762 30.75351074 91.4375 31.5 C92.50938733 33.05409587 93.58233907 34.60745803 94.65625 36.16015625 C95.20796875 36.96211426 95.7596875 37.76407227 96.328125 38.59033203 C98.97881939 42.41076919 101.7064451 46.17429071 104.4375 49.9375 C105.52998792 51.44658563 106.62243563 52.95570036 107.71484375 54.46484375 C108.52864502 55.58802002 108.52864502 55.58802002 109.35888672 56.73388672 C112.07648173 60.486448 114.78794473 64.24343419 117.5 68 C118.58330362 69.50002146 119.66663696 71.00002146 120.75 72.5 C140.25 99.5 140.25 99.5 141.87548828 101.75073242 C142.95712268 103.24834254 144.03882823 104.74590126 145.12060547 106.2434082 C147.85552295 110.02955187 150.58913719 113.81662455 153.3203125 117.60546875 C153.8678418 118.36456543 154.41537109 119.12366211 154.97949219 119.90576172 C156.06675614 121.41341289 157.15335712 122.92154242 158.23925781 124.43017578 C160.87341405 128.08335576 163.52725671 131.71884653 166.2265625 135.32421875 C166.73622559 136.00782471 167.24588867 136.69143066 167.77099609 137.39575195 C168.72940882 138.67832904 169.69297185 139.95708002 170.66259766 141.23120117 C174.54305376 146.43230437 174.54305376 146.43230437 175 150 C170.1195043 149.36169373 166.16355407 147.31924937 161.80859375 145.16015625 C161.00324692 144.76645844 160.19790009 144.37276062 159.3681488 143.96713257 C156.72172869 142.67135011 154.0795992 141.36706724 151.4375 140.0625 C149.5921438 139.15660717 147.74660113 138.2510941 145.90087891 137.34594727 C132.34046314 130.68645198 118.82762154 123.93234137 105.32641602 117.15380859 C96.69584841 112.82413131 88.02871622 108.59190024 79.29638672 104.47045898 C69.12046165 99.63621497 59.06860757 94.55264966 49 89.5 C32.81589514 81.36546149 32.81589514 81.36546149 16.5 73.5 C4.62304961 67.9043073 -7.08616432 61.97312481 -18.81982422 56.08496094 C-29.48637861 50.7340208 -40.16190539 45.42410129 -50.95996094 40.34228516 C-63.40403244 34.44515989 -75.67482934 28.18486375 -87.97460938 21.99414062 C-88.8761676 21.54124664 -89.77772583 21.08835266 -90.706604 20.62173462 C-92.41984932 19.76100346 -94.13224913 18.89858677 -95.84368896 18.03427124 C-96.61102356 17.64897247 -97.37835815 17.26367371 -98.16894531 16.86669922 C-98.83903625 16.52903534 -99.5091272 16.19137146 -100.19952393 15.84347534 C-102.16289847 14.88120223 -102.16289847 14.88120223 -105 14 C-105 13.34 -105 12.68 -105 12 C-85.18871371 14.12174584 -65.40680852 16.46560786 -45.63800812 18.95036888 C-41.21641587 19.50601016 -36.7942313 20.05534936 -32.37011719 20.59057617 C-28.00597989 21.11866676 -23.64395044 21.6617368 -19.28299713 22.21548653 C-17.64269942 22.42124419 -16.00173991 22.62180166 -14.36013031 22.81681633 C-12.08014119 23.0886977 -9.80337146 23.37982786 -7.52636719 23.67553711 C-5.59334747 23.91511391 -5.59334747 23.91511391 -3.62127686 24.15953064 C1.98691682 25.46114748 6.36162281 28.3934467 10.98828125 31.77734375 C11.6851001 32.28402588 12.38191895 32.79070801 13.09985352 33.31274414 C13.83002686 33.84891357 14.5602002 34.38508301 15.3125 34.9375 C16.91141417 36.10162317 18.51037378 37.26568391 20.109375 38.4296875 C20.92083984 39.02233398 21.73230469 39.61498047 22.56835938 40.22558594 C26.39176342 43.01559604 30.22621206 45.79024304 34.0625 48.5625 C34.80669189 49.10060303 35.55088379 49.63870605 36.31762695 50.19311523 C42.05067546 54.33154098 47.82192937 58.41362338 53.60571289 62.48071289 C59.52979108 66.65255074 65.40240075 70.89313377 71.26953125 75.14453125 C76.32082208 78.79995588 81.39952352 82.41357962 86.5 86 C93.12922712 90.66136749 99.70728537 95.38944431 106.26953125 100.14453125 C111.32082344 103.79995686 116.39958375 107.4134924 121.5 111 C134.09889761 119.86186171 146.55361314 128.92565187 159 138 C151.41672615 130.33518557 143.40261468 123.24996756 135.015625 116.48046875 C131.45329778 113.55031618 127.97529204 110.53237122 124.5 107.5 C120.21797219 103.76581042 115.91667953 100.07540724 111.5 96.5 C106.46651459 92.42242873 101.57666691 88.19494085 96.69189453 83.94189453 C91.03580629 79.01987908 85.32231652 74.16927867 79.58837891 69.33837891 C76.91091047 67.08232573 74.23627043 64.82293394 71.5625 62.5625 C71.03011719 62.11261719 70.49773437 61.66273437 69.94921875 61.19921875 C65.90655238 57.77850105 61.88928039 54.32894463 57.875 50.875 C53.81371255 47.38184894 49.72481413 43.93551604 45.5625 40.5625 C40.51225581 36.46149407 35.60049258 32.21519865 30.69433594 27.94433594 C26.58984878 24.37295315 22.46688981 20.82572207 18.3125 17.3125 C17.79099365 16.87059326 17.2694873 16.42868652 16.73217773 15.97338867 C14.01591883 13.67833386 11.2819742 11.40816522 8.5234375 9.1640625 C7.96358154 8.70604248 7.40372559 8.24802246 6.8269043 7.77612305 C5.27785905 6.51128089 3.72308479 5.25346441 2.16796875 3.99609375 C1.45253906 3.33738281 0.73710938 2.67867187 0 2 C0 1.34 0 0.68 0 0 Z M161 139 C161.33 139.66 161.66 140.32 162 141 C162.66 140.67 163.32 140.34 164 140 C163.01 139.67 162.02 139.34 161 139 Z " fill="#F68821" transform="translate(105,12)"/>
<path d="M0 0 C0 3 0 3 -1.20239258 4.39111328 C-1.76079834 4.86274902 -2.3192041 5.33438477 -2.89453125 5.8203125 C-3.51457031 6.35076172 -4.13460937 6.88121094 -4.7734375 7.42773438 C-5.44632813 7.98783203 -6.11921875 8.54792969 -6.8125 9.125 C-7.84310547 9.99995117 -7.84310547 9.99995117 -8.89453125 10.89257812 C-13.59125302 14.86639029 -18.35240736 18.76025878 -23.1328125 22.6328125 C-27.25443714 26.03567971 -31.27730081 29.54858699 -35.30810547 33.05810547 C-40.96419371 37.98012092 -46.67768348 42.83072133 -52.41162109 47.66162109 C-55.08908953 49.91767427 -57.76372957 52.17706606 -60.4375 54.4375 C-61.23607422 55.11232422 -61.23607422 55.11232422 -62.05078125 55.80078125 C-65.49221005 58.71275946 -68.91671041 61.64371267 -72.33398438 64.58398438 C-76.99181926 68.59165256 -81.66303636 72.56841613 -86.4375 76.4375 C-91.48854068 80.53915271 -96.40128396 84.78591011 -101.30786133 89.05786133 C-106.96399021 93.98000517 -112.67759591 98.83064755 -118.41162109 103.66162109 C-121.08908953 105.91767427 -123.76372957 108.17706606 -126.4375 110.4375 C-126.96988281 110.88738281 -127.50226563 111.33726563 -128.05078125 111.80078125 C-132.6845278 115.72164371 -137.28475641 119.68094125 -141.88574219 123.64013672 C-146.45721866 127.56203648 -151.10106858 131.38271938 -155.79296875 135.16015625 C-157.64141388 136.70107245 -159.31573495 138.28735694 -161 140 C-151.46334736 133.30019973 -141.9642155 126.55301292 -132.52392578 119.71801758 C-128.02723539 116.46261632 -123.52124758 113.22119994 -119 110 C-113.73628108 106.24806212 -108.48938719 102.47333998 -103.25 98.6875 C-102.49275635 98.14037354 -101.7355127 97.59324707 -100.95532227 97.02954102 C-97.11834037 94.25629293 -93.28298829 91.480812 -89.44921875 88.703125 C-81.46579559 82.92265032 -73.4535138 77.18828386 -65.39208984 71.51708984 C-57.97053547 66.28892951 -50.61734946 60.967477 -43.26611328 55.64111328 C-39.51355195 52.92351823 -35.75654503 50.21208413 -32 47.5 C-30.51821638 46.4297052 -29.03644559 45.35939264 -27.5546875 44.2890625 C-24.37311802 41.99118537 -21.19068818 39.69450498 -18.0078125 37.3984375 C-16.78191406 36.51381836 -16.78191406 36.51381836 -15.53125 35.61132812 C-13.96636346 34.48212022 -12.40127044 33.35319839 -10.8359375 32.22460938 C-10.12953125 31.71478516 -9.423125 31.20496094 -8.6953125 30.6796875 C-7.7674292 30.01042236 -7.7674292 30.01042236 -6.82080078 29.32763672 C-4.98210137 28.05405865 -4.98210137 28.05405865 -3.48136902 26.51289368 C0.29583764 24.20992623 4.1792986 23.99496183 8.52270508 23.46606445 C9.48740219 23.33882996 10.4520993 23.21159546 11.44602966 23.08050537 C14.63578645 22.66292541 17.82747595 22.26287947 21.01953125 21.86328125 C23.23919058 21.5770422 25.45872762 21.28985332 27.67814636 21.00175476 C32.33179368 20.40021022 36.9863702 19.80670796 41.6418457 19.21948242 C47.60179468 18.46756849 53.55977026 17.70123296 59.51718616 16.92953205 C64.10209853 16.33630948 68.6876356 15.74804784 73.2734127 15.16155052 C75.46991035 14.8805541 77.66629359 14.59866193 79.86255836 14.31585121 C82.93751166 13.92120371 86.01316463 13.53257069 89.08911133 13.14575195 C89.99273407 13.02890549 90.89635681 12.91205902 91.82736206 12.79167175 C96.59563708 12.19907092 101.19505706 11.88055155 106 12 C102.28560145 15.08509035 98.13047696 17.07185626 93.83276367 19.20507812 C92.5998333 19.82296707 92.5998333 19.82296707 91.34199524 20.45333862 C88.61925934 21.81656029 85.89368049 23.17398942 83.16796875 24.53125 C81.25565724 25.48680873 79.34349435 26.44266496 77.43147278 27.39880371 C73.41021861 29.40864786 69.38763481 31.41579718 65.36401367 33.42089844 C60.2750193 35.95700623 55.18858832 38.49820102 50.10309887 41.04132843 C46.14235568 43.02156196 42.18056017 44.9996826 38.2184391 46.97715759 C36.34765098 47.91098812 34.47708538 48.84526462 32.60677147 49.78004456 C22.64349277 54.75748577 12.65220359 59.66416936 2.5949707 64.44921875 C-7.96060329 69.47332763 -18.43106881 74.65562766 -28.87799072 79.90141296 C-31.98519036 81.461578 -35.09376125 83.01898287 -38.20263672 84.57580566 C-44.80291186 87.88157043 -51.4015869 91.19052044 -58 94.5 C-65.66547941 98.34467402 -73.33166805 102.18792073 -80.99957275 106.02775574 C-84.01472819 107.53849835 -87.02863876 109.05170225 -90.04248047 110.56506348 C-101.62430878 116.37115958 -113.26910919 122.02823618 -124.96682739 127.59695435 C-130.48689942 130.2266913 -135.97163095 132.91936789 -141.43359375 135.66796875 C-142.78312889 136.34379753 -142.78312889 136.34379753 -144.15992737 137.03327942 C-146.92009919 138.41607379 -149.67883746 139.80169758 -152.4375 141.1875 C-154.35602328 142.14928109 -156.27464283 143.11087015 -158.19335938 144.07226562 C-162.79667666 146.37931653 -167.39871533 148.688898 -172 151 C-172.66 150.01 -173.32 149.02 -174 148 C-166.93154873 138.07544765 -159.81308288 128.1878162 -152.67333984 118.31445312 C-149.94736861 114.54406981 -147.22378466 110.77196306 -144.5 107 C-143.41667856 105.49999141 -142.33334521 103.99999142 -141.25 102.5 C-140.71375 101.7575 -140.1775 101.015 -139.625 100.25 C-134.75 93.5 -134.75 93.5 -133.12426758 91.24902344 C-132.04332809 89.75231299 -130.96243599 88.25556832 -129.8815918 86.75878906 C-127.1370246 82.95817363 -124.39158034 79.15819702 -121.64453125 75.359375 C-116.34901787 68.03473968 -111.0642127 60.70317074 -105.81884766 53.3425293 C-101.75479929 47.64479604 -97.65481996 41.9731203 -93.55273438 36.30273438 C-92.77446289 35.22668945 -92.77446289 35.22668945 -91.98046875 34.12890625 C-91.52567139 33.50056885 -91.07087402 32.87223145 -90.60229492 32.22485352 C-88.82875894 29.86823862 -88.82875894 29.86823862 -87.14355469 26.50390625 C-83.26257449 21.11940275 -76.84241212 20.34612448 -70.72265625 18.80859375 C-69.39183162 18.4541453 -68.06163506 18.09733125 -66.73204041 17.73829651 C-63.22657848 16.79837375 -59.71367379 15.89009287 -56.19818115 14.98852539 C-52.70342818 14.08684696 -49.2162706 13.15682403 -45.72851562 12.22851562 C-40.33839458 10.7970192 -34.94452136 9.38079016 -29.54736328 7.97607422 C-19.67524149 5.40133148 -9.83538112 2.71116402 0 0 Z " fill="#F68821" transform="translate(462,12)"/>
<path d="M0 0 C0 3 0 3 -1.20239258 4.39111328 C-1.76079834 4.86274902 -2.3192041 5.33438477 -2.89453125 5.8203125 C-3.51457031 6.35076172 -4.13460937 6.88121094 -4.7734375 7.42773438 C-5.44632813 7.98783203 -6.11921875 8.54792969 -6.8125 9.125 C-7.84310547 9.99995117 -7.84310547 9.99995117 -8.89453125 10.89257812 C-13.59125302 14.86639029 -18.35240736 18.76025878 -23.1328125 22.6328125 C-27.25443714 26.03567971 -31.27730081 29.54858699 -35.30810547 33.05810547 C-40.96419371 37.98012092 -46.67768348 42.83072133 -52.41162109 47.66162109 C-55.08908953 49.91767427 -57.76372957 52.17706606 -60.4375 54.4375 C-61.23607422 55.11232422 -61.23607422 55.11232422 -62.05078125 55.80078125 C-65.49221005 58.71275946 -68.91671041 61.64371267 -72.33398438 64.58398438 C-76.99181926 68.59165256 -81.66303636 72.56841613 -86.4375 76.4375 C-91.48854068 80.53915271 -96.40128396 84.78591011 -101.30786133 89.05786133 C-106.96399021 93.98000517 -112.67759591 98.83064755 -118.41162109 103.66162109 C-121.08908953 105.91767427 -123.76372957 108.17706606 -126.4375 110.4375 C-126.96988281 110.88738281 -127.50226563 111.33726563 -128.05078125 111.80078125 C-131.49229771 114.71283364 -134.91689956 117.64384447 -138.33422852 120.58422852 C-143.86561076 125.34340416 -149.44716759 130.02214051 -155.11328125 134.62109375 C-160.81895399 139.32306222 -166.40229574 144.17044785 -172 149 C-172.66 148.67 -173.32 148.34 -174 148 C-166.93154873 138.07544765 -159.81308288 128.1878162 -152.67333984 118.31445312 C-149.94736861 114.54406981 -147.22378466 110.77196306 -144.5 107 C-143.41667856 105.49999141 -142.33334521 103.99999142 -141.25 102.5 C-140.71375 101.7575 -140.1775 101.015 -139.625 100.25 C-134.75 93.5 -134.75 93.5 -133.12426758 91.24902344 C-132.04332809 89.75231299 -130.96243599 88.25556832 -129.8815918 86.75878906 C-127.1370246 82.95817363 -124.39158034 79.15819702 -121.64453125 75.359375 C-116.34901787 68.03473968 -111.0642127 60.70317074 -105.81884766 53.3425293 C-101.75479929 47.64479604 -97.65481996 41.9731203 -93.55273438 36.30273438 C-92.77446289 35.22668945 -92.77446289 35.22668945 -91.98046875 34.12890625 C-91.52567139 33.50056885 -91.07087402 32.87223145 -90.60229492 32.22485352 C-88.82875894 29.86823862 -88.82875894 29.86823862 -87.14355469 26.50390625 C-83.26257449 21.11940275 -76.84241212 20.34612448 -70.72265625 18.80859375 C-69.39183162 18.4541453 -68.06163506 18.09733125 -66.73204041 17.73829651 C-63.22657848 16.79837375 -59.71367379 15.89009287 -56.19818115 14.98852539 C-52.70342818 14.08684696 -49.2162706 13.15682403 -45.72851562 12.22851562 C-40.33839458 10.7970192 -34.94452136 9.38079016 -29.54736328 7.97607422 C-19.67524149 5.40133148 -9.83538112 2.71116402 0 0 Z " fill="#F2672B" transform="translate(462,12)"/>
<path d="M0 0 C19.14644432 4.81076914 38.23386628 9.82014477 57.26657104 15.06387329 C59.37875897 15.6458049 61.49132842 16.22635353 63.60427856 16.80551147 C66.59033239 17.62489294 69.57470293 18.4501246 72.55859375 19.27734375 C73.45504608 19.52284973 74.35149841 19.76835571 75.27511597 20.02130127 C76.10399323 20.25266785 76.93287048 20.48403442 77.78686523 20.72241211 C78.86761574 21.02144691 78.86761574 21.02144691 79.97019958 21.32652283 C83.83478937 22.60877353 86.25724386 23.89497139 88.55859375 27.28125 C89.01999756 27.94890381 89.48140137 28.61655762 89.95678711 29.30444336 C90.44542236 30.02897705 90.93405762 30.75351074 91.4375 31.5 C92.50938733 33.05409587 93.58233907 34.60745803 94.65625 36.16015625 C95.20796875 36.96211426 95.7596875 37.76407227 96.328125 38.59033203 C98.97881939 42.41076919 101.7064451 46.17429071 104.4375 49.9375 C105.52998792 51.44658563 106.62243563 52.95570036 107.71484375 54.46484375 C108.25737793 55.21362793 108.79991211 55.96241211 109.35888672 56.73388672 C112.07648173 60.486448 114.78794473 64.24343419 117.5 68 C118.58330362 69.50002146 119.66663696 71.00002146 120.75 72.5 C140.25 99.5 140.25 99.5 141.87548828 101.75073242 C142.95712268 103.24834254 144.03882823 104.74590126 145.12060547 106.2434082 C147.85552295 110.02955187 150.58913719 113.81662455 153.3203125 117.60546875 C153.86800293 118.364646 154.41569336 119.12382324 154.97998047 119.90600586 C156.06616617 121.41244774 157.15115175 122.91975577 158.23486328 124.42797852 C160.88179562 128.10391289 163.55658845 131.75236286 166.296875 135.359375 C166.81556152 136.04749268 167.33424805 136.73561035 167.86865234 137.44458008 C168.8498479 138.74271611 169.83938633 140.03460135 170.83837891 141.3190918 C171.97110382 142.82312925 172.99695097 144.4065487 174 146 C173.67 146.99 173.34 147.98 173 149 C172.40574219 148.45472656 171.81148437 147.90945312 171.19921875 147.34765625 C165.94232529 142.56494603 160.57506325 137.98505825 155.05078125 133.515625 C151.47943501 130.57075051 147.98785513 127.54283024 144.5 124.5 C140.21793708 120.76584832 135.91668165 117.07540896 131.5 113.5 C126.46571728 109.42178284 121.57489292 105.19382942 116.68969727 100.93969727 C112.10883911 96.95283667 107.49249713 93.0118092 102.84863281 89.09863281 C98.83615816 85.71518052 94.85289612 82.29899816 90.875 78.875 C86.81379124 75.38176144 82.72481029 71.93551293 78.5625 68.5625 C73.51145932 64.46084729 68.59871604 60.21408989 63.69213867 55.94213867 C58.03600979 51.01999483 52.32240409 46.16935245 46.58837891 41.33837891 C43.91091047 39.08232573 41.23627043 36.82293394 38.5625 34.5625 C38.03011719 34.11261719 37.49773437 33.66273437 36.94921875 33.19921875 C33.50712949 30.28668168 30.08196551 27.3551739 26.6640625 24.41430664 C19.46066725 18.21651638 12.13935777 12.17797441 4.765625 6.18359375 C3.13908982 4.83356955 1.56251874 3.42362819 0 2 C0 1.34 0 0.68 0 0 Z " fill="#F2672B" transform="translate(105,12)"/>
<path d="M0 0 C5.61 0 11.22 0 17 0 C26 21.25 26 21.25 26 25 C26.66 25 27.32 25 28 25 C28.350625 23.845 28.70125 22.69 29.0625 21.5 C31.50169276 14.12321802 34.82775784 7.08322565 38 0 C42.29 0 46.58 0 51 0 C52.6710825 3.78977639 54.33704298 7.58166021 56 11.375 C56.47695313 12.45523438 56.95390625 13.53546875 57.4453125 14.6484375 C57.89648438 15.6796875 58.34765625 16.7109375 58.8125 17.7734375 C59.23144531 18.72653809 59.65039062 19.67963867 60.08203125 20.66162109 C61 23 61 23 61 25 C61.66 25 62.32 25 63 25 C63.14695313 24.45214844 63.29390625 23.90429688 63.4453125 23.33984375 C65.71961205 15.30137121 68.83937683 7.72596775 72 0 C77.61 0 83.22 0 89 0 C87.0225941 6.14210994 84.80929232 12.08294978 82.27734375 18.015625 C81.93119522 18.83448181 81.58504669 19.65333862 81.22840881 20.49700928 C80.1346323 23.08270591 79.03622887 25.66640441 77.9375 28.25 C76.8362331 30.84830535 75.73591885 33.44701213 74.63587952 36.0458374 C73.95455395 37.65451034 73.27233764 39.2628064 72.58909607 40.8706665 C72.12334923 41.96770905 72.12334923 41.96770905 71.64819336 43.08691406 C71.37744492 43.72373108 71.10669647 44.3605481 70.82774353 45.0166626 C69.86048231 47.33429516 68.93270204 49.66824489 68 52 C64.37 52 60.74 52 57 52 C53.04 43.09 49.08 34.18 45 25 C40.4933477 33.93692065 36.06562121 42.85235227 32 52 C28.37 52 24.74 52 21 52 C18.48718587 46.04272287 15.97879668 40.0836088 13.47436523 34.12280273 C12.62301956 32.09821195 11.77049874 30.07411489 10.91674805 28.05053711 C9.68483914 25.13005722 8.45726557 22.20778663 7.23046875 19.28515625 C6.85222458 18.39103531 6.47398041 17.49691437 6.08427429 16.57569885 C3.79856067 11.11626183 1.80574489 5.63702104 0 0 Z " fill="#C02026" transform="translate(0,173)"/>
<path d="M0 0 C5.61 0 11.22 0 17 0 C20.33333333 8.33333333 23.66666667 16.66666667 27 25 C30.63 16.75 34.26 8.5 38 0 C42.29 0 46.58 0 51 0 C54.63 8.25 58.26 16.5 62 25 C65.3 16.75 68.6 8.5 72 0 C77.61 0 83.22 0 89 0 C86.9202237 6.50760774 84.51098146 12.76086127 81.8046875 19.03125 C81.41177521 19.94837769 81.01886292 20.86550537 80.61404419 21.8104248 C79.79049773 23.73048375 78.96518781 25.64978721 78.13818359 27.56835938 C76.86743268 30.5175625 75.60325212 33.46952002 74.33984375 36.421875 C73.53684237 38.29183163 72.73347042 40.16162918 71.9296875 42.03125 C71.36095413 43.35920593 71.36095413 43.35920593 70.7807312 44.71398926 C70.43011627 45.52573608 70.07950134 46.33748291 69.71826172 47.17382812 C69.40976288 47.89058716 69.10126404 48.60734619 68.78341675 49.3458252 C68 51 68 51 67 52 C65.31391034 52.07205511 63.62499341 52.08386068 61.9375 52.0625 C61.01839844 52.05347656 60.09929687 52.04445312 59.15234375 52.03515625 C58.44207031 52.02355469 57.73179687 52.01195312 57 52 C56.56429687 51.05640625 56.12859375 50.1128125 55.6796875 49.140625 C55.07821818 47.84370678 54.47665022 46.54683431 53.875 45.25 C53.59140625 44.63511719 53.3078125 44.02023438 53.015625 43.38671875 C50.13470826 37.1864849 47.06239799 31.12479598 44 25 C38.06 38.365 38.06 38.365 32 52 C28.37 52 24.74 52 21 52 C15.16960377 38.49224729 9.34867941 24.98083864 3.75 11.375 C3.36787354 10.45251465 2.98574707 9.5300293 2.59204102 8.57958984 C2.24713623 7.73605957 1.90223145 6.8925293 1.546875 6.0234375 C1.24620117 5.29044434 0.94552734 4.55745117 0.63574219 3.80224609 C0 2 0 2 0 0 Z " fill="#C02026" transform="translate(307,173)"/>
<path d="M0 0 C15 0 15 0 18.625 2.125 C19.40875 3.07375 20.1925 4.0225 21 5 C21.43530029 5.50039795 21.87060059 6.0007959 22.3190918 6.51635742 C23.58253981 7.98019667 24.79276858 9.48946416 26 11 C27.26572687 12.44199831 28.53588486 13.88013225 29.8125 15.3125 C30.29332031 15.88613281 30.77414062 16.45976562 31.26953125 17.05078125 C33.72336521 19.81480641 36.38646444 22.38646444 39 25 C39.33 16.75 39.66 8.5 40 0 C45.28 0 50.56 0 56 0 C56 16.83 56 33.66 56 51 C40 51 40 51 36.02734375 47.5625 C35.00364887 46.0514424 33.99509914 44.53004051 33 43 C31.63490738 41.47316028 30.23894304 39.97346751 28.81640625 38.5 C28.18420166 37.8296875 27.55199707 37.159375 26.90063477 36.46875 C26.12905029 35.6540625 25.35746582 34.839375 24.5625 34 C22.066875 31.36 19.57125 28.72 17 26 C16.67 34.25 16.34 42.5 16 51 C10.72 51 5.44 51 0 51 C0 34.17 0 17.34 0 0 Z " fill="#C02026" transform="translate(476,173)"/>
<path d="M0 0 C5.61 0 11.22 0 17 0 C17 5.94 17 11.88 17 18 C24.26 18 31.52 18 39 18 C39 12.06 39 6.12 39 0 C44.28 0 49.56 0 55 0 C55 16.83 55 33.66 55 51 C49.72 51 44.44 51 39 51 C39 44.73 39 38.46 39 32 C31.74 32 24.48 32 17 32 C17 38.27 17 44.54 17 51 C11.39 51 5.78 51 0 51 C0 34.17 0 17.34 0 0 Z " fill="#C02026" transform="translate(238,173)"/>
<path d="M0 0 C5.23875 -0.0825 10.4775 -0.165 15.875 -0.25 C17.50679199 -0.28641602 19.13858398 -0.32283203 20.81982422 -0.36035156 C30.21132105 -0.43169978 38.0989195 0.03589077 45.65625 6.1484375 C46.2646875 6.88320312 46.873125 7.61796875 47.5 8.375 C48.1290625 9.10460937 48.758125 9.83421875 49.40625 10.5859375 C54.09446936 17.68721094 53.8076348 25.79613068 53 34 C50.9061137 41.45033962 46.68085506 46.21231858 40 50 C36.17870381 51.2737654 32.59317169 51.12364186 28.61328125 51.09765625 C27.88894897 51.09664917 27.1646167 51.09564209 26.41833496 51.09460449 C23.71637384 51.08937826 21.0144353 51.07541698 18.3125 51.0625 C12.269375 51.041875 6.22625 51.02125 0 51 C0 34.17 0 17.34 0 0 Z M16 11 C16 20.57 16 30.14 16 40 C25.33221743 40.28506676 25.33221743 40.28506676 33 37 C36.80779612 32.78325202 37.14093948 28.52980187 37 23 C36.19746817 19.05366579 34.94817823 15.91854766 32 13.0625 C26.25275301 10.00927504 23.69806868 11 16 11 Z " fill="#C02026" transform="translate(169,173)"/>
<path d="M0 0 C0.79075928 0.00523682 1.58151855 0.01047363 2.39624023 0.01586914 C3.67724609 0.02070313 3.67724609 0.02070313 4.98413086 0.02563477 C5.88196289 0.03401367 6.77979492 0.04239258 7.70483398 0.05102539 C8.6065332 0.05553711 9.50823242 0.06004883 10.43725586 0.06469727 C12.67234712 0.07652315 14.90730835 0.09300319 17.14233398 0.11352539 C24.51321004 17.09754494 31.86950678 34.08721674 39.14233398 51.11352539 C33.20233398 51.11352539 27.26233398 51.11352539 21.14233398 51.11352539 C20.15233398 47.81352539 19.16233398 44.51352539 18.14233398 41.11352539 C10.88233398 41.11352539 3.62233398 41.11352539 -3.85766602 41.11352539 C-4.18766602 42.76352539 -4.51766602 44.41352539 -4.85766602 46.11352539 C-5.84766602 48.58852539 -5.84766602 48.58852539 -6.85766602 51.11352539 C-12.46766602 51.11352539 -18.07766602 51.11352539 -23.85766602 51.11352539 C-23.10649877 47.35768918 -22.43286753 44.81562734 -20.92407227 41.4309082 C-20.52696045 40.53357971 -20.12984863 39.63625122 -19.72070312 38.71173096 C-19.29152588 37.75635437 -18.86234863 36.80097778 -18.42016602 35.81665039 C-17.98003174 34.82727478 -17.53989746 33.83789917 -17.08642578 32.81854248 C-16.15743877 30.73301521 -15.22598542 28.64858505 -14.29223633 26.56518555 C-12.85777922 23.36377805 -11.43132783 20.15889605 -10.00610352 16.95336914 C-9.10292449 14.92842128 -8.19929433 12.90367457 -7.29516602 10.87915039 C-6.65140015 9.43394012 -6.65140015 9.43394012 -5.99462891 7.95953369 C-5.59751709 7.07481384 -5.20040527 6.19009399 -4.79125977 5.27856445 C-4.44119873 4.49644592 -4.0911377 3.71432739 -3.73046875 2.9085083 C-2.38715425 0.14588339 -2.38715425 0.14588339 0 0 Z M6.14233398 16.11352539 C5.30493617 18.23692699 4.47253116 20.36229819 3.64233398 22.48852539 C3.17827148 23.67188477 2.71420898 24.85524414 2.23608398 26.07446289 C1.02945605 28.88884979 1.02945605 28.88884979 1.14233398 31.11352539 C5.10233398 31.11352539 9.06233398 31.11352539 13.14233398 31.11352539 C12.37472421 27.2754765 11.54729072 24.35132395 10.07983398 20.80102539 C9.71760742 19.91801758 9.35538086 19.03500977 8.98217773 18.12524414 C8.7050293 17.46137695 8.42788086 16.79750977 8.14233398 16.11352539 C7.48233398 16.11352539 6.82233398 16.11352539 6.14233398 16.11352539 Z " fill="#C02026" transform="translate(421.857666015625,172.886474609375)"/>
<path d="M0 0 C0.79075928 0.00523682 1.58151855 0.01047363 2.39624023 0.01586914 C3.67724609 0.02070313 3.67724609 0.02070313 4.98413086 0.02563477 C5.88196289 0.03401367 6.77979492 0.04239258 7.70483398 0.05102539 C8.6065332 0.05553711 9.50823242 0.06004883 10.43725586 0.06469727 C12.67234712 0.07652315 14.90730835 0.09300319 17.14233398 0.11352539 C19.796499 6.08948342 22.44706988 12.06702617 25.09521484 18.0456543 C25.99544036 20.07694067 26.89647088 22.1078705 27.79833984 24.13842773 C29.0987478 27.06667933 30.39620114 29.99622499 31.69311523 32.92602539 C32.29329216 34.27494873 32.29329216 34.27494873 32.90559387 35.65112305 C35.15962553 40.75181047 37.23798327 45.87189992 39.14233398 51.11352539 C33.53233398 51.11352539 27.92233398 51.11352539 22.14233398 51.11352539 C18.14233398 43.36352539 18.14233398 43.36352539 18.14233398 41.11352539 C7.74733398 41.60852539 7.74733398 41.60852539 -2.85766602 42.11352539 C-4.17766602 45.08352539 -5.49766602 48.05352539 -6.85766602 51.11352539 C-12.46766602 51.11352539 -18.07766602 51.11352539 -23.85766602 51.11352539 C-21.80193658 44.65845387 -19.40375106 38.49288763 -16.66235352 32.30102539 C-16.26944122 31.40609375 -15.87652893 30.51116211 -15.47171021 29.58911133 C-14.64833052 27.71603872 -13.82301904 25.84381421 -12.99584961 23.97241211 C-11.72483432 21.09580039 -10.46073637 18.21622094 -9.19750977 15.33618164 C-8.39452677 13.51178572 -7.59115548 11.68756064 -6.78735352 9.86352539 C-6.40819794 9.00009521 -6.02904236 8.13666504 -5.63839722 7.24707031 C-5.28778229 6.45534424 -4.93716736 5.66361816 -4.57592773 4.84790039 C-4.26742889 4.14890625 -3.95893005 3.44991211 -3.64108276 2.72973633 C-2.38867135 0.1459761 -2.38867135 0.1459761 0 0 Z M7.14233398 15.11352539 C6.13792059 17.40334879 5.13865787 19.69518529 4.14233398 21.98852539 C3.85616211 22.63950195 3.56999023 23.29047852 3.27514648 23.96118164 C1.68307633 27.40990878 1.68307633 27.40990878 1.14233398 31.11352539 C5.43233398 31.11352539 9.72233398 31.11352539 14.14233398 31.11352539 C12.16233398 25.83352539 10.18233398 20.55352539 8.14233398 15.11352539 C7.81233398 15.11352539 7.48233398 15.11352539 7.14233398 15.11352539 Z " fill="#C02026" transform="translate(114.857666015625,172.886474609375)"/>
<path d="M0 0 C5.61 0 11.22 0 17 0 C17 16.83 17 33.66 17 51 C11.39 51 5.78 51 0 51 C0 34.17 0 17.34 0 0 Z " fill="#C02026" transform="translate(551,173)"/>
<path d="M0 0 C2.64 0 5.28 0 8 0 C11.96 6.93 15.92 13.86 20 21 C20.33 14.07 20.66 7.14 21 0 C22.98 0 24.96 0 27 0 C27 11.22 27 22.44 27 34 C24.69 34 22.38 34 20 34 C18.77011841 31.8545738 17.54108708 29.70866738 16.3125 27.5625 C15.80299805 26.67401367 15.80299805 26.67401367 15.28320312 25.76757812 C12.47923845 20.86719127 9.74255111 15.93659201 7 11 C6.67 18.59 6.34 26.18 6 34 C4.02 34 2.04 34 0 34 C0 22.78 0 11.56 0 0 Z " fill="#C02026" transform="translate(450,247)"/>
<path d="M0 0 C7 0 7 0 8.75 1.73046875 C9.36875 2.94669922 9.36875 2.94669922 10 4.1875 C10.71542969 5.53521484 10.71542969 5.53521484 11.4453125 6.91015625 C11.95835937 7.92980469 12.47140625 8.94945312 13 10 C13.93382354 11.73722209 14.87973572 13.46745009 15.82763672 15.19702148 C17.23558631 17.78876458 18.61488417 20.39598224 20 23 C20.33 15.41 20.66 7.82 21 0 C22.98 0 24.96 0 27 0 C27 11.22 27 22.44 27 34 C24.36 34 21.72 34 19 34 C14.71 26.41 10.42 18.82 6 11 C5.67 18.59 5.34 26.18 5 34 C3.35 34 1.7 34 0 34 C0 22.78 0 11.56 0 0 Z " fill="#C02026" transform="translate(215,247)"/>
<path d="M0 0 C3.76263733 5.44933682 4.69315422 12.03292987 3.5625 18.50390625 C2.14114417 23.40596867 0.55174019 26.35363943 -4 29 C-9.34995624 31.61276933 -14.30570303 31.13504412 -20 30 C-23.98655952 28.44004193 -26.26724423 26.11778437 -28.2734375 22.29296875 C-30.19504577 16.22853834 -29.80104624 9.49214386 -27.875 3.5 C-25.06015901 -0.25312131 -22.18138459 -3.17461124 -17.6875 -4.875 C-10.81687172 -5.19456411 -5.36101033 -4.72279481 0 0 Z M-22 6 C-23.85269921 9.70539842 -23.46444489 13.95623313 -23 18 C-21.68882399 21.11326625 -20.09390848 23.45304576 -17 25 C-12.60999398 25.35983656 -10.07257836 25.53628918 -6.125 23.5625 C-3.14137211 19.96459578 -2.3125741 16.62609662 -2 12 C-2.614559 7.83465565 -3.36459795 5.72884352 -6.125 2.5625 C-12.67778778 -0.99879771 -17.36739145 0.10395275 -22 6 Z " fill="#C02026" transform="translate(432,251)"/>
<path d="M0 0 C4.51428711 3.68146266 6.56426012 6.99141633 7.19921875 12.890625 C7.33078432 24.06054153 7.33078432 24.06054153 2.86328125 28.76953125 C2.16203125 29.53265625 1.46078125 30.29578125 0.73828125 31.08203125 C-4.01275628 33.87068371 -9.01854728 34.37184471 -14.421875 33.328125 C-18.96296511 31.84272169 -21.65160307 29.97511162 -24.13671875 25.76953125 C-26.72771238 19.47711815 -26.75344386 13.05145171 -24.34765625 6.6796875 C-22.3127978 2.76713445 -20.13334239 0.56801189 -16.13671875 -1.23046875 C-10.82488152 -2.87434259 -4.88947489 -2.81569395 0 0 Z M-18.13671875 7.76953125 C-19.92529944 12.20247286 -20.27131817 15.85724632 -19.57421875 20.58203125 C-17.88472268 24.32830513 -16.7506011 25.80546476 -13.13671875 27.76953125 C-10.32428236 28.3730095 -7.94019017 28.44349711 -5.13671875 27.76953125 C-1.85732452 25.11810613 0.62976571 22.89796795 1.1015625 18.59765625 C1.27412705 12.60330862 0.8440373 9.3356926 -3.13671875 4.76953125 C-8.62809791 2.02384167 -14.32644034 3.17478375 -18.13671875 7.76953125 Z " fill="#C02026" transform="translate(148.13671875,248.23046875)"/>
<path d="M0 0 C18.625 0 18.625 0 24.8125 5.5 C28.71481509 9.95978867 28.27934473 14.37982188 28.2109375 20.05078125 C27.94554338 23.7613842 27.23897263 26.01470315 25 29 C16.29502267 35.71008669 12.78908388 34 0 34 C0 22.78 0 11.56 0 0 Z M6 5 C6 12.92 6 20.84 6 29 C14.6549398 29.05747129 14.6549398 29.05747129 20.8125 24.375 C22.6855912 20.6288176 22.6393698 17.09907084 22 13 C20.28416355 9.50477761 19.03312564 7.61429092 15.6875 5.625 C12.32352689 4.73573426 12.32352689 4.73573426 6 5 Z " fill="#C02026" transform="translate(259,247)"/>
<path d="M0 0 C2.31 0 4.62 0 7 0 C8.99609334 4.68042936 10.98986184 9.3618393 12.98144531 14.04418945 C13.65983672 15.63821413 14.33887206 17.23196492 15.01855469 18.82543945 C15.99321652 21.11077991 16.96558761 23.39708291 17.9375 25.68359375 C18.24373291 26.40026718 18.54996582 27.11694061 18.86547852 27.85533142 C21 32.88612829 21 32.88612829 21 34 C18.69 34 16.38 34 14 34 C12.515 30.535 12.515 30.535 11 27 C6.05 27 1.1 27 -4 27 C-4.99 29.31 -5.98 31.62 -7 34 C-9.31 34 -11.62 34 -14 34 C-9.48440803 22.59890644 -4.91156984 11.23707646 0 0 Z M3 7 C2.16235732 8.95649397 1.33000941 10.91525556 0.5 12.875 C0.0359375 13.96554687 -0.428125 15.05609375 -0.90625 16.1796875 C-2.12052456 18.80661929 -2.12052456 18.80661929 -2 21 C1.63 21 5.26 21 9 21 C6.68635915 13.93199136 6.68635915 13.93199136 4 7 C3.67 7 3.34 7 3 7 Z " fill="#C02026" transform="translate(312,247)"/>
<path d="M0 0 C1.98 0 3.96 0 6 0 C6.01981934 0.74161377 6.03963867 1.48322754 6.06005859 2.24731445 C6.15522928 5.60273834 6.26494094 8.95753286 6.375 12.3125 C6.4059375 13.47974609 6.436875 14.64699219 6.46875 15.84960938 C6.50742188 16.96787109 6.54609375 18.08613281 6.5859375 19.23828125 C6.6173584 20.26993408 6.6487793 21.30158691 6.68115234 22.36450195 C6.82674629 25.22843236 6.82674629 25.22843236 9 28 C10.90457929 28.43827201 10.90457929 28.43827201 13 28.3125 C14.051875 28.30669922 14.051875 28.30669922 15.125 28.30078125 C17.2416577 28.14912946 17.2416577 28.14912946 19 26 C20.02448603 22.95340419 20.18627842 19.99430165 20.31640625 16.796875 C20.35830078 15.8171875 20.40019531 14.8375 20.44335938 13.828125 C20.48267578 12.81234375 20.52199219 11.7965625 20.5625 10.75 C20.60568359 9.71875 20.64886719 8.6875 20.69335938 7.625 C20.79925682 5.0834613 20.90133443 2.54182804 21 0 C22.98 0 24.96 0 27 0 C27.05874776 3.33325754 27.09384467 6.66637938 27.125 10 C27.14175781 10.93457031 27.15851563 11.86914062 27.17578125 12.83203125 C27.22428465 19.76801797 27.0200066 26.0331153 23 31.9375 C18.79779706 34.82651452 15.04830835 35.29124856 10 35 C6.30831924 33.65757063 3.4555296 32.1017216 1 29 C-0.07917226 25.76248322 -0.11425601 23.42248229 -0.09765625 20.01953125 C-0.09443359 18.85615234 -0.09121094 17.69277344 -0.08789062 16.49414062 C-0.07951172 15.27919922 -0.07113281 14.06425781 -0.0625 12.8125 C-0.05798828 11.58595703 -0.05347656 10.35941406 -0.04882812 9.09570312 C-0.03703065 6.06375332 -0.02056921 3.03190094 0 0 Z " fill="#C02026" transform="translate(171,247)"/>
<path d="M0 0 C8.91 0 17.82 0 27 0 C27 1.65 27 3.3 27 5 C23.37 5 19.74 5 16 5 C16 14.57 16 24.14 16 34 C14.02 34 12.04 34 10 34 C10 24.43 10 14.86 10 5 C6.7 5 3.4 5 0 5 C0 3.35 0 1.7 0 0 Z " fill="#C02026" transform="translate(342,247)"/>
<path d="M0 0 C5.94 0 11.88 0 18 0 C18 1.65 18 3.3 18 5 C13.71 5 9.42 5 5 5 C5 7.97 5 10.94 5 14 C9.29 14 13.58 14 18 14 C18 15.65 18 17.3 18 19 C13.71 19 9.42 19 5 19 C5 23.95 5 28.9 5 34 C3.35 34 1.7 34 0 34 C0 22.78 0 11.56 0 0 Z " fill="#C02026" transform="translate(91,247)"/>
<path d="M0 0 C1.65 0 3.3 0 5 0 C5 11.22 5 22.44 5 34 C3.35 34 1.7 34 0 34 C0 22.78 0 11.56 0 0 Z " fill="#C02026" transform="translate(382,247)"/>
</svg>
